<svg xmlns="http://www.w3.org/2000/svg" xmlns:xlink="http://www.w3.org/1999/xlink" xmlns:s="https://github.com/nturley/netlistsvg" width="1001.5" height="435"><style>svg {
  stroke:#000;
  fill:none;
}
text {
  fill:#000;
  stroke:none;
  font-size:10px;
  font-weight: bold;
  font-family: "Courier New", monospace;
}
line {
    stroke-linecap: round;
}
.nodelabel {
  text-anchor: middle;
}
.inputPortLabel {
  text-anchor: end;
}
.splitjoinBody {
  fill:#000;
}</style><g s:type="eq" transform="translate(770,374)" s:width="25" s:height="25" id="cell_$eq$ALU_Control.v:14$1"><s:alias val="$eq"/><circle r="12.5" cx="12.5" cy="12.5" fill="#ffc9c3" class="cell_$eq$ALU_Control.v:14$1"/><line x1="7.5" x2="17.5" y1="10" y2="10" class="cell_$eq$ALU_Control.v:14$1"/><line x1="7.5" x2="17.5" y1="15" y2="15" class="cell_$eq$ALU_Control.v:14$1"/><g s:x="2" s:y="5" s:pid="A"/><g s:x="2" s:y="20" s:pid="B"/><g s:x="25" s:y="12.5" s:pid="Y"/></g><g s:type="not" transform="translate(644.5,348)" s:width="30" s:height="20" id="cell_$eq$ALU_Control.v:15$2"><s:alias val="$_NOT_"/><s:alias val="$not"/><s:alias val="$logic_not"/><path d="M0,0 L0,20 L20,10 Z" fill="#eebaff" class="cell_$eq$ALU_Control.v:15$2"/><circle cx="24" cy="10" r="3" fill="#eebaff" class="cell_$eq$ALU_Control.v:15$2"/><g s:x="-1" s:y="10" s:pid="A"/><g s:x="27" s:y="10" s:pid="Y"/></g><g s:type="eq" transform="translate(523,273)" s:width="25" s:height="25" id="cell_$eq$ALU_Control.v:16$3"><s:alias val="$eq"/><circle r="12.5" cx="12.5" cy="12.5" fill="#ffc9c3" class="cell_$eq$ALU_Control.v:16$3"/><line x1="7.5" x2="17.5" y1="10" y2="10" class="cell_$eq$ALU_Control.v:16$3"/><line x1="7.5" x2="17.5" y1="15" y2="15" class="cell_$eq$ALU_Control.v:16$3"/><g s:x="2" s:y="5" s:pid="A"/><g s:x="2" s:y="20" s:pid="B"/><g s:x="25" s:y="12.5" s:pid="Y"/></g><g s:type="eq" transform="translate(393,169.5)" s:width="25" s:height="25" id="cell_$eq$ALU_Control.v:17$4"><s:alias val="$eq"/><circle r="12.5" cx="12.5" cy="12.5" fill="#ffc9c3" class="cell_$eq$ALU_Control.v:17$4"/><line x1="7.5" x2="17.5" y1="10" y2="10" class="cell_$eq$ALU_Control.v:17$4"/><line x1="7.5" x2="17.5" y1="15" y2="15" class="cell_$eq$ALU_Control.v:17$4"/><g s:x="2" s:y="5" s:pid="A"/><g s:x="2" s:y="20" s:pid="B"/><g s:x="25" s:y="12.5" s:pid="Y"/></g><g s:type="eq" transform="translate(261,86)" s:width="25" s:height="25" id="cell_$eq$ALU_Control.v:18$5"><s:alias val="$eq"/><circle r="12.5" cx="12.5" cy="12.5" fill="#ffc9c3" class="cell_$eq$ALU_Control.v:18$5"/><line x1="7.5" x2="17.5" y1="10" y2="10" class="cell_$eq$ALU_Control.v:18$5"/><line x1="7.5" x2="17.5" y1="15" y2="15" class="cell_$eq$ALU_Control.v:18$5"/><g s:x="2" s:y="5" s:pid="A"/><g s:x="2" s:y="20" s:pid="B"/><g s:x="25" s:y="12.5" s:pid="Y"/></g><g s:type="mux-bus" transform="translate(831,52)" s:width="24" s:height="40" id="cell_$ternary$ALU_Control.v:14$10"><s:alias val="$pmux-bus"/><s:alias val="$mux-bus"/><s:alias val="$_MUX_-bus"/><path d="M8,2 L8,0 L24,8 L24,32 L8,40 L8,38" fill="#ffffff" class="cell_$ternary$ALU_Control.v:14$10"/><path d="M4,2 L4,0 L22,9 L22,31 L4,40 L4,38" fill="#ffffff" class="cell_$ternary$ALU_Control.v:14$10"/><path d="M0,0 L20,10 L20,30 L0,40 Z" fill="#ffffff" class="cell_$ternary$ALU_Control.v:14$10"/><text x="5" y="32" class="nodelabel cell_$ternary$ALU_Control.v:14$10" s:attribute="">1</text><text x="5" y="13" class="nodelabel cell_$ternary$ALU_Control.v:14$10" s:attribute="">0</text><g s:x="-1" s:y="10" s:pid="A"/><g s:x="-1" s:y="30" s:pid="B"/><g s:x="12" s:y="38" s:pid="S"/><g s:x="24.5" s:y="20" s:pid="Y"/></g><g s:type="mux-bus" transform="translate(710.5,42)" s:width="24" s:height="40" id="cell_$ternary$ALU_Control.v:15$9"><s:alias val="$pmux-bus"/><s:alias val="$mux-bus"/><s:alias val="$_MUX_-bus"/><path d="M8,2 L8,0 L24,8 L24,32 L8,40 L8,38" fill="#ffffff" class="cell_$ternary$ALU_Control.v:15$9"/><path d="M4,2 L4,0 L22,9 L22,31 L4,40 L4,38" fill="#ffffff" class="cell_$ternary$ALU_Control.v:15$9"/><path d="M0,0 L20,10 L20,30 L0,40 Z" fill="#ffffff" class="cell_$ternary$ALU_Control.v:15$9"/><text x="5" y="32" class="nodelabel cell_$ternary$ALU_Control.v:15$9" s:attribute="">1</text><text x="5" y="13" class="nodelabel cell_$ternary$ALU_Control.v:15$9" s:attribute="">0</text><g s:x="-1" s:y="10" s:pid="A"/><g s:x="-1" s:y="30" s:pid="B"/><g s:x="12" s:y="38" s:pid="S"/><g s:x="24.5" s:y="20" s:pid="Y"/></g><g s:type="mux-bus" transform="translate(584,32)" s:width="24" s:height="40" id="cell_$ternary$ALU_Control.v:16$8"><s:alias val="$pmux-bus"/><s:alias val="$mux-bus"/><s:alias val="$_MUX_-bus"/><path d="M8,2 L8,0 L24,8 L24,32 L8,40 L8,38" fill="#ffffff" class="cell_$ternary$ALU_Control.v:16$8"/><path d="M4,2 L4,0 L22,9 L22,31 L4,40 L4,38" fill="#ffffff" class="cell_$ternary$ALU_Control.v:16$8"/><path d="M0,0 L20,10 L20,30 L0,40 Z" fill="#ffffff" class="cell_$ternary$ALU_Control.v:16$8"/><text x="5" y="32" class="nodelabel cell_$ternary$ALU_Control.v:16$8" s:attribute="">1</text><text x="5" y="13" class="nodelabel cell_$ternary$ALU_Control.v:16$8" s:attribute="">0</text><g s:x="-1" s:y="10" s:pid="A"/><g s:x="-1" s:y="30" s:pid="B"/><g s:x="12" s:y="38" s:pid="S"/><g s:x="24.5" s:y="20" s:pid="Y"/></g><g s:type="mux-bus" transform="translate(459.6666666666667,22)" s:width="24" s:height="40" id="cell_$ternary$ALU_Control.v:17$7"><s:alias val="$pmux-bus"/><s:alias val="$mux-bus"/><s:alias val="$_MUX_-bus"/><path d="M8,2 L8,0 L24,8 L24,32 L8,40 L8,38" fill="#ffffff" class="cell_$ternary$ALU_Control.v:17$7"/><path d="M4,2 L4,0 L22,9 L22,31 L4,40 L4,38" fill="#ffffff" class="cell_$ternary$ALU_Control.v:17$7"/><path d="M0,0 L20,10 L20,30 L0,40 Z" fill="#ffffff" class="cell_$ternary$ALU_Control.v:17$7"/><text x="5" y="32" class="nodelabel cell_$ternary$ALU_Control.v:17$7" s:attribute="">1</text><text x="5" y="13" class="nodelabel cell_$ternary$ALU_Control.v:17$7" s:attribute="">0</text><g s:x="-1" s:y="10" s:pid="A"/><g s:x="-1" s:y="30" s:pid="B"/><g s:x="12" s:y="38" s:pid="S"/><g s:x="24.5" s:y="20" s:pid="Y"/></g><g s:type="mux-bus" transform="translate(327.6666666666667,12)" s:width="24" s:height="40" id="cell_$ternary$ALU_Control.v:18$6"><s:alias val="$pmux-bus"/><s:alias val="$mux-bus"/><s:alias val="$_MUX_-bus"/><path d="M8,2 L8,0 L24,8 L24,32 L8,40 L8,38" fill="#ffffff" class="cell_$ternary$ALU_Control.v:18$6"/><path d="M4,2 L4,0 L22,9 L22,31 L4,40 L4,38" fill="#ffffff" class="cell_$ternary$ALU_Control.v:18$6"/><path d="M0,0 L20,10 L20,30 L0,40 Z" fill="#ffffff" class="cell_$ternary$ALU_Control.v:18$6"/><text x="5" y="32" class="nodelabel cell_$ternary$ALU_Control.v:18$6" s:attribute="">1</text><text x="5" y="13" class="nodelabel cell_$ternary$ALU_Control.v:18$6" s:attribute="">0</text><g s:x="-1" s:y="10" s:pid="A"/><g s:x="-1" s:y="30" s:pid="B"/><g s:x="12" s:y="38" s:pid="S"/><g s:x="24.5" s:y="20" s:pid="Y"/></g><g s:type="inputExt" transform="translate(12,403)" s:width="30" s:height="20" id="cell_alu_op"><text x="15" y="-4" class="nodelabel cell_alu_op" s:attribute="ref">alu_op</text><s:alias val="$_inputExt_"/><path d="M0,0 L0,20 L15,20 L30,10 L15,0 Z" fill="#8bcaff" class="cell_alu_op"/><g s:x="30" s:y="10" s:pid="Y"/></g><g s:type="outputExt" transform="translate(929.5,62)" s:width="30" s:height="20" id="cell_ALUControl"><text x="15" y="-4" class="nodelabel cell_ALUControl" s:attribute="ref">ALUControl</text><s:alias val="$_outputExt_"/><path d="M30,0 L30,20 L15,20 L0,10 L15,0 Z" fill="#169300" class="cell_ALUControl"/><g s:x="0" s:y="10" s:pid="A"/></g><g s:type="inputExt" transform="translate(12,338)" s:width="30" s:height="20" id="cell_Fun"><text x="15" y="-4" class="nodelabel cell_Fun" s:attribute="ref">Fun</text><s:alias val="$_inputExt_"/><path d="M0,0 L0,20 L15,20 L30,10 L15,0 Z" fill="#8bcaff" class="cell_Fun"/><g s:x="30" s:y="10" s:pid="Y"/></g><g s:type="constant" transform="translate(643.5,400)" s:width="30" s:height="20" id="cell_11xxxx"><text x="15" y="-4" class="nodelabel cell_11xxxx" s:attribute="ref">0x3</text><s:alias val="$_constant_"/><rect width="30" height="20" fill="#745bff" class="cell_11xxxx"/><g s:x="31" s:y="10" s:pid="Y"/></g><g s:type="constant" transform="translate(391,299)" s:width="30" s:height="20" id="cell_000001"><text x="15" y="-4" class="nodelabel cell_000001" s:attribute="ref">0x1</text><s:alias val="$_constant_"/><rect width="30" height="20" fill="#745bff" class="cell_000001"/><g s:x="31" s:y="10" s:pid="Y"/></g><g s:type="constant" transform="translate(259,225.5)" s:width="30" s:height="20" id="cell_000010"><text x="15" y="-4" class="nodelabel cell_000010" s:attribute="ref">0x2</text><s:alias val="$_constant_"/><rect width="30" height="20" fill="#745bff" class="cell_000010"/><g s:x="31" s:y="10" s:pid="Y"/></g><g s:type="constant" transform="translate(122,101)" s:width="30" s:height="20" id="cell_000011"><text x="15" y="-4" class="nodelabel cell_000011" s:attribute="ref">0x3</text><s:alias val="$_constant_"/><rect width="30" height="20" fill="#745bff" class="cell_000011"/><g s:x="31" s:y="10" s:pid="Y"/></g><g s:type="constant" transform="translate(188,251)" s:width="30" s:height="20" id="cell_000"><text x="15" y="-4" class="nodelabel cell_000" s:attribute="ref">000</text><s:alias val="$_constant_"/><rect width="30" height="20" fill="#745bff" class="cell_000"/><g s:x="31" s:y="10" s:pid="Y"/></g><g s:type="constant" transform="translate(457,202)" s:width="30" s:height="20" id="cell_001"><text x="15" y="-4" class="nodelabel cell_001" s:attribute="ref">001</text><s:alias val="$_constant_"/><rect width="30" height="20" fill="#745bff" class="cell_001"/><g s:x="31" s:y="10" s:pid="Y"/></g><g s:type="constant" transform="translate(325,118.5)" s:width="30" s:height="20" id="cell_010"><text x="15" y="-4" class="nodelabel cell_010" s:attribute="ref">010</text><s:alias val="$_constant_"/><rect width="30" height="20" fill="#745bff" class="cell_010"/><g s:x="31" s:y="10" s:pid="Y"/></g><g s:type="constant" transform="translate(188,32)" s:width="30" s:height="20" id="cell_011"><text x="15" y="-4" class="nodelabel cell_011" s:attribute="ref">011</text><s:alias val="$_constant_"/><rect width="30" height="20" fill="#745bff" class="cell_011"/><g s:x="31" s:y="10" s:pid="Y"/></g><g s:type="join" transform="translate(142,337.5)" s:width="5" s:height="40" id="cell_$join$,7,8,9,10,2,3,"><rect width="5" height="40" class="splitjoinBody" s:generic="body"/><s:alias val="$_join_"/><g s:x="5" s:y="20" s:pid="out"/><g transform="translate(-1,10)" s:x="-1" s:y="10" s:pid="in0"><text x="-3" y="-4" class="inputPortLabel">0:3</text></g><g transform="translate(-1,30)" s:x="-1" s:y="10" s:pid="in0"><text x="-3" y="-4" class="inputPortLabel">4:5</text></g></g><line x1="148" x2="366" y1="358" y2="358" class="net_7,8,9,10,2,3 width_6" style="stroke-width: 2"/><line x1="366" x2="366" y1="358" y2="379" class="net_7,8,9,10,2,3 width_6" style="stroke-width: 2"/><circle cx="366" cy="358" r="3" style="fill:#000" class="net_7,8,9,10,2,3 width_6"/><line x1="366" x2="772" y1="379" y2="379" class="net_7,8,9,10,2,3 width_6" style="stroke-width: 2"/><line x1="148" x2="643.5" y1="358" y2="358" class="net_7,8,9,10,2,3 width_6" style="stroke-width: 2"/><line x1="148" x2="229" y1="358" y2="358" class="net_7,8,9,10,2,3 width_6" style="stroke-width: 2"/><line x1="229" x2="229" y1="358" y2="278" class="net_7,8,9,10,2,3 width_6" style="stroke-width: 2"/><circle cx="229" cy="358" r="3" style="fill:#000" class="net_7,8,9,10,2,3 width_6"/><line x1="229" x2="525" y1="278" y2="278" class="net_7,8,9,10,2,3 width_6" style="stroke-width: 2"/><line x1="148" x2="163" y1="358" y2="358" class="net_7,8,9,10,2,3 width_6" style="stroke-width: 2"/><line x1="163" x2="163" y1="358" y2="174.5" class="net_7,8,9,10,2,3 width_6" style="stroke-width: 2"/><circle cx="163" cy="358" r="3" style="fill:#000" class="net_7,8,9,10,2,3 width_6"/><circle cx="163" cy="174.5" r="3" style="fill:#000" class="net_7,8,9,10,2,3 width_6"/><line x1="163" x2="395" y1="174.5" y2="174.5" class="net_7,8,9,10,2,3 width_6" style="stroke-width: 2"/><line x1="148" x2="163" y1="358" y2="358" class="net_7,8,9,10,2,3 width_6" style="stroke-width: 2"/><line x1="163" x2="163" y1="358" y2="91" class="net_7,8,9,10,2,3 width_6" style="stroke-width: 2"/><line x1="163" x2="263" y1="91" y2="91" class="net_7,8,9,10,2,3 width_6" style="stroke-width: 2"/><line x1="674.5" x2="745" y1="410" y2="410" class="net_28,29,30,31,32,33 width_6" style="stroke-width: 2"/><line x1="745" x2="745" y1="410" y2="394" class="net_28,29,30,31,32,33 width_6" style="stroke-width: 2"/><line x1="745" x2="772" y1="394" y2="394" class="net_28,29,30,31,32,33 width_6" style="stroke-width: 2"/><line x1="422" x2="498" y1="309" y2="309" class="net_34,35,36,37,38,39 width_6" style="stroke-width: 2"/><line x1="498" x2="498" y1="309" y2="293" class="net_34,35,36,37,38,39 width_6" style="stroke-width: 2"/><line x1="498" x2="525" y1="293" y2="293" class="net_34,35,36,37,38,39 width_6" style="stroke-width: 2"/><line x1="290" x2="366" y1="235.5" y2="235.5" class="net_40,41,42,43,44,45 width_6" style="stroke-width: 2"/><line x1="366" x2="366" y1="235.5" y2="189.5" class="net_40,41,42,43,44,45 width_6" style="stroke-width: 2"/><line x1="366" x2="395" y1="189.5" y2="189.5" class="net_40,41,42,43,44,45 width_6" style="stroke-width: 2"/><line x1="153" x2="249" y1="111" y2="111" class="net_46,47,48,49,50,51 width_6" style="stroke-width: 2"/><line x1="249" x2="249" y1="111" y2="106" class="net_46,47,48,49,50,51 width_6" style="stroke-width: 2"/><line x1="249" x2="263" y1="106" y2="106" class="net_46,47,48,49,50,51 width_6" style="stroke-width: 2"/><line x1="735" x2="830" y1="62" y2="62" class="net_16,17,18 width_3" style="stroke-width: 2"/><line x1="219" x2="239" y1="261" y2="261" class="net_52,53,54 width_3" style="stroke-width: 2"/><line x1="239" x2="239" y1="261" y2="337" class="net_52,53,54 width_3" style="stroke-width: 2"/><line x1="239" x2="805" y1="337" y2="337" class="net_52,53,54 width_3" style="stroke-width: 2"/><line x1="805" x2="805" y1="337" y2="82" class="net_52,53,54 width_3" style="stroke-width: 2"/><circle cx="239" cy="261" r="3" style="fill:#000" class="net_52,53,54 width_3"/><line x1="805" x2="830" y1="82" y2="82" class="net_52,53,54 width_3" style="stroke-width: 2"/><line x1="219" x2="684.5" y1="261" y2="261" class="net_52,53,54 width_3" style="stroke-width: 2"/><line x1="684.5" x2="684.5" y1="261" y2="72" class="net_52,53,54 width_3" style="stroke-width: 2"/><line x1="684.5" x2="709.5" y1="72" y2="72" class="net_52,53,54 width_3" style="stroke-width: 2"/><line x1="219" x2="239" y1="261" y2="261" class="net_52,53,54 width_3" style="stroke-width: 2"/><line x1="239" x2="239" y1="261" y2="22" class="net_52,53,54 width_3" style="stroke-width: 2"/><line x1="239" x2="326.6666666666667" y1="22" y2="22" class="net_52,53,54 width_3" style="stroke-width: 2"/><line x1="795" x2="843" y1="386.5" y2="386.5" class="net_11 width_1" style="stroke-width: 1"/><line x1="843" x2="843" y1="386.5" y2="90" class="net_11 width_1" style="stroke-width: 1"/><line x1="608.5" x2="709.5" y1="52" y2="52" class="net_19,20,21 width_3" style="stroke-width: 2"/><line x1="671.5" x2="722.5" y1="358" y2="358" class="net_12 width_1" style="stroke-width: 1"/><line x1="722.5" x2="722.5" y1="358" y2="80" class="net_12 width_1" style="stroke-width: 1"/><line x1="484.1666666666667" x2="583" y1="42" y2="42" class="net_22,23,24 width_3" style="stroke-width: 2"/><line x1="488" x2="558" y1="212" y2="212" class="net_58,59,60 width_3" style="stroke-width: 2"/><line x1="558" x2="558" y1="212" y2="62" class="net_58,59,60 width_3" style="stroke-width: 2"/><line x1="558" x2="583" y1="62" y2="62" class="net_58,59,60 width_3" style="stroke-width: 2"/><line x1="548" x2="596" y1="285.5" y2="285.5" class="net_13 width_1" style="stroke-width: 1"/><line x1="596" x2="596" y1="285.5" y2="70" class="net_13 width_1" style="stroke-width: 1"/><line x1="352.1666666666667" x2="458.6666666666667" y1="32" y2="32" class="net_25,26,27 width_3" style="stroke-width: 2"/><line x1="356" x2="432" y1="128.5" y2="128.5" class="net_61,62,63 width_3" style="stroke-width: 2"/><line x1="432" x2="432" y1="128.5" y2="52" class="net_61,62,63 width_3" style="stroke-width: 2"/><line x1="432" x2="458.6666666666667" y1="52" y2="52" class="net_61,62,63 width_3" style="stroke-width: 2"/><line x1="418" x2="471.6666666666667" y1="182" y2="182" class="net_14 width_1" style="stroke-width: 1"/><line x1="471.6666666666667" x2="471.6666666666667" y1="182" y2="60" class="net_14 width_1" style="stroke-width: 1"/><line x1="219" x2="326.6666666666667" y1="42" y2="42" class="net_67,68,69 width_3" style="stroke-width: 2"/><line x1="286" x2="339.6666666666667" y1="98.5" y2="98.5" class="net_15 width_1" style="stroke-width: 1"/><line x1="339.6666666666667" x2="339.6666666666667" y1="98.5" y2="50" class="net_15 width_1" style="stroke-width: 1"/><line x1="855.5" x2="929.5" y1="72" y2="72" class="net_4,5,6 width_3" style="stroke-width: 2"/><line x1="42" x2="141" y1="348" y2="348" class="net_7,8,9,10 width_4" style="stroke-width: 2"/><line x1="42" x2="97" y1="413" y2="413" class="net_2,3 width_2" style="stroke-width: 2"/><line x1="97" x2="97" y1="413" y2="368" class="net_2,3 width_2" style="stroke-width: 2"/><line x1="97" x2="141" y1="368" y2="368" class="net_2,3 width_2" style="stroke-width: 2"/><rect x="202.5" y="86" width="16" height="9" class="net_7,8,9,10,2,3 width_6 busLabel_6" style="fill: white; stroke: none"/><text x="201.5" y="94" class="net_7,8,9,10,2,3 width_6 busLabel_6">/6/</text><rect x="202.5" y="86" width="16" height="9" class="net_7,8,9,10,2,3 width_6 busLabel_6" style="fill: white; stroke: none"/><text x="201.5" y="94" class="net_7,8,9,10,2,3 width_6 busLabel_6">/6/</text><rect x="202.5" y="86" width="16" height="9" class="net_7,8,9,10,2,3 width_6 busLabel_6" style="fill: white; stroke: none"/><text x="201.5" y="94" class="net_7,8,9,10,2,3 width_6 busLabel_6">/6/</text><rect x="202.5" y="86" width="16" height="9" class="net_7,8,9,10,2,3 width_6 busLabel_6" style="fill: white; stroke: none"/><text x="201.5" y="94" class="net_7,8,9,10,2,3 width_6 busLabel_6">/6/</text><rect x="202.5" y="86" width="16" height="9" class="net_7,8,9,10,2,3 width_6 busLabel_6" style="fill: white; stroke: none"/><text x="201.5" y="94" class="net_7,8,9,10,2,3 width_6 busLabel_6">/6/</text><rect x="721.25" y="405" width="16" height="9" class="net_28,29,30,31,32,33 width_6 busLabel_6" style="fill: white; stroke: none"/><text x="720.25" y="413" class="net_28,29,30,31,32,33 width_6 busLabel_6">/6/</text><rect x="471.5" y="304" width="16" height="9" class="net_34,35,36,37,38,39 width_6 busLabel_6" style="fill: white; stroke: none"/><text x="470.5" y="312" class="net_34,35,36,37,38,39 width_6 busLabel_6">/6/</text><rect x="339.5" y="230.5" width="16" height="9" class="net_40,41,42,43,44,45 width_6 busLabel_6" style="fill: white; stroke: none"/><text x="338.5" y="238.5" class="net_40,41,42,43,44,45 width_6 busLabel_6">/6/</text><rect x="202.5" y="106" width="16" height="9" class="net_46,47,48,49,50,51 width_6 busLabel_6" style="fill: white; stroke: none"/><text x="201.5" y="114" class="net_46,47,48,49,50,51 width_6 busLabel_6">/6/</text><rect x="781.5" y="57" width="16" height="9" class="net_16,17,18 width_3 busLabel_3" style="fill: white; stroke: none"/><text x="780.5" y="65" class="net_16,17,18 width_3 busLabel_3">/3/</text><rect x="273.5" y="17" width="16" height="9" class="net_52,53,54 width_3 busLabel_3" style="fill: white; stroke: none"/><text x="272.5" y="25" class="net_52,53,54 width_3 busLabel_3">/3/</text><rect x="273.5" y="17" width="16" height="9" class="net_52,53,54 width_3 busLabel_3" style="fill: white; stroke: none"/><text x="272.5" y="25" class="net_52,53,54 width_3 busLabel_3">/3/</text><rect x="273.5" y="17" width="16" height="9" class="net_52,53,54 width_3 busLabel_3" style="fill: white; stroke: none"/><text x="272.5" y="25" class="net_52,53,54 width_3 busLabel_3">/3/</text><rect x="658" y="47" width="16" height="9" class="net_19,20,21 width_3 busLabel_3" style="fill: white; stroke: none"/><text x="657" y="55" class="net_19,20,21 width_3 busLabel_3">/3/</text><rect x="534.5" y="37" width="16" height="9" class="net_22,23,24 width_3 busLabel_3" style="fill: white; stroke: none"/><text x="533.5" y="45" class="net_22,23,24 width_3 busLabel_3">/3/</text><rect x="534.5" y="207" width="16" height="9" class="net_58,59,60 width_3 busLabel_3" style="fill: white; stroke: none"/><text x="533.5" y="215" class="net_58,59,60 width_3 busLabel_3">/3/</text><rect x="405.5" y="27" width="16" height="9" class="net_25,26,27 width_3 busLabel_3" style="fill: white; stroke: none"/><text x="404.5" y="35" class="net_25,26,27 width_3 busLabel_3">/3/</text><rect x="405.5" y="123.5" width="16" height="9" class="net_61,62,63 width_3 busLabel_3" style="fill: white; stroke: none"/><text x="404.5" y="131.5" class="net_61,62,63 width_3 busLabel_3">/3/</text><rect x="273.5" y="37" width="16" height="9" class="net_67,68,69 width_3 busLabel_3" style="fill: white; stroke: none"/><text x="272.5" y="45" class="net_67,68,69 width_3 busLabel_3">/3/</text><rect x="891.5" y="67" width="16" height="9" class="net_4,5,6 width_3 busLabel_3" style="fill: white; stroke: none"/><text x="890.5" y="75" class="net_4,5,6 width_3 busLabel_3">/3/</text><rect x="84" y="343" width="16" height="9" class="net_7,8,9,10 width_4 busLabel_4" style="fill: white; stroke: none"/><text x="83" y="351" class="net_7,8,9,10 width_4 busLabel_4">/4/</text><rect x="84" y="408" width="16" height="9" class="net_2,3 width_2 busLabel_2" style="fill: white; stroke: none"/><text x="83" y="416" class="net_2,3 width_2 busLabel_2">/2/</text></svg>