<svg xmlns="http://www.w3.org/2000/svg" xmlns:xlink="http://www.w3.org/1999/xlink" xmlns:s="https://github.com/nturley/netlistsvg" width="1402.5" height="504"><style>svg {
  stroke:#000;
  fill:none;
}
text {
  fill:#000;
  stroke:none;
  font-size:10px;
  font-weight: bold;
  font-family: "Courier New", monospace;
}
line {
    stroke-linecap: round;
}
.nodelabel {
  text-anchor: middle;
}
.inputPortLabel {
  text-anchor: end;
}
.splitjoinBody {
  fill:#000;
}</style><g s:type="add" transform="translate(426,322.5)" s:width="25" s:height="25" id="cell_$add$ALU.v:37$6"><s:alias val="$add"/><circle r="12.5" cx="12.5" cy="12.5" fill="#ffc9c3" class="cell_$add$ALU.v:37$6"/><line x1="7.5" x2="17.5" y1="12.5" y2="12.5" class="cell_$add$ALU.v:37$6"/><line x1="12.5" x2="12.5" y1="7.5" y2="17.5" class="cell_$add$ALU.v:37$6"/><g s:x="2" s:y="5" s:pid="A"/><g s:x="2" s:y="20" s:pid="B"/><g s:x="26" s:y="12.5" s:pid="Y"/></g><g s:type="add" transform="translate(554.6666666666666,330)" s:width="25" s:height="25" id="cell_$add$ALU.v:37$7"><s:alias val="$add"/><circle r="12.5" cx="12.5" cy="12.5" fill="#ffc9c3" class="cell_$add$ALU.v:37$7"/><line x1="7.5" x2="17.5" y1="12.5" y2="12.5" class="cell_$add$ALU.v:37$7"/><line x1="12.5" x2="12.5" y1="7.5" y2="17.5" class="cell_$add$ALU.v:37$7"/><g s:x="2" s:y="5" s:pid="A"/><g s:x="2" s:y="20" s:pid="B"/><g s:x="26" s:y="12.5" s:pid="Y"/></g><g s:type="and" transform="translate(553,148)" s:width="30" s:height="25" id="cell_$and$ALU.v:26$1"><s:alias val="$and"/><s:alias val="$logic_and"/><s:alias val="$_AND_"/><path d="M0,0 L0,25 L15,25 A15 12.5 0 0 0 15,0 Z" fill="#eebaff" class="cell_$and$ALU.v:26$1"/><g s:x="0" s:y="5" s:pid="A"/><g s:x="0" s:y="20" s:pid="B"/><g s:x="30" s:y="12.5" s:pid="Y"/></g><g s:type="and" transform="translate(1203.1666666666667,414.5)" s:width="30" s:height="25" id="cell_$and$ALU.v:53$17"><s:alias val="$and"/><s:alias val="$logic_and"/><s:alias val="$_AND_"/><path d="M0,0 L0,25 L15,25 A15 12.5 0 0 0 15,0 Z" fill="#eebaff" class="cell_$and$ALU.v:53$17"/><g s:x="0" s:y="5" s:pid="A"/><g s:x="0" s:y="20" s:pid="B"/><g s:x="30" s:y="12.5" s:pid="Y"/></g><g s:type="not" transform="translate(1343.5,472)" s:width="30" s:height="20" id="cell_$eq$ALU.v:33$3"><s:alias val="$_NOT_"/><s:alias val="$not"/><s:alias val="$logic_not"/><path d="M0,0 L0,20 L20,10 Z" fill="#eebaff" class="cell_$eq$ALU.v:33$3"/><circle cx="24" cy="10" r="3" fill="#eebaff" class="cell_$eq$ALU.v:33$3"/><g s:x="-1" s:y="10" s:pid="A"/><g s:x="27" s:y="10" s:pid="Y"/></g><g s:type="not" transform="translate(866,389.5)" s:width="30" s:height="20" id="cell_$eq$ALU.v:40$8"><s:alias val="$_NOT_"/><s:alias val="$not"/><s:alias val="$logic_not"/><path d="M0,0 L0,20 L20,10 Z" fill="#eebaff" class="cell_$eq$ALU.v:40$8"/><circle cx="24" cy="10" r="3" fill="#eebaff" class="cell_$eq$ALU.v:40$8"/><g s:x="-1" s:y="10" s:pid="A"/><g s:x="27" s:y="10" s:pid="Y"/></g><g s:type="eq" transform="translate(744.5,182)" s:width="25" s:height="25" id="cell_$eq$ALU.v:41$9"><s:alias val="$eq"/><circle r="12.5" cx="12.5" cy="12.5" fill="#ffc9c3" class="cell_$eq$ALU.v:41$9"/><line x1="7.5" x2="17.5" y1="10" y2="10" class="cell_$eq$ALU.v:41$9"/><line x1="7.5" x2="17.5" y1="15" y2="15" class="cell_$eq$ALU.v:41$9"/><g s:x="2" s:y="5" s:pid="A"/><g s:x="2" s:y="20" s:pid="B"/><g s:x="25" s:y="12.5" s:pid="Y"/></g><g s:type="eq" transform="translate(620,199)" s:width="25" s:height="25" id="cell_$eq$ALU.v:42$10"><s:alias val="$eq"/><circle r="12.5" cx="12.5" cy="12.5" fill="#ffc9c3" class="cell_$eq$ALU.v:42$10"/><line x1="7.5" x2="17.5" y1="10" y2="10" class="cell_$eq$ALU.v:42$10"/><line x1="7.5" x2="17.5" y1="15" y2="15" class="cell_$eq$ALU.v:42$10"/><g s:x="2" s:y="5" s:pid="A"/><g s:x="2" s:y="20" s:pid="B"/><g s:x="25" s:y="12.5" s:pid="Y"/></g><g s:type="not" transform="translate(173,88)" s:width="30" s:height="20" id="cell_$not$ALU.v:36$5"><s:alias val="$_NOT_"/><s:alias val="$not"/><s:alias val="$logic_not"/><path d="M0,0 L0,20 L20,10 Z" fill="#eebaff" class="cell_$not$ALU.v:36$5"/><circle cx="24" cy="10" r="3" fill="#eebaff" class="cell_$not$ALU.v:36$5"/><g s:x="-1" s:y="10" s:pid="A"/><g s:x="27" s:y="10" s:pid="Y"/></g><g s:type="not" transform="translate(1031.5,250.5)" s:width="30" s:height="20" id="cell_$not$ALU.v:51$14"><s:alias val="$_NOT_"/><s:alias val="$not"/><s:alias val="$logic_not"/><path d="M0,0 L0,20 L20,10 Z" fill="#eebaff" class="cell_$not$ALU.v:51$14"/><circle cx="24" cy="10" r="3" fill="#eebaff" class="cell_$not$ALU.v:51$14"/><g s:x="-1" s:y="10" s:pid="A"/><g s:x="27" s:y="10" s:pid="Y"/></g><g s:type="not" transform="translate(1097.5,430.5)" s:width="30" s:height="20" id="cell_$not$ALU.v:53$16"><s:alias val="$_NOT_"/><s:alias val="$not"/><s:alias val="$logic_not"/><path d="M0,0 L0,20 L20,10 Z" fill="#eebaff" class="cell_$not$ALU.v:53$16"/><circle cx="24" cy="10" r="3" fill="#eebaff" class="cell_$not$ALU.v:53$16"/><g s:x="-1" s:y="10" s:pid="A"/><g s:x="27" s:y="10" s:pid="Y"/></g><g s:type="or" transform="translate(553,88)" s:width="30" s:height="25" id="cell_$or$ALU.v:29$2"><s:alias val="$or"/><s:alias val="$logic_or"/><s:alias val="$_OR_"/><path d="M0,25 L0,25 L15,25 A15 12.5 0 0 0 15,0 L0,0 A30 25 0 0 1 0,25 Z" fill="#eebaff" class="cell_$or$ALU.v:29$2"/><g s:x="2" s:y="5" s:pid="A"/><g s:x="2" s:y="20" s:pid="B"/><g s:x="30" s:y="12.5" s:pid="Y"/></g><g s:type="generic" transform="translate(1169.5,250)" s:width="30" s:height="40" id="cell_$reduce_and$ALU.v:51$15"><text x="15" y="-4" class="nodelabel cell_$reduce_and$ALU.v:51$15" s:attribute="ref">$reduce_and</text><rect width="30" height="20" s:generic="body" fill="#ffae46" rx="0" class="cell_$reduce_and$ALU.v:51$15"/><g transform="translate(0,10)" s:x="0" s:y="10" s:pid="in0" id="port_$reduce_and$ALU.v:51$15~A"><text x="-3" y="-4" class="inputPortLabel cell_$reduce_and$ALU.v:51$15">A</text></g><g transform="translate(30,10)" s:x="30" s:y="10" s:pid="out0" id="port_$reduce_and$ALU.v:51$15~Y"><text x="5" y="-4" style="fill:#000; stroke:none" class="cell_$reduce_and$ALU.v:51$15">Y</text></g></g><g s:type="mux-bus" transform="translate(324.3333333333333,327.5)" s:width="24" s:height="40" id="cell_$ternary$ALU.v:33$4"><s:alias val="$pmux-bus"/><s:alias val="$mux-bus"/><s:alias val="$_MUX_-bus"/><path d="M8,2 L8,0 L24,8 L24,32 L8,40 L8,38" fill="#ffffff" class="cell_$ternary$ALU.v:33$4"/><path d="M4,2 L4,0 L22,9 L22,31 L4,40 L4,38" fill="#ffffff" class="cell_$ternary$ALU.v:33$4"/><path d="M0,0 L20,10 L20,30 L0,40 Z" fill="#ffffff" class="cell_$ternary$ALU.v:33$4"/><text x="5" y="32" class="nodelabel cell_$ternary$ALU.v:33$4" s:attribute="">1</text><text x="5" y="13" class="nodelabel cell_$ternary$ALU.v:33$4" s:attribute="">0</text><g s:x="-1" s:y="10" s:pid="A"/><g s:x="-1" s:y="30" s:pid="B"/><g s:x="12" s:y="38" s:pid="S"/><g s:x="24.5" s:y="20" s:pid="Y"/></g><g s:type="mux-bus" transform="translate(932,110.5)" s:width="24" s:height="40" id="cell_$ternary$ALU.v:40$13"><s:alias val="$pmux-bus"/><s:alias val="$mux-bus"/><s:alias val="$_MUX_-bus"/><path d="M8,2 L8,0 L24,8 L24,32 L8,40 L8,38" fill="#ffffff" class="cell_$ternary$ALU.v:40$13"/><path d="M4,2 L4,0 L22,9 L22,31 L4,40 L4,38" fill="#ffffff" class="cell_$ternary$ALU.v:40$13"/><path d="M0,0 L20,10 L20,30 L0,40 Z" fill="#ffffff" class="cell_$ternary$ALU.v:40$13"/><text x="5" y="32" class="nodelabel cell_$ternary$ALU.v:40$13" s:attribute="">1</text><text x="5" y="13" class="nodelabel cell_$ternary$ALU.v:40$13" s:attribute="">0</text><g s:x="-1" s:y="10" s:pid="A"/><g s:x="-1" s:y="30" s:pid="B"/><g s:x="12" s:y="38" s:pid="S"/><g s:x="24.5" s:y="20" s:pid="Y"/></g><g s:type="mux-bus" transform="translate(805.5,100.5)" s:width="24" s:height="40" id="cell_$ternary$ALU.v:41$12"><s:alias val="$pmux-bus"/><s:alias val="$mux-bus"/><s:alias val="$_MUX_-bus"/><path d="M8,2 L8,0 L24,8 L24,32 L8,40 L8,38" fill="#ffffff" class="cell_$ternary$ALU.v:41$12"/><path d="M4,2 L4,0 L22,9 L22,31 L4,40 L4,38" fill="#ffffff" class="cell_$ternary$ALU.v:41$12"/><path d="M0,0 L20,10 L20,30 L0,40 Z" fill="#ffffff" class="cell_$ternary$ALU.v:41$12"/><text x="5" y="32" class="nodelabel cell_$ternary$ALU.v:41$12" s:attribute="">1</text><text x="5" y="13" class="nodelabel cell_$ternary$ALU.v:41$12" s:attribute="">0</text><g s:x="-1" s:y="10" s:pid="A"/><g s:x="-1" s:y="30" s:pid="B"/><g s:x="12" s:y="38" s:pid="S"/><g s:x="24.5" s:y="20" s:pid="Y"/></g><g s:type="mux-bus" transform="translate(685,90.5)" s:width="24" s:height="40" id="cell_$ternary$ALU.v:42$11"><s:alias val="$pmux-bus"/><s:alias val="$mux-bus"/><s:alias val="$_MUX_-bus"/><path d="M8,2 L8,0 L24,8 L24,32 L8,40 L8,38" fill="#ffffff" class="cell_$ternary$ALU.v:42$11"/><path d="M4,2 L4,0 L22,9 L22,31 L4,40 L4,38" fill="#ffffff" class="cell_$ternary$ALU.v:42$11"/><path d="M0,0 L20,10 L20,30 L0,40 Z" fill="#ffffff" class="cell_$ternary$ALU.v:42$11"/><text x="5" y="32" class="nodelabel cell_$ternary$ALU.v:42$11" s:attribute="">1</text><text x="5" y="13" class="nodelabel cell_$ternary$ALU.v:42$11" s:attribute="">0</text><g s:x="-1" s:y="10" s:pid="A"/><g s:x="-1" s:y="30" s:pid="B"/><g s:x="12" s:y="38" s:pid="S"/><g s:x="24.5" s:y="20" s:pid="Y"/></g><g s:type="inputExt" transform="translate(322,83)" s:width="30" s:height="20" id="cell_A"><text x="15" y="-4" class="nodelabel cell_A" s:attribute="ref">A</text><s:alias val="$_inputExt_"/><path d="M0,0 L0,20 L15,20 L30,10 L15,0 Z" fill="#8bcaff" class="cell_A"/><g s:x="30" s:y="10" s:pid="Y"/></g><g s:type="inputExt" transform="translate(12,22)" s:width="30" s:height="20" id="cell_B"><text x="15" y="-4" class="nodelabel cell_B" s:attribute="ref">B</text><s:alias val="$_inputExt_"/><path d="M0,0 L0,20 L15,20 L30,10 L15,0 Z" fill="#8bcaff" class="cell_B"/><g s:x="30" s:y="10" s:pid="Y"/></g><g s:type="inputExt" transform="translate(77,177)" s:width="30" s:height="20" id="cell_ALUControl"><text x="15" y="-4" class="nodelabel cell_ALUControl" s:attribute="ref">ALUControl</text><s:alias val="$_inputExt_"/><path d="M0,0 L0,20 L15,20 L30,10 L15,0 Z" fill="#8bcaff" class="cell_ALUControl"/><g s:x="30" s:y="10" s:pid="Y"/></g><g s:type="outputExt" transform="translate(1343.5,185.5)" s:width="30" s:height="20" id="cell_Result"><text x="15" y="-4" class="nodelabel cell_Result" s:attribute="ref">Result</text><s:alias val="$_outputExt_"/><path d="M30,0 L30,20 L15,20 L0,10 L15,0 Z" fill="#169300" class="cell_Result"/><g s:x="0" s:y="10" s:pid="A"/></g><g s:type="outputExt" transform="translate(1342.5,120.5)" s:width="30" s:height="20" id="cell_Negative"><text x="15" y="-4" class="nodelabel cell_Negative" s:attribute="ref">Negative</text><s:alias val="$_outputExt_"/><path d="M30,0 L30,20 L15,20 L0,10 L15,0 Z" fill="#169300" class="cell_Negative"/><g s:x="0" s:y="10" s:pid="A"/></g><g s:type="outputExt" transform="translate(1343.5,417)" s:width="30" s:height="20" id="cell_Carry"><text x="15" y="-4" class="nodelabel cell_Carry" s:attribute="ref">Carry</text><s:alias val="$_outputExt_"/><path d="M30,0 L30,20 L15,20 L0,10 L15,0 Z" fill="#169300" class="cell_Carry"/><g s:x="0" s:y="10" s:pid="A"/></g><g s:type="outputExt" transform="translate(1343.5,250.5)" s:width="30" s:height="20" id="cell_Zero"><text x="15" y="-4" class="nodelabel cell_Zero" s:attribute="ref">Zero</text><s:alias val="$_outputExt_"/><path d="M30,0 L30,20 L15,20 L0,10 L15,0 Z" fill="#169300" class="cell_Zero"/><g s:x="0" s:y="10" s:pid="A"/></g><g s:type="constant" transform="translate(618,269)" s:width="30" s:height="20" id="cell_01"><text x="15" y="-4" class="nodelabel cell_01" s:attribute="ref">01</text><s:alias val="$_constant_"/><rect width="30" height="20" fill="#745bff" class="cell_01"/><g s:x="31" s:y="10" s:pid="Y"/></g><g s:type="constant" transform="translate(487,225)" s:width="30" s:height="20" id="cell_10"><text x="15" y="-4" class="nodelabel cell_10" s:attribute="ref">10</text><s:alias val="$_constant_"/><rect width="30" height="20" fill="#745bff" class="cell_10"/><g s:x="31" s:y="10" s:pid="Y"/></g><g s:type="split" transform="translate(239,156.5)" s:width="5" s:height="40" id="cell_$split$,34,35,36,"><rect width="5" height="60" class="splitjoinBody" s:generic="body"/><s:alias val="$_split_"/><g s:x="-1" s:y="20" s:pid="in"/><g transform="translate(5,10)" s:x="5" s:y="10" s:pid="out0"><text x="5" y="-4">0</text></g><g transform="translate(5,30)" s:x="5" s:y="10" s:pid="out0"><text x="5" y="-4">0:1</text></g><g transform="translate(5,50)" s:x="5" s:y="10" s:pid="out0"><text x="5" y="-4">1</text></g></g><g s:type="split" transform="translate(690.5,322)" s:width="5" s:height="40" id="cell_$split$,88,89,90,91,92,93,94,95,96,97,98,99,100,101,102,103,104,"><rect width="5" height="40" class="splitjoinBody" s:generic="body"/><s:alias val="$_split_"/><g s:x="-1" s:y="20" s:pid="in"/><g transform="translate(5,10)" s:x="5" s:y="10" s:pid="out0"><text x="5" y="-4">16</text></g><g transform="translate(5,30)" s:x="5" s:y="10" s:pid="out0"><text x="5" y="-4">0:15</text></g></g><g s:type="split" transform="translate(1232.5,120)" s:width="5" s:height="40" id="cell_$split$,37,38,39,40,41,42,43,44,45,46,47,48,49,50,51,52,"><rect width="5" height="20" class="splitjoinBody" s:generic="body"/><s:alias val="$_split_"/><g s:x="-1" s:y="20" s:pid="in"/><g transform="translate(5,10)" s:x="5" s:y="10" s:pid="out0"><text x="5" y="-4">15</text></g></g><line x1="352" x2="362" y1="93" y2="93" class="net_2,3,4,5,6,7,8,9,10,11,12,13,14,15,16,17 width_16" style="stroke-width: 2"/><line x1="362" x2="362" y1="93" y2="327.5" class="net_2,3,4,5,6,7,8,9,10,11,12,13,14,15,16,17 width_16" style="stroke-width: 2"/><circle cx="362" cy="93" r="3" style="fill:#000" class="net_2,3,4,5,6,7,8,9,10,11,12,13,14,15,16,17 width_16"/><line x1="362" x2="428" y1="327.5" y2="327.5" class="net_2,3,4,5,6,7,8,9,10,11,12,13,14,15,16,17 width_16" style="stroke-width: 2"/><line x1="352" x2="362" y1="93" y2="93" class="net_2,3,4,5,6,7,8,9,10,11,12,13,14,15,16,17 width_16" style="stroke-width: 2"/><line x1="362" x2="362" y1="93" y2="153" class="net_2,3,4,5,6,7,8,9,10,11,12,13,14,15,16,17 width_16" style="stroke-width: 2"/><circle cx="362" cy="153" r="3" style="fill:#000" class="net_2,3,4,5,6,7,8,9,10,11,12,13,14,15,16,17 width_16"/><line x1="362" x2="553" y1="153" y2="153" class="net_2,3,4,5,6,7,8,9,10,11,12,13,14,15,16,17 width_16" style="stroke-width: 2"/><line x1="352" x2="555" y1="93" y2="93" class="net_2,3,4,5,6,7,8,9,10,11,12,13,14,15,16,17 width_16" style="stroke-width: 2"/><line x1="348.8333333333333" x2="401" y1="347.5" y2="347.5" class="net_55,56,57,58,59,60,61,62,63,64,65,66,67,68,69,70 width_16" style="stroke-width: 2"/><line x1="401" x2="401" y1="347.5" y2="342.5" class="net_55,56,57,58,59,60,61,62,63,64,65,66,67,68,69,70 width_16" style="stroke-width: 2"/><line x1="401" x2="428" y1="342.5" y2="342.5" class="net_55,56,57,58,59,60,61,62,63,64,65,66,67,68,69,70 width_16" style="stroke-width: 2"/><line x1="452" x2="556.6666666666666" y1="335" y2="335" class="net_71,72,73,74,75,76,77,78,79,80,81,82,83,84,85,86,87 width_17" style="stroke-width: 2"/><line x1="245" x2="282" y1="167" y2="167" class="net_34 width_1" style="stroke-width: 1"/><line x1="282" x2="282" y1="167" y2="387.5" class="net_34 width_1" style="stroke-width: 1"/><line x1="282" x2="528" y1="387.5" y2="387.5" class="net_34 width_1" style="stroke-width: 1"/><line x1="528" x2="528" y1="387.5" y2="350" class="net_34 width_1" style="stroke-width: 1"/><circle cx="282" cy="387.5" r="2" style="fill:#000" class="net_34 width_1"/><line x1="528" x2="556.6666666666666" y1="350" y2="350" class="net_34 width_1" style="stroke-width: 1"/><line x1="245" x2="282" y1="167" y2="167" class="net_34 width_1" style="stroke-width: 1"/><line x1="282" x2="282" y1="167" y2="482" class="net_34 width_1" style="stroke-width: 1"/><line x1="282" x2="1342.5" y1="482" y2="482" class="net_34 width_1" style="stroke-width: 1"/><line x1="245" x2="282" y1="167" y2="167" class="net_34 width_1" style="stroke-width: 1"/><line x1="282" x2="282" y1="167" y2="377.5" class="net_34 width_1" style="stroke-width: 1"/><line x1="282" x2="336.3333333333333" y1="377.5" y2="377.5" class="net_34 width_1" style="stroke-width: 1"/><circle cx="282" cy="377.5" r="2" style="fill:#000" class="net_34 width_1"/><line x1="336.3333333333333" x2="336.3333333333333" y1="377.5" y2="365.5" class="net_34 width_1" style="stroke-width: 1"/><line x1="42" x2="312" y1="32" y2="32" class="net_18,19,20,21,22,23,24,25,26,27,28,29,30,31,32,33 width_16" style="stroke-width: 2"/><line x1="312" x2="312" y1="32" y2="170" class="net_18,19,20,21,22,23,24,25,26,27,28,29,30,31,32,33 width_16" style="stroke-width: 2"/><line x1="312" x2="528" y1="170" y2="170" class="net_18,19,20,21,22,23,24,25,26,27,28,29,30,31,32,33 width_16" style="stroke-width: 2"/><line x1="528" x2="528" y1="170" y2="168" class="net_18,19,20,21,22,23,24,25,26,27,28,29,30,31,32,33 width_16" style="stroke-width: 2"/><circle cx="312" cy="32" r="3" style="fill:#000" class="net_18,19,20,21,22,23,24,25,26,27,28,29,30,31,32,33 width_16"/><line x1="528" x2="553" y1="168" y2="168" class="net_18,19,20,21,22,23,24,25,26,27,28,29,30,31,32,33 width_16" style="stroke-width: 2"/><line x1="42" x2="52" y1="32" y2="32" class="net_18,19,20,21,22,23,24,25,26,27,28,29,30,31,32,33 width_16" style="stroke-width: 2"/><line x1="52" x2="52" y1="32" y2="98" class="net_18,19,20,21,22,23,24,25,26,27,28,29,30,31,32,33 width_16" style="stroke-width: 2"/><circle cx="52" cy="32" r="3" style="fill:#000" class="net_18,19,20,21,22,23,24,25,26,27,28,29,30,31,32,33 width_16"/><line x1="52" x2="172" y1="98" y2="98" class="net_18,19,20,21,22,23,24,25,26,27,28,29,30,31,32,33 width_16" style="stroke-width: 2"/><line x1="42" x2="372" y1="32" y2="32" class="net_18,19,20,21,22,23,24,25,26,27,28,29,30,31,32,33 width_16" style="stroke-width: 2"/><line x1="372" x2="372" y1="32" y2="110" class="net_18,19,20,21,22,23,24,25,26,27,28,29,30,31,32,33 width_16" style="stroke-width: 2"/><line x1="372" x2="528" y1="110" y2="110" class="net_18,19,20,21,22,23,24,25,26,27,28,29,30,31,32,33 width_16" style="stroke-width: 2"/><line x1="528" x2="528" y1="110" y2="108" class="net_18,19,20,21,22,23,24,25,26,27,28,29,30,31,32,33 width_16" style="stroke-width: 2"/><line x1="528" x2="555" y1="108" y2="108" class="net_18,19,20,21,22,23,24,25,26,27,28,29,30,31,32,33 width_16" style="stroke-width: 2"/><line x1="42" x2="147" y1="32" y2="32" class="net_18,19,20,21,22,23,24,25,26,27,28,29,30,31,32,33 width_16" style="stroke-width: 2"/><line x1="147" x2="147" y1="32" y2="47" class="net_18,19,20,21,22,23,24,25,26,27,28,29,30,31,32,33 width_16" style="stroke-width: 2"/><line x1="147" x2="302" y1="47" y2="47" class="net_18,19,20,21,22,23,24,25,26,27,28,29,30,31,32,33 width_16" style="stroke-width: 2"/><line x1="302" x2="302" y1="47" y2="337.5" class="net_18,19,20,21,22,23,24,25,26,27,28,29,30,31,32,33 width_16" style="stroke-width: 2"/><circle cx="147" cy="32" r="3" style="fill:#000" class="net_18,19,20,21,22,23,24,25,26,27,28,29,30,31,32,33 width_16"/><line x1="302" x2="323.3333333333333" y1="337.5" y2="337.5" class="net_18,19,20,21,22,23,24,25,26,27,28,29,30,31,32,33 width_16" style="stroke-width: 2"/><line x1="696.5" x2="719.5" y1="332.5" y2="332.5" class="net_104 width_1" style="stroke-width: 1"/><line x1="719.5" x2="719.5" y1="332.5" y2="419.5" class="net_104 width_1" style="stroke-width: 1"/><line x1="719.5" x2="1203.1666666666667" y1="419.5" y2="419.5" class="net_104 width_1" style="stroke-width: 1"/><line x1="1124.5" x2="1137.5" y1="440.5" y2="440.5" class="net_121 width_1" style="stroke-width: 1"/><line x1="1137.5" x2="1137.5" y1="440.5" y2="434.5" class="net_121 width_1" style="stroke-width: 1"/><line x1="1137.5" x2="1203.1666666666667" y1="434.5" y2="434.5" class="net_121 width_1" style="stroke-width: 1"/><line x1="245" x2="272" y1="187" y2="187" class="net_34,35 width_2" style="stroke-width: 2"/><line x1="272" x2="272" y1="187" y2="399.5" class="net_34,35 width_2" style="stroke-width: 2"/><circle cx="272" cy="187" r="3" style="fill:#000" class="net_34,35 width_2"/><line x1="272" x2="865" y1="399.5" y2="399.5" class="net_34,35 width_2" style="stroke-width: 2"/><line x1="245" x2="746.5" y1="187" y2="187" class="net_34,35 width_2" style="stroke-width: 2"/><line x1="245" x2="401" y1="187" y2="187" class="net_34,35 width_2" style="stroke-width: 2"/><line x1="401" x2="401" y1="187" y2="204" class="net_34,35 width_2" style="stroke-width: 2"/><circle cx="401" cy="187" r="3" style="fill:#000" class="net_34,35 width_2"/><line x1="401" x2="622" y1="204" y2="204" class="net_34,35 width_2" style="stroke-width: 2"/><line x1="649" x2="719.5" y1="279" y2="279" class="net_206,207 width_2" style="stroke-width: 2"/><line x1="719.5" x2="719.5" y1="279" y2="202" class="net_206,207 width_2" style="stroke-width: 2"/><line x1="719.5" x2="746.5" y1="202" y2="202" class="net_206,207 width_2" style="stroke-width: 2"/><line x1="518" x2="593" y1="235" y2="235" class="net_208,209 width_2" style="stroke-width: 2"/><line x1="593" x2="593" y1="235" y2="219" class="net_208,209 width_2" style="stroke-width: 2"/><line x1="593" x2="622" y1="219" y2="219" class="net_208,209 width_2" style="stroke-width: 2"/><line x1="956.5" x2="966.5" y1="130.5" y2="130.5" class="net_37,38,39,40,41,42,43,44,45,46,47,48,49,50,51,52 width_16" style="stroke-width: 2"/><line x1="966.5" x2="966.5" y1="130.5" y2="260.5" class="net_37,38,39,40,41,42,43,44,45,46,47,48,49,50,51,52 width_16" style="stroke-width: 2"/><circle cx="966.5" cy="130.5" r="3" style="fill:#000" class="net_37,38,39,40,41,42,43,44,45,46,47,48,49,50,51,52 width_16"/><line x1="966.5" x2="1030.5" y1="260.5" y2="260.5" class="net_37,38,39,40,41,42,43,44,45,46,47,48,49,50,51,52 width_16" style="stroke-width: 2"/><line x1="956.5" x2="1005.5" y1="130.5" y2="130.5" class="net_37,38,39,40,41,42,43,44,45,46,47,48,49,50,51,52 width_16" style="stroke-width: 2"/><line x1="1005.5" x2="1005.5" y1="130.5" y2="195.5" class="net_37,38,39,40,41,42,43,44,45,46,47,48,49,50,51,52 width_16" style="stroke-width: 2"/><circle cx="1005.5" cy="130.5" r="3" style="fill:#000" class="net_37,38,39,40,41,42,43,44,45,46,47,48,49,50,51,52 width_16"/><line x1="1005.5" x2="1343.5" y1="195.5" y2="195.5" class="net_37,38,39,40,41,42,43,44,45,46,47,48,49,50,51,52 width_16" style="stroke-width: 2"/><line x1="956.5" x2="1231.5" y1="130.5" y2="130.5" class="net_37,38,39,40,41,42,43,44,45,46,47,48,49,50,51,52 width_16" style="stroke-width: 2"/><line x1="245" x2="262" y1="207" y2="207" class="net_35 width_1" style="stroke-width: 1"/><line x1="262" x2="262" y1="207" y2="440.5" class="net_35 width_1" style="stroke-width: 1"/><line x1="262" x2="1096.5" y1="440.5" y2="440.5" class="net_35 width_1" style="stroke-width: 1"/><line x1="1058.5" x2="1169.5" y1="260.5" y2="260.5" class="net_142,143,144,145,146,147,148,149,150,151,152,153,154,155,156,157 width_16" style="stroke-width: 2"/><line x1="200" x2="292" y1="98" y2="98" class="net_126,127,128,129,130,131,132,133,134,135,136,137,138,139,140,141 width_16" style="stroke-width: 2"/><line x1="292" x2="292" y1="98" y2="357.5" class="net_126,127,128,129,130,131,132,133,134,135,136,137,138,139,140,141 width_16" style="stroke-width: 2"/><line x1="292" x2="323.3333333333333" y1="357.5" y2="357.5" class="net_126,127,128,129,130,131,132,133,134,135,136,137,138,139,140,141 width_16" style="stroke-width: 2"/><line x1="830" x2="931" y1="120.5" y2="120.5" class="net_174,175,176,177,178,179,180,181,182,183,184,185,186,187,188,189 width_16" style="stroke-width: 2"/><line x1="696.5" x2="729.5" y1="352.5" y2="352.5" class="net_88,89,90,91,92,93,94,95,96,97,98,99,100,101,102,103 width_16" style="stroke-width: 2"/><line x1="729.5" x2="729.5" y1="352.5" y2="369.5" class="net_88,89,90,91,92,93,94,95,96,97,98,99,100,101,102,103 width_16" style="stroke-width: 2"/><line x1="729.5" x2="906" y1="369.5" y2="369.5" class="net_88,89,90,91,92,93,94,95,96,97,98,99,100,101,102,103 width_16" style="stroke-width: 2"/><line x1="906" x2="906" y1="369.5" y2="140.5" class="net_88,89,90,91,92,93,94,95,96,97,98,99,100,101,102,103 width_16" style="stroke-width: 2"/><circle cx="729.5" cy="352.5" r="3" style="fill:#000" class="net_88,89,90,91,92,93,94,95,96,97,98,99,100,101,102,103 width_16"/><line x1="906" x2="931" y1="140.5" y2="140.5" class="net_88,89,90,91,92,93,94,95,96,97,98,99,100,101,102,103 width_16" style="stroke-width: 2"/><line x1="696.5" x2="779.5" y1="352.5" y2="352.5" class="net_88,89,90,91,92,93,94,95,96,97,98,99,100,101,102,103 width_16" style="stroke-width: 2"/><line x1="779.5" x2="779.5" y1="352.5" y2="130.5" class="net_88,89,90,91,92,93,94,95,96,97,98,99,100,101,102,103 width_16" style="stroke-width: 2"/><line x1="779.5" x2="804.5" y1="130.5" y2="130.5" class="net_88,89,90,91,92,93,94,95,96,97,98,99,100,101,102,103 width_16" style="stroke-width: 2"/><line x1="893" x2="944" y1="399.5" y2="399.5" class="net_123 width_1" style="stroke-width: 1"/><line x1="944" x2="944" y1="399.5" y2="148.5" class="net_123 width_1" style="stroke-width: 1"/><line x1="709.5" x2="804.5" y1="110.5" y2="110.5" class="net_190,191,192,193,194,195,196,197,198,199,200,201,202,203,204,205 width_16" style="stroke-width: 2"/><line x1="769.5" x2="817.5" y1="194.5" y2="194.5" class="net_124 width_1" style="stroke-width: 1"/><line x1="817.5" x2="817.5" y1="194.5" y2="138.5" class="net_124 width_1" style="stroke-width: 1"/><line x1="583" x2="684" y1="100.5" y2="100.5" class="net_158,159,160,161,162,163,164,165,166,167,168,169,170,171,172,173 width_16" style="stroke-width: 2"/><line x1="583" x2="659" y1="160.5" y2="160.5" class="net_105,106,107,108,109,110,111,112,113,114,115,116,117,118,119,120 width_16" style="stroke-width: 2"/><line x1="659" x2="659" y1="160.5" y2="120.5" class="net_105,106,107,108,109,110,111,112,113,114,115,116,117,118,119,120 width_16" style="stroke-width: 2"/><line x1="659" x2="684" y1="120.5" y2="120.5" class="net_105,106,107,108,109,110,111,112,113,114,115,116,117,118,119,120 width_16" style="stroke-width: 2"/><line x1="645" x2="697" y1="211.5" y2="211.5" class="net_125 width_1" style="stroke-width: 1"/><line x1="697" x2="697" y1="211.5" y2="128.5" class="net_125 width_1" style="stroke-width: 1"/><line x1="1238.5" x2="1342.5" y1="130.5" y2="130.5" class="net_52 width_1" style="stroke-width: 1"/><line x1="1233.1666666666667" x2="1343.5" y1="427" y2="427" class="net_53 width_1" style="stroke-width: 1"/><line x1="1200.5" x2="1343.5" y1="260.5" y2="260.5" class="net_54 width_1" style="stroke-width: 1"/><line x1="107" x2="238" y1="187" y2="187" class="net_34,35,36 width_3" style="stroke-width: 2"/><line x1="580.6666666666666" x2="689.5" y1="342.5" y2="342.5" class="net_88,89,90,91,92,93,94,95,96,97,98,99,100,101,102,103,104 width_17" style="stroke-width: 2"/><rect x="438" y="88" width="22" height="9" class="net_2,3,4,5,6,7,8,9,10,11,12,13,14,15,16,17 width_16 busLabel_16" style="fill: white; stroke: none"/><text x="437" y="96" class="net_2,3,4,5,6,7,8,9,10,11,12,13,14,15,16,17 width_16 busLabel_16">/16/</text><rect x="438" y="88" width="22" height="9" class="net_2,3,4,5,6,7,8,9,10,11,12,13,14,15,16,17 width_16 busLabel_16" style="fill: white; stroke: none"/><text x="437" y="96" class="net_2,3,4,5,6,7,8,9,10,11,12,13,14,15,16,17 width_16 busLabel_16">/16/</text><rect x="438" y="88" width="22" height="9" class="net_2,3,4,5,6,7,8,9,10,11,12,13,14,15,16,17 width_16 busLabel_16" style="fill: white; stroke: none"/><text x="437" y="96" class="net_2,3,4,5,6,7,8,9,10,11,12,13,14,15,16,17 width_16 busLabel_16">/16/</text><rect x="388" y="342.5" width="22" height="9" class="net_55,56,57,58,59,60,61,62,63,64,65,66,67,68,69,70 width_16 busLabel_16" style="fill: white; stroke: none"/><text x="387" y="350.5" class="net_55,56,57,58,59,60,61,62,63,64,65,66,67,68,69,70 width_16 busLabel_16">/16/</text><rect x="501.5" y="330" width="22" height="9" class="net_71,72,73,74,75,76,77,78,79,80,81,82,83,84,85,86,87 width_17 busLabel_17" style="fill: white; stroke: none"/><text x="500.5" y="338" class="net_71,72,73,74,75,76,77,78,79,80,81,82,83,84,85,86,87 width_17 busLabel_17">/17/</text><rect x="186.5" y="42" width="22" height="9" class="net_18,19,20,21,22,23,24,25,26,27,28,29,30,31,32,33 width_16 busLabel_16" style="fill: white; stroke: none"/><text x="185.5" y="50" class="net_18,19,20,21,22,23,24,25,26,27,28,29,30,31,32,33 width_16 busLabel_16">/16/</text><rect x="186.5" y="42" width="22" height="9" class="net_18,19,20,21,22,23,24,25,26,27,28,29,30,31,32,33 width_16 busLabel_16" style="fill: white; stroke: none"/><text x="185.5" y="50" class="net_18,19,20,21,22,23,24,25,26,27,28,29,30,31,32,33 width_16 busLabel_16">/16/</text><rect x="186.5" y="42" width="22" height="9" class="net_18,19,20,21,22,23,24,25,26,27,28,29,30,31,32,33 width_16 busLabel_16" style="fill: white; stroke: none"/><text x="185.5" y="50" class="net_18,19,20,21,22,23,24,25,26,27,28,29,30,31,32,33 width_16 busLabel_16">/16/</text><rect x="186.5" y="42" width="22" height="9" class="net_18,19,20,21,22,23,24,25,26,27,28,29,30,31,32,33 width_16 busLabel_16" style="fill: white; stroke: none"/><text x="185.5" y="50" class="net_18,19,20,21,22,23,24,25,26,27,28,29,30,31,32,33 width_16 busLabel_16">/16/</text><rect x="438" y="199" width="16" height="9" class="net_34,35 width_2 busLabel_2" style="fill: white; stroke: none"/><text x="437" y="207" class="net_34,35 width_2 busLabel_2">/2/</text><rect x="438" y="199" width="16" height="9" class="net_34,35 width_2 busLabel_2" style="fill: white; stroke: none"/><text x="437" y="207" class="net_34,35 width_2 busLabel_2">/2/</text><rect x="438" y="199" width="16" height="9" class="net_34,35 width_2 busLabel_2" style="fill: white; stroke: none"/><text x="437" y="207" class="net_34,35 width_2 busLabel_2">/2/</text><rect x="695.75" y="274" width="16" height="9" class="net_206,207 width_2 busLabel_2" style="fill: white; stroke: none"/><text x="694.75" y="282" class="net_206,207 width_2 busLabel_2">/2/</text><rect x="567" y="230" width="16" height="9" class="net_208,209 width_2 busLabel_2" style="fill: white; stroke: none"/><text x="566" y="238" class="net_208,209 width_2 busLabel_2">/2/</text><rect x="1045" y="125.5" width="22" height="9" class="net_37,38,39,40,41,42,43,44,45,46,47,48,49,50,51,52 width_16 busLabel_16" style="fill: white; stroke: none"/><text x="1044" y="133.5" class="net_37,38,39,40,41,42,43,44,45,46,47,48,49,50,51,52 width_16 busLabel_16">/16/</text><rect x="1045" y="125.5" width="22" height="9" class="net_37,38,39,40,41,42,43,44,45,46,47,48,49,50,51,52 width_16 busLabel_16" style="fill: white; stroke: none"/><text x="1044" y="133.5" class="net_37,38,39,40,41,42,43,44,45,46,47,48,49,50,51,52 width_16 busLabel_16">/16/</text><rect x="1045" y="125.5" width="22" height="9" class="net_37,38,39,40,41,42,43,44,45,46,47,48,49,50,51,52 width_16 busLabel_16" style="fill: white; stroke: none"/><text x="1044" y="133.5" class="net_37,38,39,40,41,42,43,44,45,46,47,48,49,50,51,52 width_16 busLabel_16">/16/</text><rect x="1111" y="255.5" width="22" height="9" class="net_142,143,144,145,146,147,148,149,150,151,152,153,154,155,156,157 width_16 busLabel_16" style="fill: white; stroke: none"/><text x="1110" y="263.5" class="net_142,143,144,145,146,147,148,149,150,151,152,153,154,155,156,157 width_16 busLabel_16">/16/</text><rect x="244" y="93" width="22" height="9" class="net_126,127,128,129,130,131,132,133,134,135,136,137,138,139,140,141 width_16 busLabel_16" style="fill: white; stroke: none"/><text x="243" y="101" class="net_126,127,128,129,130,131,132,133,134,135,136,137,138,139,140,141 width_16 busLabel_16">/16/</text><rect x="879.5" y="115.5" width="22" height="9" class="net_174,175,176,177,178,179,180,181,182,183,184,185,186,187,188,189 width_16 busLabel_16" style="fill: white; stroke: none"/><text x="878.5" y="123.5" class="net_174,175,176,177,178,179,180,181,182,183,184,185,186,187,188,189 width_16 busLabel_16">/16/</text><rect x="756" y="347.5" width="22" height="9" class="net_88,89,90,91,92,93,94,95,96,97,98,99,100,101,102,103 width_16 busLabel_16" style="fill: white; stroke: none"/><text x="755" y="355.5" class="net_88,89,90,91,92,93,94,95,96,97,98,99,100,101,102,103 width_16 busLabel_16">/16/</text><rect x="756" y="347.5" width="22" height="9" class="net_88,89,90,91,92,93,94,95,96,97,98,99,100,101,102,103 width_16 busLabel_16" style="fill: white; stroke: none"/><text x="755" y="355.5" class="net_88,89,90,91,92,93,94,95,96,97,98,99,100,101,102,103 width_16 busLabel_16">/16/</text><rect x="756" y="105.5" width="22" height="9" class="net_190,191,192,193,194,195,196,197,198,199,200,201,202,203,204,205 width_16 busLabel_16" style="fill: white; stroke: none"/><text x="755" y="113.5" class="net_190,191,192,193,194,195,196,197,198,199,200,201,202,203,204,205 width_16 busLabel_16">/16/</text><rect x="632.5" y="95.5" width="22" height="9" class="net_158,159,160,161,162,163,164,165,166,167,168,169,170,171,172,173 width_16 busLabel_16" style="fill: white; stroke: none"/><text x="631.5" y="103.5" class="net_158,159,160,161,162,163,164,165,166,167,168,169,170,171,172,173 width_16 busLabel_16">/16/</text><rect x="632.5" y="155.5" width="22" height="9" class="net_105,106,107,108,109,110,111,112,113,114,115,116,117,118,119,120 width_16 busLabel_16" style="fill: white; stroke: none"/><text x="631.5" y="163.5" class="net_105,106,107,108,109,110,111,112,113,114,115,116,117,118,119,120 width_16 busLabel_16">/16/</text><rect x="186.5" y="182" width="16" height="9" class="net_34,35,36 width_3 busLabel_3" style="fill: white; stroke: none"/><text x="185.5" y="190" class="net_34,35,36 width_3 busLabel_3">/3/</text><rect x="632.5" y="337.5" width="22" height="9" class="net_88,89,90,91,92,93,94,95,96,97,98,99,100,101,102,103,104 width_17 busLabel_17" style="fill: white; stroke: none"/><text x="631.5" y="345.5" class="net_88,89,90,91,92,93,94,95,96,97,98,99,100,101,102,103,104 width_17 busLabel_17">/17/</text></svg>