<svg xmlns="http://www.w3.org/2000/svg" xmlns:xlink="http://www.w3.org/1999/xlink" xmlns:s="https://github.com/nturley/netlistsvg" width="435" height="789.5"><style>svg {
  stroke:#000;
  fill:none;
}
text {
  fill:#000;
  stroke:none;
  font-size:10px;
  font-weight: bold;
  font-family: "Courier New", monospace;
}
line {
    stroke-linecap: round;
}
.nodelabel {
  text-anchor: middle;
}
.inputPortLabel {
  text-anchor: end;
}
.splitjoinBody {
  fill:#000;
}</style><g s:type="not" transform="translate(189,277)" s:width="30" s:height="20" id="cell_$eq$Control_Unit.v:17$1"><s:alias val="$_NOT_"/><s:alias val="$not"/><s:alias val="$logic_not"/><path d="M0,0 L0,20 L20,10 Z" fill="#eebaff" class="cell_$eq$Control_Unit.v:17$1"/><circle cx="24" cy="10" r="3" fill="#eebaff" class="cell_$eq$Control_Unit.v:17$1"/><g s:x="-1" s:y="10" s:pid="A"/><g s:x="27" s:y="10" s:pid="Y"/></g><g s:type="eq" transform="translate(190.33333333333334,332)" s:width="25" s:height="25" id="cell_$eq$Control_Unit.v:17$2"><s:alias val="$eq"/><circle r="12.5" cx="12.5" cy="12.5" fill="#ffc9c3" class="cell_$eq$Control_Unit.v:17$2"/><line x1="7.5" x2="17.5" y1="10" y2="10" class="cell_$eq$Control_Unit.v:17$2"/><line x1="7.5" x2="17.5" y1="15" y2="15" class="cell_$eq$Control_Unit.v:17$2"/><g s:x="2" s:y="5" s:pid="A"/><g s:x="2" s:y="20" s:pid="B"/><g s:x="25" s:y="12.5" s:pid="Y"/></g><g s:type="not" transform="translate(255,256)" s:width="30" s:height="20" id="cell_$eq$Control_Unit.v:19$5"><s:alias val="$_NOT_"/><s:alias val="$not"/><s:alias val="$logic_not"/><path d="M0,0 L0,20 L20,10 Z" fill="#eebaff" class="cell_$eq$Control_Unit.v:19$5"/><circle cx="24" cy="10" r="3" fill="#eebaff" class="cell_$eq$Control_Unit.v:19$5"/><g s:x="-1" s:y="10" s:pid="A"/><g s:x="27" s:y="10" s:pid="Y"/></g><g s:type="eq" transform="translate(190.33333333333334,691.5)" s:width="25" s:height="25" id="cell_$eq$Control_Unit.v:21$7"><s:alias val="$eq"/><circle r="12.5" cx="12.5" cy="12.5" fill="#ffc9c3" class="cell_$eq$Control_Unit.v:21$7"/><line x1="7.5" x2="17.5" y1="10" y2="10" class="cell_$eq$Control_Unit.v:21$7"/><line x1="7.5" x2="17.5" y1="15" y2="15" class="cell_$eq$Control_Unit.v:21$7"/><g s:x="2" s:y="5" s:pid="A"/><g s:x="2" s:y="20" s:pid="B"/><g s:x="25" s:y="12.5" s:pid="Y"/></g><g s:type="eq" transform="translate(190.33333333333334,751.5)" s:width="25" s:height="25" id="cell_$eq$Control_Unit.v:21$8"><s:alias val="$eq"/><circle r="12.5" cx="12.5" cy="12.5" fill="#ffc9c3" class="cell_$eq$Control_Unit.v:21$8"/><line x1="7.5" x2="17.5" y1="10" y2="10" class="cell_$eq$Control_Unit.v:21$8"/><line x1="7.5" x2="17.5" y1="15" y2="15" class="cell_$eq$Control_Unit.v:21$8"/><g s:x="2" s:y="5" s:pid="A"/><g s:x="2" s:y="20" s:pid="B"/><g s:x="25" s:y="12.5" s:pid="Y"/></g><g s:type="eq" transform="translate(256.33333333333337,654.5)" s:width="25" s:height="25" id="cell_$eq$Control_Unit.v:23$11"><s:alias val="$eq"/><circle r="12.5" cx="12.5" cy="12.5" fill="#ffc9c3" class="cell_$eq$Control_Unit.v:23$11"/><line x1="7.5" x2="17.5" y1="10" y2="10" class="cell_$eq$Control_Unit.v:23$11"/><line x1="7.5" x2="17.5" y1="15" y2="15" class="cell_$eq$Control_Unit.v:23$11"/><g s:x="2" s:y="5" s:pid="A"/><g s:x="2" s:y="20" s:pid="B"/><g s:x="25" s:y="12.5" s:pid="Y"/></g><g s:type="eq" transform="translate(190.33333333333334,417)" s:width="25" s:height="25" id="cell_$eq$Control_Unit.v:25$13"><s:alias val="$eq"/><circle r="12.5" cx="12.5" cy="12.5" fill="#ffc9c3" class="cell_$eq$Control_Unit.v:25$13"/><line x1="7.5" x2="17.5" y1="10" y2="10" class="cell_$eq$Control_Unit.v:25$13"/><line x1="7.5" x2="17.5" y1="15" y2="15" class="cell_$eq$Control_Unit.v:25$13"/><g s:x="2" s:y="5" s:pid="A"/><g s:x="2" s:y="20" s:pid="B"/><g s:x="25" s:y="12.5" s:pid="Y"/></g><g s:type="eq" transform="translate(190.33333333333334,477)" s:width="25" s:height="25" id="cell_$eq$Control_Unit.v:25$14"><s:alias val="$eq"/><circle r="12.5" cx="12.5" cy="12.5" fill="#ffc9c3" class="cell_$eq$Control_Unit.v:25$14"/><line x1="7.5" x2="17.5" y1="10" y2="10" class="cell_$eq$Control_Unit.v:25$14"/><line x1="7.5" x2="17.5" y1="15" y2="15" class="cell_$eq$Control_Unit.v:25$14"/><g s:x="2" s:y="5" s:pid="A"/><g s:x="2" s:y="20" s:pid="B"/><g s:x="25" s:y="12.5" s:pid="Y"/></g><g s:type="eq" transform="translate(256.33333333333337,594.5)" s:width="25" s:height="25" id="cell_$eq$Control_Unit.v:27$17"><s:alias val="$eq"/><circle r="12.5" cx="12.5" cy="12.5" fill="#ffc9c3" class="cell_$eq$Control_Unit.v:27$17"/><line x1="7.5" x2="17.5" y1="10" y2="10" class="cell_$eq$Control_Unit.v:27$17"/><line x1="7.5" x2="17.5" y1="15" y2="15" class="cell_$eq$Control_Unit.v:27$17"/><g s:x="2" s:y="5" s:pid="A"/><g s:x="2" s:y="20" s:pid="B"/><g s:x="25" s:y="12.5" s:pid="Y"/></g><g s:type="eq" transform="translate(124,142)" s:width="25" s:height="25" id="cell_$eq$Control_Unit.v:29$19"><s:alias val="$eq"/><circle r="12.5" cx="12.5" cy="12.5" fill="#ffc9c3" class="cell_$eq$Control_Unit.v:29$19"/><line x1="7.5" x2="17.5" y1="10" y2="10" class="cell_$eq$Control_Unit.v:29$19"/><line x1="7.5" x2="17.5" y1="15" y2="15" class="cell_$eq$Control_Unit.v:29$19"/><g s:x="2" s:y="5" s:pid="A"/><g s:x="2" s:y="20" s:pid="B"/><g s:x="25" s:y="12.5" s:pid="Y"/></g><g s:type="eq" transform="translate(124,202)" s:width="25" s:height="25" id="cell_$eq$Control_Unit.v:29$20"><s:alias val="$eq"/><circle r="12.5" cx="12.5" cy="12.5" fill="#ffc9c3" class="cell_$eq$Control_Unit.v:29$20"/><line x1="7.5" x2="17.5" y1="10" y2="10" class="cell_$eq$Control_Unit.v:29$20"/><line x1="7.5" x2="17.5" y1="15" y2="15" class="cell_$eq$Control_Unit.v:29$20"/><g s:x="2" s:y="5" s:pid="A"/><g s:x="2" s:y="20" s:pid="B"/><g s:x="25" s:y="12.5" s:pid="Y"/></g><g s:type="or" transform="translate(254.66666666666666,324.5)" s:width="30" s:height="25" id="cell_$or$Control_Unit.v:17$3"><s:alias val="$or"/><s:alias val="$logic_or"/><s:alias val="$_OR_"/><path d="M0,25 L0,25 L15,25 A15 12.5 0 0 0 15,0 L0,0 A30 25 0 0 1 0,25 Z" fill="#eebaff" class="cell_$or$Control_Unit.v:17$3"/><g s:x="2" s:y="5" s:pid="A"/><g s:x="2" s:y="20" s:pid="B"/><g s:x="30" s:y="12.5" s:pid="Y"/></g><g s:type="or" transform="translate(254.66666666666666,744)" s:width="30" s:height="25" id="cell_$or$Control_Unit.v:21$9"><s:alias val="$or"/><s:alias val="$logic_or"/><s:alias val="$_OR_"/><path d="M0,25 L0,25 L15,25 A15 12.5 0 0 0 15,0 L0,0 A30 25 0 0 1 0,25 Z" fill="#eebaff" class="cell_$or$Control_Unit.v:21$9"/><g s:x="2" s:y="5" s:pid="A"/><g s:x="2" s:y="20" s:pid="B"/><g s:x="30" s:y="12.5" s:pid="Y"/></g><g s:type="or" transform="translate(254.66666666666666,469.5)" s:width="30" s:height="25" id="cell_$or$Control_Unit.v:25$15"><s:alias val="$or"/><s:alias val="$logic_or"/><s:alias val="$_OR_"/><path d="M0,25 L0,25 L15,25 A15 12.5 0 0 0 15,0 L0,0 A30 25 0 0 1 0,25 Z" fill="#eebaff" class="cell_$or$Control_Unit.v:25$15"/><g s:x="2" s:y="5" s:pid="A"/><g s:x="2" s:y="20" s:pid="B"/><g s:x="30" s:y="12.5" s:pid="Y"/></g><g s:type="or" transform="translate(188.66666666666666,194.5)" s:width="30" s:height="25" id="cell_$or$Control_Unit.v:29$21"><s:alias val="$or"/><s:alias val="$logic_or"/><s:alias val="$_OR_"/><path d="M0,25 L0,25 L15,25 A15 12.5 0 0 0 15,0 L0,0 A30 25 0 0 1 0,25 Z" fill="#eebaff" class="cell_$or$Control_Unit.v:29$21"/><g s:x="2" s:y="5" s:pid="A"/><g s:x="2" s:y="20" s:pid="B"/><g s:x="30" s:y="12.5" s:pid="Y"/></g><g s:type="mux" transform="translate(320,287)" s:width="20" s:height="40" id="cell_$ternary$Control_Unit.v:17$4"><s:alias val="$pmux"/><s:alias val="$mux"/><s:alias val="$_MUX_"/><path d="M0,0 L20,10 L20,30 L0,40 Z" fill="#ffffff" class="cell_$ternary$Control_Unit.v:17$4"/><text x="5" y="32" class="nodelabel cell_$ternary$Control_Unit.v:17$4" s:attribute="">1</text><text x="5" y="13" class="nodelabel cell_$ternary$Control_Unit.v:17$4" s:attribute="">0</text><g s:x="0" s:y="10" s:pid="A"/><g s:x="0" s:y="30" s:pid="B"/><g s:x="10" s:y="35" s:pid="S"/><g s:x="20" s:y="20" s:pid="Y"/></g><g s:type="mux" transform="translate(320,216)" s:width="20" s:height="40" id="cell_$ternary$Control_Unit.v:19$6"><s:alias val="$pmux"/><s:alias val="$mux"/><s:alias val="$_MUX_"/><path d="M0,0 L20,10 L20,30 L0,40 Z" fill="#ffffff" class="cell_$ternary$Control_Unit.v:19$6"/><text x="5" y="32" class="nodelabel cell_$ternary$Control_Unit.v:19$6" s:attribute="">1</text><text x="5" y="13" class="nodelabel cell_$ternary$Control_Unit.v:19$6" s:attribute="">0</text><g s:x="0" s:y="10" s:pid="A"/><g s:x="0" s:y="30" s:pid="B"/><g s:x="10" s:y="35" s:pid="S"/><g s:x="20" s:y="20" s:pid="Y"/></g><g s:type="mux" transform="translate(320,682)" s:width="20" s:height="40" id="cell_$ternary$Control_Unit.v:21$10"><s:alias val="$pmux"/><s:alias val="$mux"/><s:alias val="$_MUX_"/><path d="M0,0 L20,10 L20,30 L0,40 Z" fill="#ffffff" class="cell_$ternary$Control_Unit.v:21$10"/><text x="5" y="32" class="nodelabel cell_$ternary$Control_Unit.v:21$10" s:attribute="">1</text><text x="5" y="13" class="nodelabel cell_$ternary$Control_Unit.v:21$10" s:attribute="">0</text><g s:x="0" s:y="10" s:pid="A"/><g s:x="0" s:y="30" s:pid="B"/><g s:x="10" s:y="35" s:pid="S"/><g s:x="20" s:y="20" s:pid="Y"/></g><g s:type="mux" transform="translate(320,617)" s:width="20" s:height="40" id="cell_$ternary$Control_Unit.v:23$12"><s:alias val="$pmux"/><s:alias val="$mux"/><s:alias val="$_MUX_"/><path d="M0,0 L20,10 L20,30 L0,40 Z" fill="#ffffff" class="cell_$ternary$Control_Unit.v:23$12"/><text x="5" y="32" class="nodelabel cell_$ternary$Control_Unit.v:23$12" s:attribute="">1</text><text x="5" y="13" class="nodelabel cell_$ternary$Control_Unit.v:23$12" s:attribute="">0</text><g s:x="0" s:y="10" s:pid="A"/><g s:x="0" s:y="30" s:pid="B"/><g s:x="10" s:y="35" s:pid="S"/><g s:x="20" s:y="20" s:pid="Y"/></g><g s:type="mux" transform="translate(320,414.5)" s:width="20" s:height="40" id="cell_$ternary$Control_Unit.v:25$16"><s:alias val="$pmux"/><s:alias val="$mux"/><s:alias val="$_MUX_"/><path d="M0,0 L20,10 L20,30 L0,40 Z" fill="#ffffff" class="cell_$ternary$Control_Unit.v:25$16"/><text x="5" y="32" class="nodelabel cell_$ternary$Control_Unit.v:25$16" s:attribute="">1</text><text x="5" y="13" class="nodelabel cell_$ternary$Control_Unit.v:25$16" s:attribute="">0</text><g s:x="0" s:y="10" s:pid="A"/><g s:x="0" s:y="30" s:pid="B"/><g s:x="10" s:y="35" s:pid="S"/><g s:x="20" s:y="20" s:pid="Y"/></g><g s:type="mux" transform="translate(320,519.5)" s:width="20" s:height="40" id="cell_$ternary$Control_Unit.v:27$18"><s:alias val="$pmux"/><s:alias val="$mux"/><s:alias val="$_MUX_"/><path d="M0,0 L20,10 L20,30 L0,40 Z" fill="#ffffff" class="cell_$ternary$Control_Unit.v:27$18"/><text x="5" y="32" class="nodelabel cell_$ternary$Control_Unit.v:27$18" s:attribute="">1</text><text x="5" y="13" class="nodelabel cell_$ternary$Control_Unit.v:27$18" s:attribute="">0</text><g s:x="0" s:y="10" s:pid="A"/><g s:x="0" s:y="30" s:pid="B"/><g s:x="10" s:y="35" s:pid="S"/><g s:x="20" s:y="20" s:pid="Y"/></g><g s:type="mux-bus" transform="translate(256.66666666666663,67)" s:width="24" s:height="40" id="cell_$ternary$Control_Unit.v:29$22"><s:alias val="$pmux-bus"/><s:alias val="$mux-bus"/><s:alias val="$_MUX_-bus"/><path d="M8,2 L8,0 L24,8 L24,32 L8,40 L8,38" fill="#ffffff" class="cell_$ternary$Control_Unit.v:29$22"/><path d="M4,2 L4,0 L22,9 L22,31 L4,40 L4,38" fill="#ffffff" class="cell_$ternary$Control_Unit.v:29$22"/><path d="M0,0 L20,10 L20,30 L0,40 Z" fill="#ffffff" class="cell_$ternary$Control_Unit.v:29$22"/><text x="5" y="32" class="nodelabel cell_$ternary$Control_Unit.v:29$22" s:attribute="">1</text><text x="5" y="13" class="nodelabel cell_$ternary$Control_Unit.v:29$22" s:attribute="">0</text><g s:x="-1" s:y="10" s:pid="A"/><g s:x="-1" s:y="30" s:pid="B"/><g s:x="12" s:y="38" s:pid="S"/><g s:x="24.5" s:y="20" s:pid="Y"/></g><g s:type="inputExt" transform="translate(12,362)" s:width="30" s:height="20" id="cell_op"><text x="15" y="-4" class="nodelabel cell_op" s:attribute="ref">op</text><s:alias val="$_inputExt_"/><path d="M0,0 L0,20 L15,20 L30,10 L15,0 Z" fill="#8bcaff" class="cell_op"/><g s:x="30" s:y="10" s:pid="Y"/></g><g s:type="outputExt" transform="translate(375,297)" s:width="30" s:height="20" id="cell_RegWrite"><text x="15" y="-4" class="nodelabel cell_RegWrite" s:attribute="ref">RegWrite</text><s:alias val="$_outputExt_"/><path d="M30,0 L30,20 L15,20 L0,10 L15,0 Z" fill="#169300" class="cell_RegWrite"/><g s:x="0" s:y="10" s:pid="A"/></g><g s:type="outputExt" transform="translate(375,529.5)" s:width="30" s:height="20" id="cell_MemWrite"><text x="15" y="-4" class="nodelabel cell_MemWrite" s:attribute="ref">MemWrite</text><s:alias val="$_outputExt_"/><path d="M30,0 L30,20 L15,20 L0,10 L15,0 Z" fill="#169300" class="cell_MemWrite"/><g s:x="0" s:y="10" s:pid="A"/></g><g s:type="outputExt" transform="translate(375,692)" s:width="30" s:height="20" id="cell_ALUSrc"><text x="15" y="-4" class="nodelabel cell_ALUSrc" s:attribute="ref">ALUSrc</text><s:alias val="$_outputExt_"/><path d="M30,0 L30,20 L15,20 L0,10 L15,0 Z" fill="#169300" class="cell_ALUSrc"/><g s:x="0" s:y="10" s:pid="A"/></g><g s:type="outputExt" transform="translate(375,77)" s:width="30" s:height="20" id="cell_ALUOp"><text x="15" y="-4" class="nodelabel cell_ALUOp" s:attribute="ref">ALUOp</text><s:alias val="$_outputExt_"/><path d="M30,0 L30,20 L15,20 L0,10 L15,0 Z" fill="#169300" class="cell_ALUOp"/><g s:x="0" s:y="10" s:pid="A"/></g><g s:type="outputExt" transform="translate(375,226)" s:width="30" s:height="20" id="cell_RegDst"><text x="15" y="-4" class="nodelabel cell_RegDst" s:attribute="ref">RegDst</text><s:alias val="$_outputExt_"/><path d="M30,0 L30,20 L15,20 L0,10 L15,0 Z" fill="#169300" class="cell_RegDst"/><g s:x="0" s:y="10" s:pid="A"/></g><g s:type="outputExt" transform="translate(375,627)" s:width="30" s:height="20" id="cell_MemToReg"><text x="15" y="-4" class="nodelabel cell_MemToReg" s:attribute="ref">MemToReg</text><s:alias val="$_outputExt_"/><path d="M30,0 L30,20 L15,20 L0,10 L15,0 Z" fill="#169300" class="cell_MemToReg"/><g s:x="0" s:y="10" s:pid="A"/></g><g s:type="outputExt" transform="translate(375,424.5)" s:width="30" s:height="20" id="cell_MemRead"><text x="15" y="-4" class="nodelabel cell_MemRead" s:attribute="ref">MemRead</text><s:alias val="$_outputExt_"/><path d="M30,0 L30,20 L15,20 L0,10 L15,0 Z" fill="#169300" class="cell_MemRead"/><g s:x="0" s:y="10" s:pid="A"/></g><g s:type="constant" transform="translate(12,427)" s:width="30" s:height="20" id="cell_001"><text x="15" y="-4" class="nodelabel cell_001" s:attribute="ref">001</text><s:alias val="$_constant_"/><rect width="30" height="20" fill="#745bff" class="cell_001"/><g s:x="31" s:y="10" s:pid="Y"/></g><g s:type="constant" transform="translate(12,604.5)" s:width="30" s:height="20" id="cell_010"><text x="15" y="-4" class="nodelabel cell_010" s:attribute="ref">010</text><s:alias val="$_constant_"/><rect width="30" height="20" fill="#745bff" class="cell_010"/><g s:x="31" s:y="10" s:pid="Y"/></g><g s:type="constant" transform="translate(254,414.5)" s:width="30" s:height="20" id="cell_0"><text x="15" y="-4" class="nodelabel cell_0" s:attribute="ref">0</text><s:alias val="$_constant_"/><rect width="30" height="20" fill="#745bff" class="cell_0"/><g s:x="31" s:y="10" s:pid="Y"/></g><g s:type="constant" transform="translate(254,539.5)" s:width="30" s:height="20" id="cell_1"><text x="15" y="-4" class="nodelabel cell_1" s:attribute="ref">1</text><s:alias val="$_constant_"/><rect width="30" height="20" fill="#745bff" class="cell_1"/><g s:x="31" s:y="10" s:pid="Y"/></g><g s:type="constant" transform="translate(122,22)" s:width="30" s:height="20" id="cell_00"><text x="15" y="-4" class="nodelabel cell_00" s:attribute="ref">00</text><s:alias val="$_constant_"/><rect width="30" height="20" fill="#745bff" class="cell_00"/><g s:x="31" s:y="10" s:pid="Y"/></g><g s:type="constant" transform="translate(122,87)" s:width="30" s:height="20" id="cell_11"><text x="15" y="-4" class="nodelabel cell_11" s:attribute="ref">11</text><s:alias val="$_constant_"/><rect width="30" height="20" fill="#745bff" class="cell_11"/><g s:x="31" s:y="10" s:pid="Y"/></g><line x1="42" x2="73" y1="372" y2="372" class="net_2,3,4 width_3" style="stroke-width: 2"/><line x1="73" x2="73" y1="372" y2="287" class="net_2,3,4 width_3" style="stroke-width: 2"/><circle cx="73" cy="372" r="3" style="fill:#000" class="net_2,3,4 width_3"/><circle cx="73" cy="287" r="3" style="fill:#000" class="net_2,3,4 width_3"/><line x1="73" x2="188" y1="287" y2="287" class="net_2,3,4 width_3" style="stroke-width: 2"/><line x1="42" x2="73" y1="372" y2="372" class="net_2,3,4 width_3" style="stroke-width: 2"/><line x1="73" x2="73" y1="372" y2="332" class="net_2,3,4 width_3" style="stroke-width: 2"/><line x1="73" x2="163" y1="332" y2="332" class="net_2,3,4 width_3" style="stroke-width: 2"/><line x1="163" x2="163" y1="332" y2="337" class="net_2,3,4 width_3" style="stroke-width: 2"/><circle cx="73" cy="332" r="3" style="fill:#000" class="net_2,3,4 width_3"/><line x1="163" x2="192.33333333333334" y1="337" y2="337" class="net_2,3,4 width_3" style="stroke-width: 2"/><line x1="42" x2="73" y1="372" y2="372" class="net_2,3,4 width_3" style="stroke-width: 2"/><line x1="73" x2="73" y1="372" y2="266" class="net_2,3,4 width_3" style="stroke-width: 2"/><circle cx="73" cy="266" r="3" style="fill:#000" class="net_2,3,4 width_3"/><line x1="73" x2="254" y1="266" y2="266" class="net_2,3,4 width_3" style="stroke-width: 2"/><line x1="42" x2="73" y1="372" y2="372" class="net_2,3,4 width_3" style="stroke-width: 2"/><line x1="73" x2="73" y1="372" y2="691.5" class="net_2,3,4 width_3" style="stroke-width: 2"/><line x1="73" x2="163" y1="691.5" y2="691.5" class="net_2,3,4 width_3" style="stroke-width: 2"/><line x1="163" x2="163" y1="691.5" y2="696.5" class="net_2,3,4 width_3" style="stroke-width: 2"/><circle cx="73" cy="691.5" r="3" style="fill:#000" class="net_2,3,4 width_3"/><line x1="163" x2="192.33333333333334" y1="696.5" y2="696.5" class="net_2,3,4 width_3" style="stroke-width: 2"/><line x1="42" x2="73" y1="372" y2="372" class="net_2,3,4 width_3" style="stroke-width: 2"/><line x1="73" x2="73" y1="372" y2="751.5" class="net_2,3,4 width_3" style="stroke-width: 2"/><line x1="73" x2="163" y1="751.5" y2="751.5" class="net_2,3,4 width_3" style="stroke-width: 2"/><line x1="163" x2="163" y1="751.5" y2="756.5" class="net_2,3,4 width_3" style="stroke-width: 2"/><line x1="163" x2="192.33333333333334" y1="756.5" y2="756.5" class="net_2,3,4 width_3" style="stroke-width: 2"/><line x1="42" x2="73" y1="372" y2="372" class="net_2,3,4 width_3" style="stroke-width: 2"/><line x1="73" x2="73" y1="372" y2="654.5" class="net_2,3,4 width_3" style="stroke-width: 2"/><line x1="73" x2="229" y1="654.5" y2="654.5" class="net_2,3,4 width_3" style="stroke-width: 2"/><line x1="229" x2="229" y1="654.5" y2="659.5" class="net_2,3,4 width_3" style="stroke-width: 2"/><circle cx="73" cy="654.5" r="3" style="fill:#000" class="net_2,3,4 width_3"/><line x1="229" x2="258.33333333333337" y1="659.5" y2="659.5" class="net_2,3,4 width_3" style="stroke-width: 2"/><line x1="42" x2="163" y1="372" y2="372" class="net_2,3,4 width_3" style="stroke-width: 2"/><line x1="163" x2="163" y1="372" y2="422" class="net_2,3,4 width_3" style="stroke-width: 2"/><line x1="163" x2="192.33333333333334" y1="422" y2="422" class="net_2,3,4 width_3" style="stroke-width: 2"/><line x1="42" x2="73" y1="372" y2="372" class="net_2,3,4 width_3" style="stroke-width: 2"/><line x1="73" x2="73" y1="372" y2="477" class="net_2,3,4 width_3" style="stroke-width: 2"/><line x1="73" x2="163" y1="477" y2="477" class="net_2,3,4 width_3" style="stroke-width: 2"/><line x1="163" x2="163" y1="477" y2="482" class="net_2,3,4 width_3" style="stroke-width: 2"/><circle cx="73" cy="477" r="3" style="fill:#000" class="net_2,3,4 width_3"/><line x1="163" x2="192.33333333333334" y1="482" y2="482" class="net_2,3,4 width_3" style="stroke-width: 2"/><line x1="42" x2="73" y1="372" y2="372" class="net_2,3,4 width_3" style="stroke-width: 2"/><line x1="73" x2="73" y1="372" y2="594.5" class="net_2,3,4 width_3" style="stroke-width: 2"/><line x1="73" x2="229" y1="594.5" y2="594.5" class="net_2,3,4 width_3" style="stroke-width: 2"/><line x1="229" x2="229" y1="594.5" y2="599.5" class="net_2,3,4 width_3" style="stroke-width: 2"/><circle cx="73" cy="594.5" r="3" style="fill:#000" class="net_2,3,4 width_3"/><line x1="229" x2="258.33333333333337" y1="599.5" y2="599.5" class="net_2,3,4 width_3" style="stroke-width: 2"/><line x1="42" x2="73" y1="372" y2="372" class="net_2,3,4 width_3" style="stroke-width: 2"/><line x1="73" x2="73" y1="372" y2="142" class="net_2,3,4 width_3" style="stroke-width: 2"/><line x1="73" x2="97" y1="142" y2="142" class="net_2,3,4 width_3" style="stroke-width: 2"/><line x1="97" x2="97" y1="142" y2="147" class="net_2,3,4 width_3" style="stroke-width: 2"/><line x1="97" x2="126" y1="147" y2="147" class="net_2,3,4 width_3" style="stroke-width: 2"/><line x1="42" x2="73" y1="372" y2="372" class="net_2,3,4 width_3" style="stroke-width: 2"/><line x1="73" x2="73" y1="372" y2="202" class="net_2,3,4 width_3" style="stroke-width: 2"/><line x1="73" x2="97" y1="202" y2="202" class="net_2,3,4 width_3" style="stroke-width: 2"/><line x1="97" x2="97" y1="202" y2="207" class="net_2,3,4 width_3" style="stroke-width: 2"/><circle cx="73" cy="202" r="3" style="fill:#000" class="net_2,3,4 width_3"/><line x1="97" x2="126" y1="207" y2="207" class="net_2,3,4 width_3" style="stroke-width: 2"/><line x1="43" x2="63" y1="437" y2="437" class="net_28,29,30 width_3" style="stroke-width: 2"/><line x1="63" x2="63" y1="437" y2="352" class="net_28,29,30 width_3" style="stroke-width: 2"/><circle cx="63" cy="437" r="3" style="fill:#000" class="net_28,29,30 width_3"/><circle cx="63" cy="352" r="3" style="fill:#000" class="net_28,29,30 width_3"/><line x1="63" x2="192.33333333333334" y1="352" y2="352" class="net_28,29,30 width_3" style="stroke-width: 2"/><line x1="43" x2="63" y1="437" y2="437" class="net_28,29,30 width_3" style="stroke-width: 2"/><line x1="63" x2="63" y1="437" y2="711.5" class="net_28,29,30 width_3" style="stroke-width: 2"/><line x1="63" x2="192.33333333333334" y1="711.5" y2="711.5" class="net_28,29,30 width_3" style="stroke-width: 2"/><line x1="43" x2="63" y1="437" y2="437" class="net_28,29,30 width_3" style="stroke-width: 2"/><line x1="63" x2="63" y1="437" y2="674.5" class="net_28,29,30 width_3" style="stroke-width: 2"/><circle cx="63" cy="674.5" r="3" style="fill:#000" class="net_28,29,30 width_3"/><line x1="63" x2="258.33333333333337" y1="674.5" y2="674.5" class="net_28,29,30 width_3" style="stroke-width: 2"/><line x1="43" x2="192.33333333333334" y1="437" y2="437" class="net_28,29,30 width_3" style="stroke-width: 2"/><line x1="43" x2="63" y1="437" y2="437" class="net_28,29,30 width_3" style="stroke-width: 2"/><line x1="63" x2="63" y1="437" y2="162" class="net_28,29,30 width_3" style="stroke-width: 2"/><line x1="63" x2="126" y1="162" y2="162" class="net_28,29,30 width_3" style="stroke-width: 2"/><line x1="43" x2="53" y1="614.5" y2="614.5" class="net_34,35,36 width_3" style="stroke-width: 2"/><line x1="53" x2="53" y1="614.5" y2="771.5" class="net_34,35,36 width_3" style="stroke-width: 2"/><circle cx="53" cy="614.5" r="3" style="fill:#000" class="net_34,35,36 width_3"/><line x1="53" x2="192.33333333333334" y1="771.5" y2="771.5" class="net_34,35,36 width_3" style="stroke-width: 2"/><line x1="43" x2="53" y1="614.5" y2="614.5" class="net_34,35,36 width_3" style="stroke-width: 2"/><line x1="53" x2="53" y1="614.5" y2="497" class="net_34,35,36 width_3" style="stroke-width: 2"/><circle cx="53" cy="497" r="3" style="fill:#000" class="net_34,35,36 width_3"/><line x1="53" x2="192.33333333333334" y1="497" y2="497" class="net_34,35,36 width_3" style="stroke-width: 2"/><line x1="43" x2="258.33333333333337" y1="614.5" y2="614.5" class="net_34,35,36 width_3" style="stroke-width: 2"/><line x1="43" x2="53" y1="614.5" y2="614.5" class="net_34,35,36 width_3" style="stroke-width: 2"/><line x1="53" x2="53" y1="614.5" y2="222" class="net_34,35,36 width_3" style="stroke-width: 2"/><line x1="53" x2="126" y1="222" y2="222" class="net_34,35,36 width_3" style="stroke-width: 2"/><line x1="216" x2="229" y1="287" y2="287" class="net_13 width_1" style="stroke-width: 1"/><line x1="229" x2="229" y1="287" y2="329.5" class="net_13 width_1" style="stroke-width: 1"/><line x1="229" x2="256.66666666666663" y1="329.5" y2="329.5" class="net_13 width_1" style="stroke-width: 1"/><line x1="215.33333333333334" x2="256.66666666666663" y1="344.5" y2="344.5" class="net_14 width_1" style="stroke-width: 1"/><line x1="215.33333333333334" x2="229" y1="704" y2="704" class="net_16 width_1" style="stroke-width: 1"/><line x1="229" x2="229" y1="704" y2="749" class="net_16 width_1" style="stroke-width: 1"/><line x1="229" x2="256.66666666666663" y1="749" y2="749" class="net_16 width_1" style="stroke-width: 1"/><line x1="215.33333333333334" x2="256.66666666666663" y1="764" y2="764" class="net_17 width_1" style="stroke-width: 1"/><line x1="215.33333333333334" x2="229" y1="429.5" y2="429.5" class="net_19 width_1" style="stroke-width: 1"/><line x1="229" x2="229" y1="429.5" y2="474.5" class="net_19 width_1" style="stroke-width: 1"/><line x1="229" x2="256.66666666666663" y1="474.5" y2="474.5" class="net_19 width_1" style="stroke-width: 1"/><line x1="215.33333333333334" x2="256.66666666666663" y1="489.5" y2="489.5" class="net_20 width_1" style="stroke-width: 1"/><line x1="149" x2="163" y1="154.5" y2="154.5" class="net_22 width_1" style="stroke-width: 1"/><line x1="163" x2="163" y1="154.5" y2="199.5" class="net_22 width_1" style="stroke-width: 1"/><line x1="163" x2="190.66666666666666" y1="199.5" y2="199.5" class="net_22 width_1" style="stroke-width: 1"/><line x1="149" x2="190.66666666666666" y1="214.5" y2="214.5" class="net_23 width_1" style="stroke-width: 1"/><line x1="285" x2="305" y1="424.5" y2="424.5" class="net_55 width_1" style="stroke-width: 1"/><line x1="305" x2="305" y1="424.5" y2="297" class="net_55 width_1" style="stroke-width: 1"/><circle cx="305" cy="424.5" r="2" style="fill:#000" class="net_55 width_1"/><circle cx="305" cy="297" r="2" style="fill:#000" class="net_55 width_1"/><line x1="305" x2="320" y1="297" y2="297" class="net_55 width_1" style="stroke-width: 1"/><line x1="285" x2="305" y1="424.5" y2="424.5" class="net_55 width_1" style="stroke-width: 1"/><line x1="305" x2="305" y1="424.5" y2="226" class="net_55 width_1" style="stroke-width: 1"/><line x1="305" x2="320" y1="226" y2="226" class="net_55 width_1" style="stroke-width: 1"/><line x1="285" x2="305" y1="424.5" y2="424.5" class="net_55 width_1" style="stroke-width: 1"/><line x1="305" x2="305" y1="424.5" y2="692" class="net_55 width_1" style="stroke-width: 1"/><line x1="305" x2="320" y1="692" y2="692" class="net_55 width_1" style="stroke-width: 1"/><line x1="285" x2="305" y1="424.5" y2="424.5" class="net_55 width_1" style="stroke-width: 1"/><line x1="305" x2="305" y1="424.5" y2="627" class="net_55 width_1" style="stroke-width: 1"/><circle cx="305" cy="627" r="2" style="fill:#000" class="net_55 width_1"/><line x1="305" x2="320" y1="627" y2="627" class="net_55 width_1" style="stroke-width: 1"/><line x1="285" x2="320" y1="424.5" y2="424.5" class="net_55 width_1" style="stroke-width: 1"/><line x1="285" x2="305" y1="424.5" y2="424.5" class="net_55 width_1" style="stroke-width: 1"/><line x1="305" x2="305" y1="424.5" y2="529.5" class="net_55 width_1" style="stroke-width: 1"/><circle cx="305" cy="529.5" r="2" style="fill:#000" class="net_55 width_1"/><line x1="305" x2="320" y1="529.5" y2="529.5" class="net_55 width_1" style="stroke-width: 1"/><line x1="285" x2="295" y1="549.5" y2="549.5" class="net_56 width_1" style="stroke-width: 1"/><line x1="295" x2="295" y1="549.5" y2="317" class="net_56 width_1" style="stroke-width: 1"/><circle cx="295" cy="549.5" r="2" style="fill:#000" class="net_56 width_1"/><circle cx="295" cy="317" r="2" style="fill:#000" class="net_56 width_1"/><line x1="295" x2="320" y1="317" y2="317" class="net_56 width_1" style="stroke-width: 1"/><line x1="285" x2="295" y1="549.5" y2="549.5" class="net_56 width_1" style="stroke-width: 1"/><line x1="295" x2="295" y1="549.5" y2="246" class="net_56 width_1" style="stroke-width: 1"/><line x1="295" x2="320" y1="246" y2="246" class="net_56 width_1" style="stroke-width: 1"/><line x1="285" x2="295" y1="549.5" y2="549.5" class="net_56 width_1" style="stroke-width: 1"/><line x1="295" x2="295" y1="549.5" y2="712" class="net_56 width_1" style="stroke-width: 1"/><line x1="295" x2="320" y1="712" y2="712" class="net_56 width_1" style="stroke-width: 1"/><line x1="285" x2="295" y1="549.5" y2="549.5" class="net_56 width_1" style="stroke-width: 1"/><line x1="295" x2="295" y1="549.5" y2="647" class="net_56 width_1" style="stroke-width: 1"/><circle cx="295" cy="647" r="2" style="fill:#000" class="net_56 width_1"/><line x1="295" x2="320" y1="647" y2="647" class="net_56 width_1" style="stroke-width: 1"/><line x1="285" x2="295" y1="549.5" y2="549.5" class="net_56 width_1" style="stroke-width: 1"/><line x1="295" x2="295" y1="549.5" y2="444.5" class="net_56 width_1" style="stroke-width: 1"/><circle cx="295" cy="444.5" r="2" style="fill:#000" class="net_56 width_1"/><line x1="295" x2="320" y1="444.5" y2="444.5" class="net_56 width_1" style="stroke-width: 1"/><line x1="285" x2="320" y1="549.5" y2="549.5" class="net_56 width_1" style="stroke-width: 1"/><line x1="284.66666666666663" x2="330" y1="337" y2="337" class="net_24 width_1" style="stroke-width: 1"/><line x1="330" x2="330" y1="337" y2="322" class="net_24 width_1" style="stroke-width: 1"/><line x1="282" x2="330" y1="266" y2="266" class="net_15 width_1" style="stroke-width: 1"/><line x1="330" x2="330" y1="266" y2="251" class="net_15 width_1" style="stroke-width: 1"/><line x1="284.66666666666663" x2="330" y1="756.5" y2="756.5" class="net_25 width_1" style="stroke-width: 1"/><line x1="330" x2="330" y1="756.5" y2="717" class="net_25 width_1" style="stroke-width: 1"/><line x1="281.33333333333337" x2="330" y1="667" y2="667" class="net_18 width_1" style="stroke-width: 1"/><line x1="330" x2="330" y1="667" y2="652" class="net_18 width_1" style="stroke-width: 1"/><line x1="284.66666666666663" x2="330" y1="482" y2="482" class="net_26 width_1" style="stroke-width: 1"/><line x1="330" x2="330" y1="482" y2="449.5" class="net_26 width_1" style="stroke-width: 1"/><line x1="281.33333333333337" x2="330" y1="607" y2="607" class="net_21 width_1" style="stroke-width: 1"/><line x1="330" x2="330" y1="607" y2="554.5" class="net_21 width_1" style="stroke-width: 1"/><line x1="153" x2="229" y1="32" y2="32" class="net_67,68 width_2" style="stroke-width: 2"/><line x1="229" x2="229" y1="32" y2="77" class="net_67,68 width_2" style="stroke-width: 2"/><line x1="229" x2="255.66666666666666" y1="77" y2="77" class="net_67,68 width_2" style="stroke-width: 2"/><line x1="153" x2="255.66666666666666" y1="97" y2="97" class="net_69,70 width_2" style="stroke-width: 2"/><line x1="218.66666666666666" x2="268.66666666666663" y1="207" y2="207" class="net_27 width_1" style="stroke-width: 1"/><line x1="268.66666666666663" x2="268.66666666666663" y1="207" y2="105" class="net_27 width_1" style="stroke-width: 1"/><line x1="340" x2="375" y1="307" y2="307" class="net_5 width_1" style="stroke-width: 1"/><line x1="340" x2="375" y1="539.5" y2="539.5" class="net_6 width_1" style="stroke-width: 1"/><line x1="340" x2="375" y1="702" y2="702" class="net_7 width_1" style="stroke-width: 1"/><line x1="281.16666666666663" x2="375" y1="87" y2="87" class="net_8,9 width_2" style="stroke-width: 2"/><line x1="340" x2="375" y1="236" y2="236" class="net_10 width_1" style="stroke-width: 1"/><line x1="340" x2="375" y1="637" y2="637" class="net_11 width_1" style="stroke-width: 1"/><line x1="340" x2="375" y1="434.5" y2="434.5" class="net_12 width_1" style="stroke-width: 1"/><rect x="84" y="197" width="16" height="9" class="net_2,3,4 width_3 busLabel_3" style="fill: white; stroke: none"/><text x="83" y="205" class="net_2,3,4 width_3 busLabel_3">/3/</text><rect x="84" y="197" width="16" height="9" class="net_2,3,4 width_3 busLabel_3" style="fill: white; stroke: none"/><text x="83" y="205" class="net_2,3,4 width_3 busLabel_3">/3/</text><rect x="84" y="197" width="16" height="9" class="net_2,3,4 width_3 busLabel_3" style="fill: white; stroke: none"/><text x="83" y="205" class="net_2,3,4 width_3 busLabel_3">/3/</text><rect x="84" y="197" width="16" height="9" class="net_2,3,4 width_3 busLabel_3" style="fill: white; stroke: none"/><text x="83" y="205" class="net_2,3,4 width_3 busLabel_3">/3/</text><rect x="84" y="197" width="16" height="9" class="net_2,3,4 width_3 busLabel_3" style="fill: white; stroke: none"/><text x="83" y="205" class="net_2,3,4 width_3 busLabel_3">/3/</text><rect x="84" y="197" width="16" height="9" class="net_2,3,4 width_3 busLabel_3" style="fill: white; stroke: none"/><text x="83" y="205" class="net_2,3,4 width_3 busLabel_3">/3/</text><rect x="84" y="197" width="16" height="9" class="net_2,3,4 width_3 busLabel_3" style="fill: white; stroke: none"/><text x="83" y="205" class="net_2,3,4 width_3 busLabel_3">/3/</text><rect x="84" y="197" width="16" height="9" class="net_2,3,4 width_3 busLabel_3" style="fill: white; stroke: none"/><text x="83" y="205" class="net_2,3,4 width_3 busLabel_3">/3/</text><rect x="84" y="197" width="16" height="9" class="net_2,3,4 width_3 busLabel_3" style="fill: white; stroke: none"/><text x="83" y="205" class="net_2,3,4 width_3 busLabel_3">/3/</text><rect x="84" y="197" width="16" height="9" class="net_2,3,4 width_3 busLabel_3" style="fill: white; stroke: none"/><text x="83" y="205" class="net_2,3,4 width_3 busLabel_3">/3/</text><rect x="84" y="197" width="16" height="9" class="net_2,3,4 width_3 busLabel_3" style="fill: white; stroke: none"/><text x="83" y="205" class="net_2,3,4 width_3 busLabel_3">/3/</text><rect x="84" y="157" width="16" height="9" class="net_28,29,30 width_3 busLabel_3" style="fill: white; stroke: none"/><text x="83" y="165" class="net_28,29,30 width_3 busLabel_3">/3/</text><rect x="84" y="157" width="16" height="9" class="net_28,29,30 width_3 busLabel_3" style="fill: white; stroke: none"/><text x="83" y="165" class="net_28,29,30 width_3 busLabel_3">/3/</text><rect x="84" y="157" width="16" height="9" class="net_28,29,30 width_3 busLabel_3" style="fill: white; stroke: none"/><text x="83" y="165" class="net_28,29,30 width_3 busLabel_3">/3/</text><rect x="84" y="157" width="16" height="9" class="net_28,29,30 width_3 busLabel_3" style="fill: white; stroke: none"/><text x="83" y="165" class="net_28,29,30 width_3 busLabel_3">/3/</text><rect x="84" y="157" width="16" height="9" class="net_28,29,30 width_3 busLabel_3" style="fill: white; stroke: none"/><text x="83" y="165" class="net_28,29,30 width_3 busLabel_3">/3/</text><rect x="84" y="217" width="16" height="9" class="net_34,35,36 width_3 busLabel_3" style="fill: white; stroke: none"/><text x="83" y="225" class="net_34,35,36 width_3 busLabel_3">/3/</text><rect x="84" y="217" width="16" height="9" class="net_34,35,36 width_3 busLabel_3" style="fill: white; stroke: none"/><text x="83" y="225" class="net_34,35,36 width_3 busLabel_3">/3/</text><rect x="84" y="217" width="16" height="9" class="net_34,35,36 width_3 busLabel_3" style="fill: white; stroke: none"/><text x="83" y="225" class="net_34,35,36 width_3 busLabel_3">/3/</text><rect x="84" y="217" width="16" height="9" class="net_34,35,36 width_3 busLabel_3" style="fill: white; stroke: none"/><text x="83" y="225" class="net_34,35,36 width_3 busLabel_3">/3/</text><rect x="202.5" y="27" width="16" height="9" class="net_67,68 width_2 busLabel_2" style="fill: white; stroke: none"/><text x="201.5" y="35" class="net_67,68 width_2 busLabel_2">/2/</text><rect x="202.5" y="92" width="16" height="9" class="net_69,70 width_2 busLabel_2" style="fill: white; stroke: none"/><text x="201.5" y="100" class="net_69,70 width_2 busLabel_2">/2/</text><rect x="329" y="82" width="16" height="9" class="net_8,9 width_2 busLabel_2" style="fill: white; stroke: none"/><text x="328" y="90" class="net_8,9 width_2 busLabel_2">/2/</text></svg>