<svg xmlns="http://www.w3.org/2000/svg" xmlns:xlink="http://www.w3.org/1999/xlink" xmlns:s="https://github.com/nturley/netlistsvg" width="983.5" height="650"><style>svg {
  stroke:#000;
  fill:none;
}
text {
  fill:#000;
  stroke:none;
  font-size:10px;
  font-weight: bold;
  font-family: "Courier New", monospace;
}
line {
    stroke-linecap: round;
}
.nodelabel {
  text-anchor: middle;
}
.inputPortLabel {
  text-anchor: end;
}
.splitjoinBody {
  fill:#000;
}</style><g s:type="and" transform="translate(340.66666666666663,548)" s:width="30" s:height="25" id="cell_$and$Data_Memory.v:16$4"><s:alias val="$and"/><s:alias val="$logic_and"/><s:alias val="$_AND_"/><path d="M0,0 L0,25 L15,25 A15 12.5 0 0 0 15,0 Z" fill="#eebaff" class="cell_$and$Data_Memory.v:16$4"/><g s:x="0" s:y="5" s:pid="A"/><g s:x="0" s:y="20" s:pid="B"/><g s:x="30" s:y="12.5" s:pid="Y"/></g><g s:type="and" transform="translate(534,608)" s:width="30" s:height="25" id="cell_$and$Data_Memory.v:16$5"><s:alias val="$and"/><s:alias val="$logic_and"/><s:alias val="$_AND_"/><path d="M0,0 L0,25 L15,25 A15 12.5 0 0 0 15,0 Z" fill="#eebaff" class="cell_$and$Data_Memory.v:16$5"/><g s:x="0" s:y="5" s:pid="A"/><g s:x="0" s:y="20" s:pid="B"/><g s:x="30" s:y="12.5" s:pid="Y"/></g><g s:type="generic" transform="translate(755.5,178)" s:width="30" s:height="40" id="cell_$auto$proc_memwr.cc:45:proc_memwr$27"><text x="15" y="-4" class="nodelabel cell_$auto$proc_memwr.cc:45:proc_memwr$27" s:attribute="ref">$memwr_v2-bus</text><rect width="30" height="80" s:generic="body" fill="#ffae46" rx="0" class="cell_$auto$proc_memwr.cc:45:proc_memwr$27"/><g transform="translate(0,10)" s:x="0" s:y="10" s:pid="in0" id="port_$auto$proc_memwr.cc:45:proc_memwr$27~ADDR"><text x="-3" y="-4" class="inputPortLabel cell_$auto$proc_memwr.cc:45:proc_memwr$27">ADDR</text></g><g transform="translate(0,30)" s:x="0" s:y="10" s:pid="in0" id="port_$auto$proc_memwr.cc:45:proc_memwr$27~CLK"><text x="-3" y="-4" class="inputPortLabel cell_$auto$proc_memwr.cc:45:proc_memwr$27">CLK</text></g><g transform="translate(0,50)" s:x="0" s:y="10" s:pid="in0" id="port_$auto$proc_memwr.cc:45:proc_memwr$27~DATA"><text x="-3" y="-4" class="inputPortLabel cell_$auto$proc_memwr.cc:45:proc_memwr$27">DATA</text></g><g transform="translate(0,70)" s:x="0" s:y="10" s:pid="in0" id="port_$auto$proc_memwr.cc:45:proc_memwr$27~EN"><text x="-3" y="-4" class="inputPortLabel cell_$auto$proc_memwr.cc:45:proc_memwr$27">EN</text></g></g><g s:type="not" transform="translate(199,500.5)" s:width="30" s:height="20" id="cell_$eq$Data_Memory.v:16$2"><s:alias val="$_NOT_"/><s:alias val="$not"/><s:alias val="$logic_not"/><path d="M0,0 L0,20 L20,10 Z" fill="#eebaff" class="cell_$eq$Data_Memory.v:16$2"/><circle cx="24" cy="10" r="3" fill="#eebaff" class="cell_$eq$Data_Memory.v:16$2"/><g s:x="-1" s:y="10" s:pid="A"/><g s:x="27" s:y="10" s:pid="Y"/></g><g s:type="eq" transform="translate(200.33333333333334,555.5)" s:width="25" s:height="25" id="cell_$eq$Data_Memory.v:16$3"><s:alias val="$eq"/><circle r="12.5" cx="12.5" cy="12.5" fill="#ffc9c3" class="cell_$eq$Data_Memory.v:16$3"/><line x1="7.5" x2="17.5" y1="10" y2="10" class="cell_$eq$Data_Memory.v:16$3"/><line x1="7.5" x2="17.5" y1="15" y2="15" class="cell_$eq$Data_Memory.v:16$3"/><g s:x="2" s:y="5" s:pid="A"/><g s:x="2" s:y="20" s:pid="B"/><g s:x="25" s:y="12.5" s:pid="Y"/></g><g s:type="generic" transform="translate(289,405)" s:width="30" s:height="40" id="cell_$memrd$\Data_MEM$Data_Memory.v:16$6"><text x="15" y="-4" class="nodelabel cell_$memrd$\Data_MEM$Data_Memory.v:16$6" s:attribute="ref">$memrd-bus</text><rect width="30" height="60" s:generic="body" fill="#ffae46" rx="0" class="cell_$memrd$\Data_MEM$Data_Memory.v:16$6"/><g transform="translate(0,10)" s:x="0" s:y="10" s:pid="in0" id="port_$memrd$\Data_MEM$Data_Memory.v:16$6~ADDR"><text x="-3" y="-4" class="inputPortLabel cell_$memrd$\Data_MEM$Data_Memory.v:16$6">ADDR</text></g><g transform="translate(0,30)" s:x="0" s:y="10" s:pid="in0" id="port_$memrd$\Data_MEM$Data_Memory.v:16$6~CLK"><text x="-3" y="-4" class="inputPortLabel cell_$memrd$\Data_MEM$Data_Memory.v:16$6">CLK</text></g><g transform="translate(0,50)" s:x="0" s:y="10" s:pid="in0" id="port_$memrd$\Data_MEM$Data_Memory.v:16$6~EN"><text x="-3" y="-4" class="inputPortLabel cell_$memrd$\Data_MEM$Data_Memory.v:16$6">EN</text></g><g transform="translate(30,10)" s:x="30" s:y="10" s:pid="out0" id="port_$memrd$\Data_MEM$Data_Memory.v:16$6~DATA"><text x="5" y="-4" style="fill:#000; stroke:none" class="cell_$memrd$\Data_MEM$Data_Memory.v:16$6">DATA</text></g></g><g s:type="dff" transform="translate(755.5,93)" s:width="30" s:height="40" id="cell_$procdff$24"><s:alias val="$dff"/><s:alias val="$_DFF_"/><s:alias val="$_DFF_P_"/><s:alias val="dff-bus"/><s:alias val="$dff-bus"/><s:alias val="$_DFF_-bus"/><s:alias val="$_DFF_P_-bus"/><rect width="30" height="40" x="0" y="0" fill="#ffef8b" class="cell_$procdff$24"/><path d="M0,35 L5,30 L0,25" class="cell_$procdff$24"/><g s:x="31" s:y="10" s:pid="Q"/><g s:x="-1" s:y="30" s:pid="CLK"/><g s:x="-1" s:y="30" s:pid="C"/><g s:x="-1" s:y="10" s:pid="D"/></g><g s:type="dff" transform="translate(755.5,310.5)" s:width="30" s:height="40" id="cell_$procdff$25"><s:alias val="$dff"/><s:alias val="$_DFF_"/><s:alias val="$_DFF_P_"/><s:alias val="dff-bus"/><s:alias val="$dff-bus"/><s:alias val="$_DFF_-bus"/><s:alias val="$_DFF_P_-bus"/><rect width="30" height="40" x="0" y="0" fill="#ffef8b" class="cell_$procdff$25"/><path d="M0,35 L5,30 L0,25" class="cell_$procdff$25"/><g s:x="31" s:y="10" s:pid="Q"/><g s:x="-1" s:y="30" s:pid="CLK"/><g s:x="-1" s:y="30" s:pid="C"/><g s:x="-1" s:y="10" s:pid="D"/></g><g s:type="dff" transform="translate(755.5,12)" s:width="30" s:height="40" id="cell_$procdff$26"><s:alias val="$dff"/><s:alias val="$_DFF_"/><s:alias val="$_DFF_P_"/><s:alias val="dff-bus"/><s:alias val="$dff-bus"/><s:alias val="$_DFF_-bus"/><s:alias val="$_DFF_P_-bus"/><rect width="30" height="40" x="0" y="0" fill="#ffef8b" class="cell_$procdff$26"/><path d="M0,35 L5,30 L0,25" class="cell_$procdff$26"/><g s:x="31" s:y="10" s:pid="Q"/><g s:x="-1" s:y="30" s:pid="CLK"/><g s:x="-1" s:y="30" s:pid="C"/><g s:x="-1" s:y="10" s:pid="D"/></g><g s:type="mux-bus" transform="translate(600,228.5)" s:width="24" s:height="40" id="cell_$procmux$16"><s:alias val="$pmux-bus"/><s:alias val="$mux-bus"/><s:alias val="$_MUX_-bus"/><path d="M8,2 L8,0 L24,8 L24,32 L8,40 L8,38" fill="#ffffff" class="cell_$procmux$16"/><path d="M4,2 L4,0 L22,9 L22,31 L4,40 L4,38" fill="#ffffff" class="cell_$procmux$16"/><path d="M0,0 L20,10 L20,30 L0,40 Z" fill="#ffffff" class="cell_$procmux$16"/><text x="5" y="32" class="nodelabel cell_$procmux$16" s:attribute="">1</text><text x="5" y="13" class="nodelabel cell_$procmux$16" s:attribute="">0</text><g s:x="-1" s:y="10" s:pid="A"/><g s:x="-1" s:y="30" s:pid="B"/><g s:x="12" s:y="38" s:pid="S"/><g s:x="24.5" s:y="20" s:pid="Y"/></g><g s:type="mux-bus" transform="translate(600,300.5)" s:width="24" s:height="40" id="cell_$procmux$19"><s:alias val="$pmux-bus"/><s:alias val="$mux-bus"/><s:alias val="$_MUX_-bus"/><path d="M8,2 L8,0 L24,8 L24,32 L8,40 L8,38" fill="#ffffff" class="cell_$procmux$19"/><path d="M4,2 L4,0 L22,9 L22,31 L4,40 L4,38" fill="#ffffff" class="cell_$procmux$19"/><path d="M0,0 L20,10 L20,30 L0,40 Z" fill="#ffffff" class="cell_$procmux$19"/><text x="5" y="32" class="nodelabel cell_$procmux$19" s:attribute="">1</text><text x="5" y="13" class="nodelabel cell_$procmux$19" s:attribute="">0</text><g s:x="-1" s:y="10" s:pid="A"/><g s:x="-1" s:y="30" s:pid="B"/><g s:x="12" s:y="38" s:pid="S"/><g s:x="24.5" s:y="20" s:pid="Y"/></g><g s:type="mux-bus" transform="translate(600,42)" s:width="24" s:height="40" id="cell_$procmux$22"><s:alias val="$pmux-bus"/><s:alias val="$mux-bus"/><s:alias val="$_MUX_-bus"/><path d="M8,2 L8,0 L24,8 L24,32 L8,40 L8,38" fill="#ffffff" class="cell_$procmux$22"/><path d="M4,2 L4,0 L22,9 L22,31 L4,40 L4,38" fill="#ffffff" class="cell_$procmux$22"/><path d="M0,0 L20,10 L20,30 L0,40 Z" fill="#ffffff" class="cell_$procmux$22"/><text x="5" y="32" class="nodelabel cell_$procmux$22" s:attribute="">1</text><text x="5" y="13" class="nodelabel cell_$procmux$22" s:attribute="">0</text><g s:x="-1" s:y="10" s:pid="A"/><g s:x="-1" s:y="30" s:pid="B"/><g s:x="12" s:y="38" s:pid="S"/><g s:x="24.5" s:y="20" s:pid="Y"/></g><g s:type="mux-bus" transform="translate(600,385.5)" s:width="24" s:height="40" id="cell_$ternary$Data_Memory.v:16$7"><s:alias val="$pmux-bus"/><s:alias val="$mux-bus"/><s:alias val="$_MUX_-bus"/><path d="M8,2 L8,0 L24,8 L24,32 L8,40 L8,38" fill="#ffffff" class="cell_$ternary$Data_Memory.v:16$7"/><path d="M4,2 L4,0 L22,9 L22,31 L4,40 L4,38" fill="#ffffff" class="cell_$ternary$Data_Memory.v:16$7"/><path d="M0,0 L20,10 L20,30 L0,40 Z" fill="#ffffff" class="cell_$ternary$Data_Memory.v:16$7"/><text x="5" y="32" class="nodelabel cell_$ternary$Data_Memory.v:16$7" s:attribute="">1</text><text x="5" y="13" class="nodelabel cell_$ternary$Data_Memory.v:16$7" s:attribute="">0</text><g s:x="-1" s:y="10" s:pid="A"/><g s:x="-1" s:y="30" s:pid="B"/><g s:x="12" s:y="38" s:pid="S"/><g s:x="24.5" s:y="20" s:pid="Y"/></g><g s:type="inputExt" transform="translate(127,62)" s:width="30" s:height="20" id="cell_A"><text x="15" y="-4" class="nodelabel cell_A" s:attribute="ref">A</text><s:alias val="$_inputExt_"/><path d="M0,0 L0,20 L15,20 L30,10 L15,0 Z" fill="#8bcaff" class="cell_A"/><g s:x="30" s:y="10" s:pid="Y"/></g><g s:type="inputExt" transform="translate(62,504.5)" s:width="30" s:height="20" id="cell_WD"><text x="15" y="-4" class="nodelabel cell_WD" s:attribute="ref">WD</text><s:alias val="$_inputExt_"/><path d="M0,0 L0,20 L15,20 L30,10 L15,0 Z" fill="#8bcaff" class="cell_WD"/><g s:x="30" s:y="10" s:pid="Y"/></g><g s:type="inputExt" transform="translate(127,365.5)" s:width="30" s:height="20" id="cell_WE"><text x="15" y="-4" class="nodelabel cell_WE" s:attribute="ref">WE</text><s:alias val="$_inputExt_"/><path d="M0,0 L0,20 L15,20 L30,10 L15,0 Z" fill="#8bcaff" class="cell_WE"/><g s:x="30" s:y="10" s:pid="Y"/></g><g s:type="inputExt" transform="translate(12,22)" s:width="30" s:height="20" id="cell_RE"><text x="15" y="-4" class="nodelabel cell_RE" s:attribute="ref">RE</text><s:alias val="$_inputExt_"/><path d="M0,0 L0,20 L15,20 L30,10 L15,0 Z" fill="#8bcaff" class="cell_RE"/><g s:x="30" s:y="10" s:pid="Y"/></g><g s:type="inputExt" transform="translate(659.5,113)" s:width="30" s:height="20" id="cell_clk"><text x="15" y="-4" class="nodelabel cell_clk" s:attribute="ref">clk</text><s:alias val="$_inputExt_"/><path d="M0,0 L0,20 L15,20 L30,10 L15,0 Z" fill="#8bcaff" class="cell_clk"/><g s:x="30" s:y="10" s:pid="Y"/></g><g s:type="outputExt" transform="translate(755.5,395.5)" s:width="30" s:height="20" id="cell_RD"><text x="15" y="-4" class="nodelabel cell_RD" s:attribute="ref">RD</text><s:alias val="$_outputExt_"/><path d="M30,0 L30,20 L15,20 L0,10 L15,0 Z" fill="#169300" class="cell_RD"/><g s:x="0" s:y="10" s:pid="A"/></g><g s:type="inputExt" transform="translate(289,618)" s:width="30" s:height="20" id="cell_rst"><text x="15" y="-4" class="nodelabel cell_rst" s:attribute="ref">rst</text><s:alias val="$_inputExt_"/><path d="M0,0 L0,20 L15,20 L30,10 L15,0 Z" fill="#8bcaff" class="cell_rst"/><g s:x="30" s:y="10" s:pid="Y"/></g><g s:type="constant" transform="translate(127,565.5)" s:width="30" s:height="20" id="cell_1"><text x="15" y="-4" class="nodelabel cell_1" s:attribute="ref">1</text><s:alias val="$_constant_"/><rect width="30" height="20" fill="#745bff" class="cell_1"/><g s:x="31" s:y="10" s:pid="Y"/></g><g s:type="constant" transform="translate(198,445.5)" s:width="30" s:height="20" id="cell_x"><text x="15" y="-4" class="nodelabel cell_x" s:attribute="ref">x</text><s:alias val="$_constant_"/><rect width="30" height="20" fill="#745bff" class="cell_x"/><g s:x="31" s:y="10" s:pid="Y"/></g><g s:type="constant" transform="translate(289,299.5)" s:width="30" s:height="20" id="cell_0000000000000000"><text x="15" y="-4" class="nodelabel cell_0000000000000000" s:attribute="ref">0x0</text><s:alias val="$_constant_"/><rect width="30" height="20" fill="#745bff" class="cell_0000000000000000"/><g s:x="31" s:y="10" s:pid="Y"/></g><g s:type="constant" transform="translate(289,248.5)" s:width="30" s:height="20" id="cell_1111111111111111"><text x="15" y="-4" class="nodelabel cell_1111111111111111" s:attribute="ref">0xffff</text><s:alias val="$_constant_"/><rect width="30" height="20" fill="#745bff" class="cell_1111111111111111"/><g s:x="31" s:y="10" s:pid="Y"/></g><g s:type="constant" transform="translate(289,183.5)" s:width="30" s:height="20" id="cell_xxxxxxxxxxxxxxxx"><text x="15" y="-4" class="nodelabel cell_xxxxxxxxxxxxxxxx" s:attribute="ref">0xNaN</text><s:alias val="$_constant_"/><rect width="30" height="20" fill="#745bff" class="cell_xxxxxxxxxxxxxxxx"/><g s:x="31" s:y="10" s:pid="Y"/></g><line x1="226" x2="239" y1="510.5" y2="510.5" class="net_54 width_1" style="stroke-width: 1"/><line x1="239" x2="239" y1="510.5" y2="553" class="net_54 width_1" style="stroke-width: 1"/><line x1="239" x2="340.66666666666663" y1="553" y2="553" class="net_54 width_1" style="stroke-width: 1"/><line x1="225.33333333333334" x2="340.66666666666663" y1="568" y2="568" class="net_55 width_1" style="stroke-width: 1"/><line x1="370.66666666666663" x2="509" y1="560.5" y2="560.5" class="net_56 width_1" style="stroke-width: 1"/><line x1="509" x2="509" y1="560.5" y2="613" class="net_56 width_1" style="stroke-width: 1"/><line x1="509" x2="534" y1="613" y2="613" class="net_56 width_1" style="stroke-width: 1"/><line x1="319" x2="534" y1="628" y2="628" class="net_53 width_1" style="stroke-width: 1"/><line x1="624.5" x2="699.5" y1="62" y2="62" class="net_58,59,60,61,62,63,64,65,66,67,68,69,70,71,72,73 width_16" style="stroke-width: 2"/><line x1="699.5" x2="699.5" y1="62" y2="188.5" class="net_58,59,60,61,62,63,64,65,66,67,68,69,70,71,72,73 width_16" style="stroke-width: 2"/><line x1="699.5" x2="755.5" y1="188.5" y2="188.5" class="net_58,59,60,61,62,63,64,65,66,67,68,69,70,71,72,73 width_16" style="stroke-width: 2"/><line x1="624.5" x2="644.5" y1="62" y2="62" class="net_58,59,60,61,62,63,64,65,66,67,68,69,70,71,72,73 width_16" style="stroke-width: 2"/><line x1="644.5" x2="644.5" y1="62" y2="42" class="net_58,59,60,61,62,63,64,65,66,67,68,69,70,71,72,73 width_16" style="stroke-width: 2"/><line x1="644.5" x2="709.5" y1="42" y2="42" class="net_58,59,60,61,62,63,64,65,66,67,68,69,70,71,72,73 width_16" style="stroke-width: 2"/><line x1="709.5" x2="709.5" y1="42" y2="103" class="net_58,59,60,61,62,63,64,65,66,67,68,69,70,71,72,73 width_16" style="stroke-width: 2"/><circle cx="644.5" cy="62" r="3" style="fill:#000" class="net_58,59,60,61,62,63,64,65,66,67,68,69,70,71,72,73 width_16"/><line x1="709.5" x2="754.5" y1="103" y2="103" class="net_58,59,60,61,62,63,64,65,66,67,68,69,70,71,72,73 width_16" style="stroke-width: 2"/><line x1="689.5" x2="719.5" y1="123" y2="123" class="net_36 width_1" style="stroke-width: 1"/><line x1="719.5" x2="719.5" y1="123" y2="208.5" class="net_36 width_1" style="stroke-width: 1"/><circle cx="719.5" cy="123" r="2" style="fill:#000" class="net_36 width_1"/><circle cx="719.5" cy="208.5" r="2" style="fill:#000" class="net_36 width_1"/><line x1="719.5" x2="754.5" y1="208.5" y2="208.5" class="net_36 width_1" style="stroke-width: 1"/><line x1="689.5" x2="754.5" y1="123" y2="123" class="net_36 width_1" style="stroke-width: 1"/><line x1="689.5" x2="719.5" y1="123" y2="123" class="net_36 width_1" style="stroke-width: 1"/><line x1="719.5" x2="719.5" y1="123" y2="340.5" class="net_36 width_1" style="stroke-width: 1"/><line x1="719.5" x2="754.5" y1="340.5" y2="340.5" class="net_36 width_1" style="stroke-width: 1"/><line x1="689.5" x2="719.5" y1="123" y2="123" class="net_36 width_1" style="stroke-width: 1"/><line x1="719.5" x2="719.5" y1="123" y2="42" class="net_36 width_1" style="stroke-width: 1"/><line x1="719.5" x2="754.5" y1="42" y2="42" class="net_36 width_1" style="stroke-width: 1"/><line x1="624.5" x2="644.5" y1="320.5" y2="320.5" class="net_74,75,76,77,78,79,80,81,82,83,84,85,86,87,88,89 width_16" style="stroke-width: 2"/><line x1="644.5" x2="644.5" y1="320.5" y2="228.5" class="net_74,75,76,77,78,79,80,81,82,83,84,85,86,87,88,89 width_16" style="stroke-width: 2"/><circle cx="644.5" cy="320.5" r="3" style="fill:#000" class="net_74,75,76,77,78,79,80,81,82,83,84,85,86,87,88,89 width_16"/><line x1="644.5" x2="754.5" y1="228.5" y2="228.5" class="net_74,75,76,77,78,79,80,81,82,83,84,85,86,87,88,89 width_16" style="stroke-width: 2"/><line x1="624.5" x2="754.5" y1="320.5" y2="320.5" class="net_74,75,76,77,78,79,80,81,82,83,84,85,86,87,88,89 width_16" style="stroke-width: 2"/><line x1="624.5" x2="754.5" y1="248.5" y2="248.5" class="net_90,91,92,93,94,95,96,97,98,99,100,101,102,103,104,105 width_16" style="stroke-width: 2"/><line x1="624.5" x2="634.5" y1="248.5" y2="248.5" class="net_90,91,92,93,94,95,96,97,98,99,100,101,102,103,104,105 width_16" style="stroke-width: 2"/><line x1="634.5" x2="634.5" y1="248.5" y2="22" class="net_90,91,92,93,94,95,96,97,98,99,100,101,102,103,104,105 width_16" style="stroke-width: 2"/><circle cx="634.5" cy="248.5" r="3" style="fill:#000" class="net_90,91,92,93,94,95,96,97,98,99,100,101,102,103,104,105 width_16"/><line x1="634.5" x2="754.5" y1="22" y2="22" class="net_90,91,92,93,94,95,96,97,98,99,100,101,102,103,104,105 width_16" style="stroke-width: 2"/><line x1="157" x2="178" y1="375.5" y2="375.5" class="net_34 width_1" style="stroke-width: 1"/><line x1="178" x2="178" y1="375.5" y2="510.5" class="net_34 width_1" style="stroke-width: 1"/><circle cx="178" cy="375.5" r="2" style="fill:#000" class="net_34 width_1"/><line x1="178" x2="198" y1="510.5" y2="510.5" class="net_34 width_1" style="stroke-width: 1"/><line x1="157" x2="178" y1="375.5" y2="375.5" class="net_34 width_1" style="stroke-width: 1"/><line x1="178" x2="178" y1="375.5" y2="278.5" class="net_34 width_1" style="stroke-width: 1"/><line x1="178" x2="612" y1="278.5" y2="278.5" class="net_34 width_1" style="stroke-width: 1"/><line x1="612" x2="612" y1="278.5" y2="266.5" class="net_34 width_1" style="stroke-width: 1"/><line x1="157" x2="612" y1="375.5" y2="375.5" class="net_34 width_1" style="stroke-width: 1"/><line x1="612" x2="612" y1="375.5" y2="338.5" class="net_34 width_1" style="stroke-width: 1"/><line x1="157" x2="178" y1="375.5" y2="375.5" class="net_34 width_1" style="stroke-width: 1"/><line x1="178" x2="178" y1="375.5" y2="278.5" class="net_34 width_1" style="stroke-width: 1"/><line x1="178" x2="239" y1="278.5" y2="278.5" class="net_34 width_1" style="stroke-width: 1"/><line x1="239" x2="239" y1="278.5" y2="162.5" class="net_34 width_1" style="stroke-width: 1"/><line x1="239" x2="612" y1="162.5" y2="162.5" class="net_34 width_1" style="stroke-width: 1"/><circle cx="239" cy="278.5" r="2" style="fill:#000" class="net_34 width_1"/><line x1="612" x2="612" y1="162.5" y2="80" class="net_34 width_1" style="stroke-width: 1"/><line x1="92" x2="168" y1="514.5" y2="514.5" class="net_18,19,20,21,22,23,24,25,26,27,28,29,30,31,32,33 width_16" style="stroke-width: 2"/><line x1="168" x2="168" y1="514.5" y2="560.5" class="net_18,19,20,21,22,23,24,25,26,27,28,29,30,31,32,33 width_16" style="stroke-width: 2"/><line x1="168" x2="202.33333333333334" y1="560.5" y2="560.5" class="net_18,19,20,21,22,23,24,25,26,27,28,29,30,31,32,33 width_16" style="stroke-width: 2"/><line x1="92" x2="102" y1="514.5" y2="514.5" class="net_18,19,20,21,22,23,24,25,26,27,28,29,30,31,32,33 width_16" style="stroke-width: 2"/><line x1="102" x2="102" y1="514.5" y2="330.5" class="net_18,19,20,21,22,23,24,25,26,27,28,29,30,31,32,33 width_16" style="stroke-width: 2"/><circle cx="102" cy="514.5" r="3" style="fill:#000" class="net_18,19,20,21,22,23,24,25,26,27,28,29,30,31,32,33 width_16"/><line x1="102" x2="599" y1="330.5" y2="330.5" class="net_18,19,20,21,22,23,24,25,26,27,28,29,30,31,32,33 width_16" style="stroke-width: 2"/><line x1="158" x2="202.33333333333334" y1="575.5" y2="575.5" class="net_170 width_1" style="stroke-width: 1"/><line x1="157" x2="188" y1="72" y2="72" class="net_2,3,4,5,6,7,8,9,10,11,12,13,14,15,16,17 width_16" style="stroke-width: 2"/><line x1="188" x2="188" y1="72" y2="394.5" class="net_2,3,4,5,6,7,8,9,10,11,12,13,14,15,16,17 width_16" style="stroke-width: 2"/><line x1="188" x2="239" y1="394.5" y2="394.5" class="net_2,3,4,5,6,7,8,9,10,11,12,13,14,15,16,17 width_16" style="stroke-width: 2"/><line x1="239" x2="239" y1="394.5" y2="415.5" class="net_2,3,4,5,6,7,8,9,10,11,12,13,14,15,16,17 width_16" style="stroke-width: 2"/><circle cx="188" cy="72" r="3" style="fill:#000" class="net_2,3,4,5,6,7,8,9,10,11,12,13,14,15,16,17 width_16"/><line x1="239" x2="289" y1="415.5" y2="415.5" class="net_2,3,4,5,6,7,8,9,10,11,12,13,14,15,16,17 width_16" style="stroke-width: 2"/><line x1="157" x2="599" y1="72" y2="72" class="net_2,3,4,5,6,7,8,9,10,11,12,13,14,15,16,17 width_16" style="stroke-width: 2"/><line x1="229" x2="239" y1="455.5" y2="455.5" class="net_171 width_1" style="stroke-width: 1"/><line x1="239" x2="239" y1="455.5" y2="435.5" class="net_171 width_1" style="stroke-width: 1"/><circle cx="239" cy="455.5" r="2" style="fill:#000" class="net_171 width_1"/><line x1="239" x2="288" y1="435.5" y2="435.5" class="net_171 width_1" style="stroke-width: 1"/><line x1="229" x2="288" y1="455.5" y2="455.5" class="net_171 width_1" style="stroke-width: 1"/><line x1="320" x2="509" y1="309.5" y2="309.5" class="net_173,174,175,176,177,178,179,180,181,182,183,184,185,186,187,188 width_16" style="stroke-width: 2"/><line x1="509" x2="509" y1="309.5" y2="238.5" class="net_173,174,175,176,177,178,179,180,181,182,183,184,185,186,187,188 width_16" style="stroke-width: 2"/><circle cx="509" cy="309.5" r="3" style="fill:#000" class="net_173,174,175,176,177,178,179,180,181,182,183,184,185,186,187,188 width_16"/><line x1="509" x2="599" y1="238.5" y2="238.5" class="net_173,174,175,176,177,178,179,180,181,182,183,184,185,186,187,188 width_16" style="stroke-width: 2"/><line x1="320" x2="509" y1="309.5" y2="309.5" class="net_173,174,175,176,177,178,179,180,181,182,183,184,185,186,187,188 width_16" style="stroke-width: 2"/><line x1="509" x2="509" y1="309.5" y2="395.5" class="net_173,174,175,176,177,178,179,180,181,182,183,184,185,186,187,188 width_16" style="stroke-width: 2"/><line x1="509" x2="599" y1="395.5" y2="395.5" class="net_173,174,175,176,177,178,179,180,181,182,183,184,185,186,187,188 width_16" style="stroke-width: 2"/><line x1="320" x2="599" y1="258.5" y2="258.5" class="net_189,190,191,192,193,194,195,196,197,198,199,200,201,202,203,204 width_16" style="stroke-width: 2"/><line x1="320" x2="519" y1="193.5" y2="193.5" class="net_205,206,207,208,209,210,211,212,213,214,215,216,217,218,219,220 width_16" style="stroke-width: 2"/><line x1="519" x2="519" y1="193.5" y2="310.5" class="net_205,206,207,208,209,210,211,212,213,214,215,216,217,218,219,220 width_16" style="stroke-width: 2"/><circle cx="519" cy="193.5" r="3" style="fill:#000" class="net_205,206,207,208,209,210,211,212,213,214,215,216,217,218,219,220 width_16"/><line x1="519" x2="599" y1="310.5" y2="310.5" class="net_205,206,207,208,209,210,211,212,213,214,215,216,217,218,219,220 width_16" style="stroke-width: 2"/><line x1="320" x2="519" y1="193.5" y2="193.5" class="net_205,206,207,208,209,210,211,212,213,214,215,216,217,218,219,220 width_16" style="stroke-width: 2"/><line x1="519" x2="519" y1="193.5" y2="52" class="net_205,206,207,208,209,210,211,212,213,214,215,216,217,218,219,220 width_16" style="stroke-width: 2"/><line x1="519" x2="599" y1="52" y2="52" class="net_205,206,207,208,209,210,211,212,213,214,215,216,217,218,219,220 width_16" style="stroke-width: 2"/><line x1="320" x2="599" y1="415.5" y2="415.5" class="net_106,107,108,109,110,111,112,113,114,115,116,117,118,119,120,121 width_16" style="stroke-width: 2"/><line x1="564" x2="612" y1="620.5" y2="620.5" class="net_57 width_1" style="stroke-width: 1"/><line x1="612" x2="612" y1="620.5" y2="423.5" class="net_57 width_1" style="stroke-width: 1"/><line x1="624.5" x2="755.5" y1="405.5" y2="405.5" class="net_37,38,39,40,41,42,43,44,45,46,47,48,49,50,51,52 width_16" style="stroke-width: 2"/><rect x="673.5" y="37" width="22" height="9" class="net_58,59,60,61,62,63,64,65,66,67,68,69,70,71,72,73 width_16 busLabel_16" style="fill: white; stroke: none"/><text x="672.5" y="45" class="net_58,59,60,61,62,63,64,65,66,67,68,69,70,71,72,73 width_16 busLabel_16">/16/</text><rect x="673.5" y="37" width="22" height="9" class="net_58,59,60,61,62,63,64,65,66,67,68,69,70,71,72,73 width_16 busLabel_16" style="fill: white; stroke: none"/><text x="672.5" y="45" class="net_58,59,60,61,62,63,64,65,66,67,68,69,70,71,72,73 width_16 busLabel_16">/16/</text><rect x="673.5" y="315.5" width="22" height="9" class="net_74,75,76,77,78,79,80,81,82,83,84,85,86,87,88,89 width_16 busLabel_16" style="fill: white; stroke: none"/><text x="672.5" y="323.5" class="net_74,75,76,77,78,79,80,81,82,83,84,85,86,87,88,89 width_16 busLabel_16">/16/</text><rect x="673.5" y="315.5" width="22" height="9" class="net_74,75,76,77,78,79,80,81,82,83,84,85,86,87,88,89 width_16 busLabel_16" style="fill: white; stroke: none"/><text x="672.5" y="323.5" class="net_74,75,76,77,78,79,80,81,82,83,84,85,86,87,88,89 width_16 busLabel_16">/16/</text><rect x="673.5" y="17" width="22" height="9" class="net_90,91,92,93,94,95,96,97,98,99,100,101,102,103,104,105 width_16 busLabel_16" style="fill: white; stroke: none"/><text x="672.5" y="25" class="net_90,91,92,93,94,95,96,97,98,99,100,101,102,103,104,105 width_16 busLabel_16">/16/</text><rect x="673.5" y="17" width="22" height="9" class="net_90,91,92,93,94,95,96,97,98,99,100,101,102,103,104,105 width_16 busLabel_16" style="fill: white; stroke: none"/><text x="672.5" y="25" class="net_90,91,92,93,94,95,96,97,98,99,100,101,102,103,104,105 width_16 busLabel_16">/16/</text><rect x="212.5" y="325.5" width="22" height="9" class="net_18,19,20,21,22,23,24,25,26,27,28,29,30,31,32,33 width_16 busLabel_16" style="fill: white; stroke: none"/><text x="211.5" y="333.5" class="net_18,19,20,21,22,23,24,25,26,27,28,29,30,31,32,33 width_16 busLabel_16">/16/</text><rect x="212.5" y="325.5" width="22" height="9" class="net_18,19,20,21,22,23,24,25,26,27,28,29,30,31,32,33 width_16 busLabel_16" style="fill: white; stroke: none"/><text x="211.5" y="333.5" class="net_18,19,20,21,22,23,24,25,26,27,28,29,30,31,32,33 width_16 busLabel_16">/16/</text><rect x="380.5" y="67" width="22" height="9" class="net_2,3,4,5,6,7,8,9,10,11,12,13,14,15,16,17 width_16 busLabel_16" style="fill: white; stroke: none"/><text x="379.5" y="75" class="net_2,3,4,5,6,7,8,9,10,11,12,13,14,15,16,17 width_16 busLabel_16">/16/</text><rect x="380.5" y="67" width="22" height="9" class="net_2,3,4,5,6,7,8,9,10,11,12,13,14,15,16,17 width_16 busLabel_16" style="fill: white; stroke: none"/><text x="379.5" y="75" class="net_2,3,4,5,6,7,8,9,10,11,12,13,14,15,16,17 width_16 busLabel_16">/16/</text><rect x="548" y="390.5" width="22" height="9" class="net_173,174,175,176,177,178,179,180,181,182,183,184,185,186,187,188 width_16 busLabel_16" style="fill: white; stroke: none"/><text x="547" y="398.5" class="net_173,174,175,176,177,178,179,180,181,182,183,184,185,186,187,188 width_16 busLabel_16">/16/</text><rect x="548" y="390.5" width="22" height="9" class="net_173,174,175,176,177,178,179,180,181,182,183,184,185,186,187,188 width_16 busLabel_16" style="fill: white; stroke: none"/><text x="547" y="398.5" class="net_173,174,175,176,177,178,179,180,181,182,183,184,185,186,187,188 width_16 busLabel_16">/16/</text><rect x="548" y="253.5" width="22" height="9" class="net_189,190,191,192,193,194,195,196,197,198,199,200,201,202,203,204 width_16 busLabel_16" style="fill: white; stroke: none"/><text x="547" y="261.5" class="net_189,190,191,192,193,194,195,196,197,198,199,200,201,202,203,204 width_16 busLabel_16">/16/</text><rect x="548" y="47" width="22" height="9" class="net_205,206,207,208,209,210,211,212,213,214,215,216,217,218,219,220 width_16 busLabel_16" style="fill: white; stroke: none"/><text x="547" y="55" class="net_205,206,207,208,209,210,211,212,213,214,215,216,217,218,219,220 width_16 busLabel_16">/16/</text><rect x="548" y="47" width="22" height="9" class="net_205,206,207,208,209,210,211,212,213,214,215,216,217,218,219,220 width_16 busLabel_16" style="fill: white; stroke: none"/><text x="547" y="55" class="net_205,206,207,208,209,210,211,212,213,214,215,216,217,218,219,220 width_16 busLabel_16">/16/</text><rect x="548" y="410.5" width="22" height="9" class="net_106,107,108,109,110,111,112,113,114,115,116,117,118,119,120,121 width_16 busLabel_16" style="fill: white; stroke: none"/><text x="547" y="418.5" class="net_106,107,108,109,110,111,112,113,114,115,116,117,118,119,120,121 width_16 busLabel_16">/16/</text><rect x="673.5" y="400.5" width="22" height="9" class="net_37,38,39,40,41,42,43,44,45,46,47,48,49,50,51,52 width_16 busLabel_16" style="fill: white; stroke: none"/><text x="672.5" y="408.5" class="net_37,38,39,40,41,42,43,44,45,46,47,48,49,50,51,52 width_16 busLabel_16">/16/</text></svg>