<?xml version="1.0" encoding="UTF-8" standalone="no"?>
<!DOCTYPE svg PUBLIC "-//W3C//DTD SVG 1.1//EN"
 "http://www.w3.org/Graphics/SVG/1.1/DTD/svg11.dtd">
<!-- Generated by graphviz version 2.40.1 (20161225.0304)
 -->
<!-- Title: %0 Pages: 1 -->
<svg width="1213pt" height="188pt"
 viewBox="0.00 0.00 1213.41 188.00" xmlns="http://www.w3.org/2000/svg" xmlns:xlink="http://www.w3.org/1999/xlink">
<g id="graph0" class="graph" transform="scale(1 1) rotate(0) translate(4 184)">
<title>%0</title>
<polygon fill="#ffffff" stroke="transparent" points="-4,4 -4,-184 1209.4081,-184 1209.4081,4 -4,4"/>
<!-- /home/baymax/Air&#45;Uni&#45;EE/Single&#45;Cycle&#45;16Bit&#45;MIPS&#45;OMR/Single&#45;Cycle&#45;16Bit&#45;MIPS&#45;OMR/Sign_Extender.v -->
<g id="node1" class="node">
<title>/home/baymax/Air&#45;Uni&#45;EE/Single&#45;Cycle&#45;16Bit&#45;MIPS&#45;OMR/Single&#45;Cycle&#45;16Bit&#45;MIPS&#45;OMR/Sign_Extender.v</title>
<polygon fill="#d3d3d3" stroke="#069302" points="118.5501,-36 .1497,-36 .1497,-32 -3.8503,-32 -3.8503,-28 .1497,-28 .1497,-8 -3.8503,-8 -3.8503,-4 .1497,-4 .1497,0 118.5501,0 118.5501,-36"/>
<polyline fill="none" stroke="#069302" points=".1497,-32 4.1497,-32 4.1497,-28 .1497,-28 "/>
<polyline fill="none" stroke="#069302" points=".1497,-8 4.1497,-8 4.1497,-4 .1497,-4 "/>
<text text-anchor="middle" x="59.3499" y="-13.8" font-family="Helvetica,sans-Serif" font-size="14.00" fill="#000000">Sign_Extender.v</text>
</g>
<!-- /home/baymax/Air&#45;Uni&#45;EE/Single&#45;Cycle&#45;16Bit&#45;MIPS&#45;OMR/Single&#45;Cycle&#45;16Bit&#45;MIPS&#45;OMR/Register_File.v -->
<g id="node2" class="node">
<title>/home/baymax/Air&#45;Uni&#45;EE/Single&#45;Cycle&#45;16Bit&#45;MIPS&#45;OMR/Single&#45;Cycle&#45;16Bit&#45;MIPS&#45;OMR/Register_File.v</title>
<polygon fill="#d3d3d3" stroke="#069302" points="246.1842,-36 136.5156,-36 136.5156,-32 132.5156,-32 132.5156,-28 136.5156,-28 136.5156,-8 132.5156,-8 132.5156,-4 136.5156,-4 136.5156,0 246.1842,0 246.1842,-36"/>
<polyline fill="none" stroke="#069302" points="136.5156,-32 140.5156,-32 140.5156,-28 136.5156,-28 "/>
<polyline fill="none" stroke="#069302" points="136.5156,-8 140.5156,-8 140.5156,-4 136.5156,-4 "/>
<text text-anchor="middle" x="191.3499" y="-13.8" font-family="Helvetica,sans-Serif" font-size="14.00" fill="#000000">Register_File.v</text>
</g>
<!-- /home/baymax/Air&#45;Uni&#45;EE/Single&#45;Cycle&#45;16Bit&#45;MIPS&#45;OMR/Single&#45;Cycle&#45;16Bit&#45;MIPS&#45;OMR/Program_Counter.v -->
<g id="node3" class="node">
<title>/home/baymax/Air&#45;Uni&#45;EE/Single&#45;Cycle&#45;16Bit&#45;MIPS&#45;OMR/Single&#45;Cycle&#45;16Bit&#45;MIPS&#45;OMR/Program_Counter.v</title>
<polygon fill="#d3d3d3" stroke="#069302" points="402.4776,-36 264.2222,-36 264.2222,-32 260.2222,-32 260.2222,-28 264.2222,-28 264.2222,-8 260.2222,-8 260.2222,-4 264.2222,-4 264.2222,0 402.4776,0 402.4776,-36"/>
<polyline fill="none" stroke="#069302" points="264.2222,-32 268.2222,-32 268.2222,-28 264.2222,-28 "/>
<polyline fill="none" stroke="#069302" points="264.2222,-8 268.2222,-8 268.2222,-4 264.2222,-4 "/>
<text text-anchor="middle" x="333.3499" y="-13.8" font-family="Helvetica,sans-Serif" font-size="14.00" fill="#000000">Program_Counter.v</text>
</g>
<!-- /home/baymax/Air&#45;Uni&#45;EE/Single&#45;Cycle&#45;16Bit&#45;MIPS&#45;OMR/Single&#45;Cycle&#45;16Bit&#45;MIPS&#45;OMR/PC_Adder.v -->
<g id="node4" class="node">
<title>/home/baymax/Air&#45;Uni&#45;EE/Single&#45;Cycle&#45;16Bit&#45;MIPS&#45;OMR/Single&#45;Cycle&#45;16Bit&#45;MIPS&#45;OMR/PC_Adder.v</title>
<polygon fill="#d3d3d3" stroke="#069302" points="512.3125,-36 420.3873,-36 420.3873,-32 416.3873,-32 416.3873,-28 420.3873,-28 420.3873,-8 416.3873,-8 416.3873,-4 420.3873,-4 420.3873,0 512.3125,0 512.3125,-36"/>
<polyline fill="none" stroke="#069302" points="420.3873,-32 424.3873,-32 424.3873,-28 420.3873,-28 "/>
<polyline fill="none" stroke="#069302" points="420.3873,-8 424.3873,-8 424.3873,-4 420.3873,-4 "/>
<text text-anchor="middle" x="466.3499" y="-13.8" font-family="Helvetica,sans-Serif" font-size="14.00" fill="#000000">PC_Adder.v</text>
</g>
<!-- /home/baymax/Air&#45;Uni&#45;EE/Single&#45;Cycle&#45;16Bit&#45;MIPS&#45;OMR/Single&#45;Cycle&#45;16Bit&#45;MIPS&#45;OMR/Mux.v -->
<g id="node5" class="node">
<title>/home/baymax/Air&#45;Uni&#45;EE/Single&#45;Cycle&#45;16Bit&#45;MIPS&#45;OMR/Single&#45;Cycle&#45;16Bit&#45;MIPS&#45;OMR/Mux.v</title>
<polygon fill="#d3d3d3" stroke="#069302" points="584.3499,-36 530.3499,-36 530.3499,-32 526.3499,-32 526.3499,-28 530.3499,-28 530.3499,-8 526.3499,-8 526.3499,-4 530.3499,-4 530.3499,0 584.3499,0 584.3499,-36"/>
<polyline fill="none" stroke="#069302" points="530.3499,-32 534.3499,-32 534.3499,-28 530.3499,-28 "/>
<polyline fill="none" stroke="#069302" points="530.3499,-8 534.3499,-8 534.3499,-4 530.3499,-4 "/>
<text text-anchor="middle" x="557.3499" y="-13.8" font-family="Helvetica,sans-Serif" font-size="14.00" fill="#000000">Mux.v</text>
</g>
<!-- /home/baymax/Air&#45;Uni&#45;EE/Single&#45;Cycle&#45;16Bit&#45;MIPS&#45;OMR/Single&#45;Cycle&#45;16Bit&#45;MIPS&#45;OMR/Instruction_Memory.v -->
<g id="node6" class="node">
<title>/home/baymax/Air&#45;Uni&#45;EE/Single&#45;Cycle&#45;16Bit&#45;MIPS&#45;OMR/Single&#45;Cycle&#45;16Bit&#45;MIPS&#45;OMR/Instruction_Memory.v</title>
<polygon fill="#d3d3d3" stroke="#069302" points="752.1396,-36 602.5602,-36 602.5602,-32 598.5602,-32 598.5602,-28 602.5602,-28 602.5602,-8 598.5602,-8 598.5602,-4 602.5602,-4 602.5602,0 752.1396,0 752.1396,-36"/>
<polyline fill="none" stroke="#069302" points="602.5602,-32 606.5602,-32 606.5602,-28 602.5602,-28 "/>
<polyline fill="none" stroke="#069302" points="602.5602,-8 606.5602,-8 606.5602,-4 602.5602,-4 "/>
<text text-anchor="middle" x="677.3499" y="-13.8" font-family="Helvetica,sans-Serif" font-size="14.00" fill="#000000">Instruction_Memory.v</text>
</g>
<!-- /home/baymax/Air&#45;Uni&#45;EE/Single&#45;Cycle&#45;16Bit&#45;MIPS&#45;OMR/Single&#45;Cycle&#45;16Bit&#45;MIPS&#45;OMR/Data_Memory.v -->
<g id="node7" class="node">
<title>/home/baymax/Air&#45;Uni&#45;EE/Single&#45;Cycle&#45;16Bit&#45;MIPS&#45;OMR/Single&#45;Cycle&#45;16Bit&#45;MIPS&#45;OMR/Data_Memory.v</title>
<polygon fill="#d3d3d3" stroke="#069302" points="884.6327,-36 770.0671,-36 770.0671,-32 766.0671,-32 766.0671,-28 770.0671,-28 770.0671,-8 766.0671,-8 766.0671,-4 770.0671,-4 770.0671,0 884.6327,0 884.6327,-36"/>
<polyline fill="none" stroke="#069302" points="770.0671,-32 774.0671,-32 774.0671,-28 770.0671,-28 "/>
<polyline fill="none" stroke="#069302" points="770.0671,-8 774.0671,-8 774.0671,-4 770.0671,-4 "/>
<text text-anchor="middle" x="827.3499" y="-13.8" font-family="Helvetica,sans-Serif" font-size="14.00" fill="#000000">Data_Memory.v</text>
</g>
<!-- /home/baymax/Air&#45;Uni&#45;EE/Single&#45;Cycle&#45;16Bit&#45;MIPS&#45;OMR/Single&#45;Cycle&#45;16Bit&#45;MIPS&#45;OMR/Control_Unit.v -->
<g id="node8" class="node">
<title>/home/baymax/Air&#45;Uni&#45;EE/Single&#45;Cycle&#45;16Bit&#45;MIPS&#45;OMR/Single&#45;Cycle&#45;16Bit&#45;MIPS&#45;OMR/Control_Unit.v</title>
<polygon fill="#d3d3d3" stroke="#069302" points="1007.5222,-36 903.1776,-36 903.1776,-32 899.1776,-32 899.1776,-28 903.1776,-28 903.1776,-8 899.1776,-8 899.1776,-4 903.1776,-4 903.1776,0 1007.5222,0 1007.5222,-36"/>
<polyline fill="none" stroke="#069302" points="903.1776,-32 907.1776,-32 907.1776,-28 903.1776,-28 "/>
<polyline fill="none" stroke="#069302" points="903.1776,-8 907.1776,-8 907.1776,-4 903.1776,-4 "/>
<text text-anchor="middle" x="955.3499" y="-13.8" font-family="Helvetica,sans-Serif" font-size="14.00" fill="#000000">Control_Unit.v</text>
</g>
<!-- /home/baymax/Air&#45;Uni&#45;EE/Single&#45;Cycle&#45;16Bit&#45;MIPS&#45;OMR/Single&#45;Cycle&#45;16Bit&#45;MIPS&#45;OMR/ALU_Control.v -->
<g id="node9" class="node">
<title>/home/baymax/Air&#45;Uni&#45;EE/Single&#45;Cycle&#45;16Bit&#45;MIPS&#45;OMR/Single&#45;Cycle&#45;16Bit&#45;MIPS&#45;OMR/ALU_Control.v</title>
<polygon fill="#d3d3d3" stroke="#069302" points="1132.8611,-36 1025.8387,-36 1025.8387,-32 1021.8387,-32 1021.8387,-28 1025.8387,-28 1025.8387,-8 1021.8387,-8 1021.8387,-4 1025.8387,-4 1025.8387,0 1132.8611,0 1132.8611,-36"/>
<polyline fill="none" stroke="#069302" points="1025.8387,-32 1029.8387,-32 1029.8387,-28 1025.8387,-28 "/>
<polyline fill="none" stroke="#069302" points="1025.8387,-8 1029.8387,-8 1029.8387,-4 1025.8387,-4 "/>
<text text-anchor="middle" x="1079.3499" y="-13.8" font-family="Helvetica,sans-Serif" font-size="14.00" fill="#000000">ALU_Control.v</text>
</g>
<!-- /home/baymax/Air&#45;Uni&#45;EE/Single&#45;Cycle&#45;16Bit&#45;MIPS&#45;OMR/Single&#45;Cycle&#45;16Bit&#45;MIPS&#45;OMR/ALU.v -->
<g id="node10" class="node">
<title>/home/baymax/Air&#45;Uni&#45;EE/Single&#45;Cycle&#45;16Bit&#45;MIPS&#45;OMR/Single&#45;Cycle&#45;16Bit&#45;MIPS&#45;OMR/ALU.v</title>
<polygon fill="#d3d3d3" stroke="#069302" points="1205.4664,-36 1151.2334,-36 1151.2334,-32 1147.2334,-32 1147.2334,-28 1151.2334,-28 1151.2334,-8 1147.2334,-8 1147.2334,-4 1151.2334,-4 1151.2334,0 1205.4664,0 1205.4664,-36"/>
<polyline fill="none" stroke="#069302" points="1151.2334,-32 1155.2334,-32 1155.2334,-28 1151.2334,-28 "/>
<polyline fill="none" stroke="#069302" points="1151.2334,-8 1155.2334,-8 1155.2334,-4 1151.2334,-4 "/>
<text text-anchor="middle" x="1178.3499" y="-13.8" font-family="Helvetica,sans-Serif" font-size="14.00" fill="#000000">ALU.v</text>
</g>
<!-- /home/baymax/Air&#45;Uni&#45;EE/Single&#45;Cycle&#45;16Bit&#45;MIPS&#45;OMR/Single&#45;Cycle&#45;16Bit&#45;MIPS&#45;OMR/Single_Cycle_Top.v -->
<g id="node11" class="node">
<title>/home/baymax/Air&#45;Uni&#45;EE/Single&#45;Cycle&#45;16Bit&#45;MIPS&#45;OMR/Single&#45;Cycle&#45;16Bit&#45;MIPS&#45;OMR/Single_Cycle_Top.v</title>
<polygon fill="#d3d3d3" stroke="#069302" points="687.8177,-108 546.8821,-108 546.8821,-104 542.8821,-104 542.8821,-100 546.8821,-100 546.8821,-80 542.8821,-80 542.8821,-76 546.8821,-76 546.8821,-72 687.8177,-72 687.8177,-108"/>
<polyline fill="none" stroke="#069302" points="546.8821,-104 550.8821,-104 550.8821,-100 546.8821,-100 "/>
<polyline fill="none" stroke="#069302" points="546.8821,-80 550.8821,-80 550.8821,-76 546.8821,-76 "/>
<text text-anchor="middle" x="617.3499" y="-85.8" font-family="Helvetica,sans-Serif" font-size="14.00" fill="#000000">Single_Cycle_Top.v</text>
</g>
<!-- /home/baymax/Air&#45;Uni&#45;EE/Single&#45;Cycle&#45;16Bit&#45;MIPS&#45;OMR/Single&#45;Cycle&#45;16Bit&#45;MIPS&#45;OMR/Single_Cycle_Top.v&#45;&gt;/home/baymax/Air&#45;Uni&#45;EE/Single&#45;Cycle&#45;16Bit&#45;MIPS&#45;OMR/Single&#45;Cycle&#45;16Bit&#45;MIPS&#45;OMR/Sign_Extender.v -->
<g id="edge2" class="edge">
<title>/home/baymax/Air&#45;Uni&#45;EE/Single&#45;Cycle&#45;16Bit&#45;MIPS&#45;OMR/Single&#45;Cycle&#45;16Bit&#45;MIPS&#45;OMR/Single_Cycle_Top.v&#45;&gt;/home/baymax/Air&#45;Uni&#45;EE/Single&#45;Cycle&#45;16Bit&#45;MIPS&#45;OMR/Single&#45;Cycle&#45;16Bit&#45;MIPS&#45;OMR/Sign_Extender.v</title>
<path fill="none" stroke="#000000" d="M547.0849,-85.5612C453.5542,-78.9186 282.957,-64.2471 128.7055,-36.1051"/>
<polygon fill="#000000" stroke="#000000" points="129.0394,-32.6076 118.5699,-34.2319 127.7672,-39.4911 129.0394,-32.6076"/>
</g>
<!-- /home/baymax/Air&#45;Uni&#45;EE/Single&#45;Cycle&#45;16Bit&#45;MIPS&#45;OMR/Single&#45;Cycle&#45;16Bit&#45;MIPS&#45;OMR/Single_Cycle_Top.v&#45;&gt;/home/baymax/Air&#45;Uni&#45;EE/Single&#45;Cycle&#45;16Bit&#45;MIPS&#45;OMR/Single&#45;Cycle&#45;16Bit&#45;MIPS&#45;OMR/Register_File.v -->
<g id="edge6" class="edge">
<title>/home/baymax/Air&#45;Uni&#45;EE/Single&#45;Cycle&#45;16Bit&#45;MIPS&#45;OMR/Single&#45;Cycle&#45;16Bit&#45;MIPS&#45;OMR/Single_Cycle_Top.v&#45;&gt;/home/baymax/Air&#45;Uni&#45;EE/Single&#45;Cycle&#45;16Bit&#45;MIPS&#45;OMR/Single&#45;Cycle&#45;16Bit&#45;MIPS&#45;OMR/Register_File.v</title>
<path fill="none" stroke="#000000" d="M546.8037,-82.1488C475.7202,-73.6338 362.7848,-58.4591 256.0282,-35.9987"/>
<polygon fill="#000000" stroke="#000000" points="256.559,-32.5333 246.0493,-33.8738 255.1011,-39.3798 256.559,-32.5333"/>
</g>
<!-- /home/baymax/Air&#45;Uni&#45;EE/Single&#45;Cycle&#45;16Bit&#45;MIPS&#45;OMR/Single&#45;Cycle&#45;16Bit&#45;MIPS&#45;OMR/Single_Cycle_Top.v&#45;&gt;/home/baymax/Air&#45;Uni&#45;EE/Single&#45;Cycle&#45;16Bit&#45;MIPS&#45;OMR/Single&#45;Cycle&#45;16Bit&#45;MIPS&#45;OMR/Program_Counter.v -->
<g id="edge9" class="edge">
<title>/home/baymax/Air&#45;Uni&#45;EE/Single&#45;Cycle&#45;16Bit&#45;MIPS&#45;OMR/Single&#45;Cycle&#45;16Bit&#45;MIPS&#45;OMR/Single_Cycle_Top.v&#45;&gt;/home/baymax/Air&#45;Uni&#45;EE/Single&#45;Cycle&#45;16Bit&#45;MIPS&#45;OMR/Single&#45;Cycle&#45;16Bit&#45;MIPS&#45;OMR/Program_Counter.v</title>
<path fill="none" stroke="#000000" d="M546.7828,-72.1097C506.0239,-61.7765 454.648,-48.7516 412.5161,-38.0703"/>
<polygon fill="#000000" stroke="#000000" points="413.125,-34.614 402.5715,-35.5491 411.4047,-41.3994 413.125,-34.614"/>
</g>
<!-- /home/baymax/Air&#45;Uni&#45;EE/Single&#45;Cycle&#45;16Bit&#45;MIPS&#45;OMR/Single&#45;Cycle&#45;16Bit&#45;MIPS&#45;OMR/Single_Cycle_Top.v&#45;&gt;/home/baymax/Air&#45;Uni&#45;EE/Single&#45;Cycle&#45;16Bit&#45;MIPS&#45;OMR/Single&#45;Cycle&#45;16Bit&#45;MIPS&#45;OMR/PC_Adder.v -->
<g id="edge8" class="edge">
<title>/home/baymax/Air&#45;Uni&#45;EE/Single&#45;Cycle&#45;16Bit&#45;MIPS&#45;OMR/Single&#45;Cycle&#45;16Bit&#45;MIPS&#45;OMR/Single_Cycle_Top.v&#45;&gt;/home/baymax/Air&#45;Uni&#45;EE/Single&#45;Cycle&#45;16Bit&#45;MIPS&#45;OMR/Single&#45;Cycle&#45;16Bit&#45;MIPS&#45;OMR/PC_Adder.v</title>
<path fill="none" stroke="#000000" d="M579.2462,-71.8314C559.2304,-62.2874 534.5232,-50.5065 513.3305,-40.4013"/>
<polygon fill="#000000" stroke="#000000" points="514.7124,-37.1828 504.1796,-36.038 511.6996,-43.5013 514.7124,-37.1828"/>
</g>
<!-- /home/baymax/Air&#45;Uni&#45;EE/Single&#45;Cycle&#45;16Bit&#45;MIPS&#45;OMR/Single&#45;Cycle&#45;16Bit&#45;MIPS&#45;OMR/Single_Cycle_Top.v&#45;&gt;/home/baymax/Air&#45;Uni&#45;EE/Single&#45;Cycle&#45;16Bit&#45;MIPS&#45;OMR/Single&#45;Cycle&#45;16Bit&#45;MIPS&#45;OMR/Mux.v -->
<g id="edge7" class="edge">
<title>/home/baymax/Air&#45;Uni&#45;EE/Single&#45;Cycle&#45;16Bit&#45;MIPS&#45;OMR/Single&#45;Cycle&#45;16Bit&#45;MIPS&#45;OMR/Single_Cycle_Top.v&#45;&gt;/home/baymax/Air&#45;Uni&#45;EE/Single&#45;Cycle&#45;16Bit&#45;MIPS&#45;OMR/Single&#45;Cycle&#45;16Bit&#45;MIPS&#45;OMR/Mux.v</title>
<path fill="none" stroke="#000000" d="M602.2094,-71.8314C595.2282,-63.454 586.8108,-53.3531 579.1623,-44.1749"/>
<polygon fill="#000000" stroke="#000000" points="581.785,-41.8548 572.6943,-36.4133 576.4074,-46.3362 581.785,-41.8548"/>
</g>
<!-- /home/baymax/Air&#45;Uni&#45;EE/Single&#45;Cycle&#45;16Bit&#45;MIPS&#45;OMR/Single&#45;Cycle&#45;16Bit&#45;MIPS&#45;OMR/Single_Cycle_Top.v&#45;&gt;/home/baymax/Air&#45;Uni&#45;EE/Single&#45;Cycle&#45;16Bit&#45;MIPS&#45;OMR/Single&#45;Cycle&#45;16Bit&#45;MIPS&#45;OMR/Instruction_Memory.v -->
<g id="edge4" class="edge">
<title>/home/baymax/Air&#45;Uni&#45;EE/Single&#45;Cycle&#45;16Bit&#45;MIPS&#45;OMR/Single&#45;Cycle&#45;16Bit&#45;MIPS&#45;OMR/Single_Cycle_Top.v&#45;&gt;/home/baymax/Air&#45;Uni&#45;EE/Single&#45;Cycle&#45;16Bit&#45;MIPS&#45;OMR/Single&#45;Cycle&#45;16Bit&#45;MIPS&#45;OMR/Instruction_Memory.v</title>
<path fill="none" stroke="#000000" d="M632.4904,-71.8314C639.4716,-63.454 647.889,-53.3531 655.5375,-44.1749"/>
<polygon fill="#000000" stroke="#000000" points="658.2924,-46.3362 662.0055,-36.4133 652.9148,-41.8548 658.2924,-46.3362"/>
</g>
<!-- /home/baymax/Air&#45;Uni&#45;EE/Single&#45;Cycle&#45;16Bit&#45;MIPS&#45;OMR/Single&#45;Cycle&#45;16Bit&#45;MIPS&#45;OMR/Single_Cycle_Top.v&#45;&gt;/home/baymax/Air&#45;Uni&#45;EE/Single&#45;Cycle&#45;16Bit&#45;MIPS&#45;OMR/Single&#45;Cycle&#45;16Bit&#45;MIPS&#45;OMR/Data_Memory.v -->
<g id="edge10" class="edge">
<title>/home/baymax/Air&#45;Uni&#45;EE/Single&#45;Cycle&#45;16Bit&#45;MIPS&#45;OMR/Single&#45;Cycle&#45;16Bit&#45;MIPS&#45;OMR/Single_Cycle_Top.v&#45;&gt;/home/baymax/Air&#45;Uni&#45;EE/Single&#45;Cycle&#45;16Bit&#45;MIPS&#45;OMR/Single&#45;Cycle&#45;16Bit&#45;MIPS&#45;OMR/Data_Memory.v</title>
<path fill="none" stroke="#000000" d="M670.0707,-71.9243C698.9037,-62.0387 734.798,-49.7321 765.013,-39.3726"/>
<polygon fill="#000000" stroke="#000000" points="766.2831,-42.6373 774.6074,-36.0831 764.0128,-36.0156 766.2831,-42.6373"/>
</g>
<!-- /home/baymax/Air&#45;Uni&#45;EE/Single&#45;Cycle&#45;16Bit&#45;MIPS&#45;OMR/Single&#45;Cycle&#45;16Bit&#45;MIPS&#45;OMR/Single_Cycle_Top.v&#45;&gt;/home/baymax/Air&#45;Uni&#45;EE/Single&#45;Cycle&#45;16Bit&#45;MIPS&#45;OMR/Single&#45;Cycle&#45;16Bit&#45;MIPS&#45;OMR/Control_Unit.v -->
<g id="edge1" class="edge">
<title>/home/baymax/Air&#45;Uni&#45;EE/Single&#45;Cycle&#45;16Bit&#45;MIPS&#45;OMR/Single&#45;Cycle&#45;16Bit&#45;MIPS&#45;OMR/Single_Cycle_Top.v&#45;&gt;/home/baymax/Air&#45;Uni&#45;EE/Single&#45;Cycle&#45;16Bit&#45;MIPS&#45;OMR/Single&#45;Cycle&#45;16Bit&#45;MIPS&#45;OMR/Control_Unit.v</title>
<path fill="none" stroke="#000000" d="M687.7727,-78.0132C741.4731,-68.4602 817.4171,-54.0668 893.2764,-35.9037"/>
<polygon fill="#000000" stroke="#000000" points="894.1094,-39.3033 903.0077,-33.5526 892.4654,-32.4991 894.1094,-39.3033"/>
</g>
<!-- /home/baymax/Air&#45;Uni&#45;EE/Single&#45;Cycle&#45;16Bit&#45;MIPS&#45;OMR/Single&#45;Cycle&#45;16Bit&#45;MIPS&#45;OMR/Single_Cycle_Top.v&#45;&gt;/home/baymax/Air&#45;Uni&#45;EE/Single&#45;Cycle&#45;16Bit&#45;MIPS&#45;OMR/Single&#45;Cycle&#45;16Bit&#45;MIPS&#45;OMR/ALU_Control.v -->
<g id="edge5" class="edge">
<title>/home/baymax/Air&#45;Uni&#45;EE/Single&#45;Cycle&#45;16Bit&#45;MIPS&#45;OMR/Single&#45;Cycle&#45;16Bit&#45;MIPS&#45;OMR/Single_Cycle_Top.v&#45;&gt;/home/baymax/Air&#45;Uni&#45;EE/Single&#45;Cycle&#45;16Bit&#45;MIPS&#45;OMR/Single&#45;Cycle&#45;16Bit&#45;MIPS&#45;OMR/ALU_Control.v</title>
<path fill="none" stroke="#000000" d="M687.7844,-83.5608C765.7258,-75.741 895.1174,-60.7045 1015.3994,-36.034"/>
<polygon fill="#000000" stroke="#000000" points="1016.4422,-39.3922 1025.5208,-33.9305 1015.0178,-32.5387 1016.4422,-39.3922"/>
</g>
<!-- /home/baymax/Air&#45;Uni&#45;EE/Single&#45;Cycle&#45;16Bit&#45;MIPS&#45;OMR/Single&#45;Cycle&#45;16Bit&#45;MIPS&#45;OMR/Single_Cycle_Top.v&#45;&gt;/home/baymax/Air&#45;Uni&#45;EE/Single&#45;Cycle&#45;16Bit&#45;MIPS&#45;OMR/Single&#45;Cycle&#45;16Bit&#45;MIPS&#45;OMR/ALU.v -->
<g id="edge3" class="edge">
<title>/home/baymax/Air&#45;Uni&#45;EE/Single&#45;Cycle&#45;16Bit&#45;MIPS&#45;OMR/Single&#45;Cycle&#45;16Bit&#45;MIPS&#45;OMR/Single_Cycle_Top.v&#45;&gt;/home/baymax/Air&#45;Uni&#45;EE/Single&#45;Cycle&#45;16Bit&#45;MIPS&#45;OMR/Single&#45;Cycle&#45;16Bit&#45;MIPS&#45;OMR/ALU.v</title>
<path fill="none" stroke="#000000" d="M687.8617,-85.9007C806.6363,-78.4888 1042.5373,-61.4613 1141.5427,-35.5246"/>
<polygon fill="#000000" stroke="#000000" points="1142.5546,-38.876 1151.2486,-32.8208 1140.6761,-32.1328 1142.5546,-38.876"/>
</g>
<!-- /home/baymax/Air&#45;Uni&#45;EE/Single&#45;Cycle&#45;16Bit&#45;MIPS&#45;OMR/Single&#45;Cycle&#45;16Bit&#45;MIPS&#45;OMR/Single_Cycle_Top_tb.v -->
<g id="node12" class="node">
<title>/home/baymax/Air&#45;Uni&#45;EE/Single&#45;Cycle&#45;16Bit&#45;MIPS&#45;OMR/Single&#45;Cycle&#45;16Bit&#45;MIPS&#45;OMR/Single_Cycle_Top_tb.v</title>
<polygon fill="#d3d3d3" stroke="#069302" points="697.2727,-180 537.4271,-180 537.4271,-176 533.4271,-176 533.4271,-172 537.4271,-172 537.4271,-152 533.4271,-152 533.4271,-148 537.4271,-148 537.4271,-144 697.2727,-144 697.2727,-180"/>
<polyline fill="none" stroke="#069302" points="537.4271,-176 541.4271,-176 541.4271,-172 537.4271,-172 "/>
<polyline fill="none" stroke="#069302" points="537.4271,-152 541.4271,-152 541.4271,-148 537.4271,-148 "/>
<text text-anchor="middle" x="617.3499" y="-157.8" font-family="Helvetica,sans-Serif" font-size="14.00" fill="#000000">Single_Cycle_Top_tb.v</text>
</g>
<!-- /home/baymax/Air&#45;Uni&#45;EE/Single&#45;Cycle&#45;16Bit&#45;MIPS&#45;OMR/Single&#45;Cycle&#45;16Bit&#45;MIPS&#45;OMR/Single_Cycle_Top_tb.v&#45;&gt;/home/baymax/Air&#45;Uni&#45;EE/Single&#45;Cycle&#45;16Bit&#45;MIPS&#45;OMR/Single&#45;Cycle&#45;16Bit&#45;MIPS&#45;OMR/Single_Cycle_Top.v -->
<g id="edge11" class="edge">
<title>/home/baymax/Air&#45;Uni&#45;EE/Single&#45;Cycle&#45;16Bit&#45;MIPS&#45;OMR/Single&#45;Cycle&#45;16Bit&#45;MIPS&#45;OMR/Single_Cycle_Top_tb.v&#45;&gt;/home/baymax/Air&#45;Uni&#45;EE/Single&#45;Cycle&#45;16Bit&#45;MIPS&#45;OMR/Single&#45;Cycle&#45;16Bit&#45;MIPS&#45;OMR/Single_Cycle_Top.v</title>
<path fill="none" stroke="#000000" d="M617.3499,-143.8314C617.3499,-136.131 617.3499,-126.9743 617.3499,-118.4166"/>
<polygon fill="#000000" stroke="#000000" points="620.85,-118.4132 617.3499,-108.4133 613.85,-118.4133 620.85,-118.4132"/>
</g>
</g>
</svg>
