<svg xmlns="http://www.w3.org/2000/svg" xmlns:xlink="http://www.w3.org/1999/xlink" xmlns:s="https://github.com/nturley/netlistsvg" width="308.5" height="180"><style>svg {
  stroke:#000;
  fill:none;
}
text {
  fill:#000;
  stroke:none;
  font-size:10px;
  font-weight: bold;
  font-family: "Courier New", monospace;
}
line {
    stroke-linecap: round;
}
.nodelabel {
  text-anchor: middle;
}
.inputPortLabel {
  text-anchor: end;
}
.splitjoinBody {
  fill:#000;
}</style><g s:type="not" transform="translate(266.5,148)" s:width="30" s:height="20" id="cell_$not$Mux.v:10$1"><s:alias val="$_NOT_"/><s:alias val="$not"/><s:alias val="$logic_not"/><path d="M0,0 L0,20 L20,10 Z" fill="#eebaff" class="cell_$not$Mux.v:10$1"/><circle cx="24" cy="10" r="3" fill="#eebaff" class="cell_$not$Mux.v:10$1"/><g s:x="-1" s:y="10" s:pid="A"/><g s:x="27" s:y="10" s:pid="Y"/></g><g s:type="mux-bus" transform="translate(167,67)" s:width="24" s:height="40" id="cell_$ternary$Mux.v:10$2"><s:alias val="$pmux-bus"/><s:alias val="$mux-bus"/><s:alias val="$_MUX_-bus"/><path d="M8,2 L8,0 L24,8 L24,32 L8,40 L8,38" fill="#ffffff" class="cell_$ternary$Mux.v:10$2"/><path d="M4,2 L4,0 L22,9 L22,31 L4,40 L4,38" fill="#ffffff" class="cell_$ternary$Mux.v:10$2"/><path d="M0,0 L20,10 L20,30 L0,40 Z" fill="#ffffff" class="cell_$ternary$Mux.v:10$2"/><text x="5" y="32" class="nodelabel cell_$ternary$Mux.v:10$2" s:attribute="">1</text><text x="5" y="13" class="nodelabel cell_$ternary$Mux.v:10$2" s:attribute="">0</text><g s:x="-1" s:y="10" s:pid="A"/><g s:x="-1" s:y="30" s:pid="B"/><g s:x="12" s:y="38" s:pid="S"/><g s:x="24.5" s:y="20" s:pid="Y"/></g><g s:type="inputExt" transform="translate(12,22)" s:width="30" s:height="20" id="cell_In1"><text x="15" y="-4" class="nodelabel cell_In1" s:attribute="ref">In1</text><s:alias val="$_inputExt_"/><path d="M0,0 L0,20 L15,20 L30,10 L15,0 Z" fill="#8bcaff" class="cell_In1"/><g s:x="30" s:y="10" s:pid="Y"/></g><g s:type="inputExt" transform="translate(12,87)" s:width="30" s:height="20" id="cell_In2"><text x="15" y="-4" class="nodelabel cell_In2" s:attribute="ref">In2</text><s:alias val="$_inputExt_"/><path d="M0,0 L0,20 L15,20 L30,10 L15,0 Z" fill="#8bcaff" class="cell_In2"/><g s:x="30" s:y="10" s:pid="Y"/></g><g s:type="inputExt" transform="translate(77,148)" s:width="30" s:height="20" id="cell_Selection"><text x="15" y="-4" class="nodelabel cell_Selection" s:attribute="ref">Selection</text><s:alias val="$_inputExt_"/><path d="M0,0 L0,20 L15,20 L30,10 L15,0 Z" fill="#8bcaff" class="cell_Selection"/><g s:x="30" s:y="10" s:pid="Y"/></g><g s:type="outputExt" transform="translate(266.5,77)" s:width="30" s:height="20" id="cell_Out"><text x="15" y="-4" class="nodelabel cell_Out" s:attribute="ref">Out</text><s:alias val="$_outputExt_"/><path d="M30,0 L30,20 L15,20 L0,10 L15,0 Z" fill="#169300" class="cell_Out"/><g s:x="0" s:y="10" s:pid="A"/></g><line x1="107" x2="265.5" y1="158" y2="158" class="net_34 width_1" style="stroke-width: 1"/><line x1="107" x2="141" y1="158" y2="158" class="net_34 width_1" style="stroke-width: 1"/><line x1="141" x2="141" y1="158" y2="148" class="net_34 width_1" style="stroke-width: 1"/><line x1="141" x2="179" y1="148" y2="148" class="net_34 width_1" style="stroke-width: 1"/><circle cx="141" cy="158" r="2" style="fill:#000" class="net_34 width_1"/><line x1="179" x2="179" y1="148" y2="105" class="net_34 width_1" style="stroke-width: 1"/><line x1="42" x2="141" y1="32" y2="32" class="net_2,3,4,5,6,7,8,9,10,11,12,13,14,15,16,17 width_16" style="stroke-width: 2"/><line x1="141" x2="141" y1="32" y2="77" class="net_2,3,4,5,6,7,8,9,10,11,12,13,14,15,16,17 width_16" style="stroke-width: 2"/><line x1="141" x2="166" y1="77" y2="77" class="net_2,3,4,5,6,7,8,9,10,11,12,13,14,15,16,17 width_16" style="stroke-width: 2"/><line x1="42" x2="166" y1="97" y2="97" class="net_18,19,20,21,22,23,24,25,26,27,28,29,30,31,32,33 width_16" style="stroke-width: 2"/><line x1="191.5" x2="266.5" y1="87" y2="87" class="net_35,36,37,38,39,40,41,42,43,44,45,46,47,48,49,50 width_16" style="stroke-width: 2"/><rect x="103" y="27" width="22" height="9" class="net_2,3,4,5,6,7,8,9,10,11,12,13,14,15,16,17 width_16 busLabel_16" style="fill: white; stroke: none"/><text x="102" y="35" class="net_2,3,4,5,6,7,8,9,10,11,12,13,14,15,16,17 width_16 busLabel_16">/16/</text><rect x="103" y="92" width="22" height="9" class="net_18,19,20,21,22,23,24,25,26,27,28,29,30,31,32,33 width_16 busLabel_16" style="fill: white; stroke: none"/><text x="102" y="100" class="net_18,19,20,21,22,23,24,25,26,27,28,29,30,31,32,33 width_16 busLabel_16">/16/</text><rect x="227.5" y="82" width="22" height="9" class="net_35,36,37,38,39,40,41,42,43,44,45,46,47,48,49,50 width_16 busLabel_16" style="fill: white; stroke: none"/><text x="226.5" y="90" class="net_35,36,37,38,39,40,41,42,43,44,45,46,47,48,49,50 width_16 busLabel_16">/16/</text></svg>