<svg xmlns="http://www.w3.org/2000/svg" xmlns:xlink="http://www.w3.org/1999/xlink" xmlns:s="https://github.com/nturley/netlistsvg" width="428.5" height="190"><style>svg {
  stroke:#000;
  fill:none;
}
text {
  fill:#000;
  stroke:none;
  font-size:10px;
  font-weight: bold;
  font-family: "Courier New", monospace;
}
line {
    stroke-linecap: round;
}
.nodelabel {
  text-anchor: middle;
}
.inputPortLabel {
  text-anchor: end;
}
.splitjoinBody {
  fill:#000;
}</style><g s:type="not" transform="translate(386.5,158)" s:width="30" s:height="20" id="cell_$eq$Program_Counter.v:9$2"><s:alias val="$_NOT_"/><s:alias val="$not"/><s:alias val="$logic_not"/><path d="M0,0 L0,20 L20,10 Z" fill="#eebaff" class="cell_$eq$Program_Counter.v:9$2"/><circle cx="24" cy="10" r="3" fill="#eebaff" class="cell_$eq$Program_Counter.v:9$2"/><g s:x="-1" s:y="10" s:pid="A"/><g s:x="27" s:y="10" s:pid="Y"/></g><g s:type="dff" transform="translate(280.5,32)" s:width="30" s:height="40" id="cell_$procdff$6"><s:alias val="$dff"/><s:alias val="$_DFF_"/><s:alias val="$_DFF_P_"/><s:alias val="dff-bus"/><s:alias val="$dff-bus"/><s:alias val="$_DFF_-bus"/><s:alias val="$_DFF_P_-bus"/><rect width="30" height="40" x="0" y="0" fill="#ffef8b" class="cell_$procdff$6"/><path d="M0,35 L5,30 L0,25" class="cell_$procdff$6"/><g s:x="31" s:y="10" s:pid="Q"/><g s:x="-1" s:y="30" s:pid="CLK"/><g s:x="-1" s:y="30" s:pid="C"/><g s:x="-1" s:y="10" s:pid="D"/></g><g s:type="mux-bus" transform="translate(155,22)" s:width="24" s:height="40" id="cell_$procmux$4"><s:alias val="$pmux-bus"/><s:alias val="$mux-bus"/><s:alias val="$_MUX_-bus"/><path d="M8,2 L8,0 L24,8 L24,32 L8,40 L8,38" fill="#ffffff" class="cell_$procmux$4"/><path d="M4,2 L4,0 L22,9 L22,31 L4,40 L4,38" fill="#ffffff" class="cell_$procmux$4"/><path d="M0,0 L20,10 L20,30 L0,40 Z" fill="#ffffff" class="cell_$procmux$4"/><text x="5" y="32" class="nodelabel cell_$procmux$4" s:attribute="">1</text><text x="5" y="13" class="nodelabel cell_$procmux$4" s:attribute="">0</text><g s:x="-1" s:y="10" s:pid="A"/><g s:x="-1" s:y="30" s:pid="B"/><g s:x="12" s:y="38" s:pid="S"/><g s:x="24.5" s:y="20" s:pid="Y"/></g><g s:type="inputExt" transform="translate(12,87)" s:width="30" s:height="20" id="cell_PC_NEXT"><text x="15" y="-4" class="nodelabel cell_PC_NEXT" s:attribute="ref">PC_NEXT</text><s:alias val="$_inputExt_"/><path d="M0,0 L0,20 L15,20 L30,10 L15,0 Z" fill="#8bcaff" class="cell_PC_NEXT"/><g s:x="30" s:y="10" s:pid="Y"/></g><g s:type="outputExt" transform="translate(386.5,32)" s:width="30" s:height="20" id="cell_pc"><text x="15" y="-4" class="nodelabel cell_pc" s:attribute="ref">pc</text><s:alias val="$_outputExt_"/><path d="M30,0 L30,20 L15,20 L0,10 L15,0 Z" fill="#169300" class="cell_pc"/><g s:x="0" s:y="10" s:pid="A"/></g><g s:type="inputExt" transform="translate(89,148)" s:width="30" s:height="20" id="cell_rst"><text x="15" y="-4" class="nodelabel cell_rst" s:attribute="ref">rst</text><s:alias val="$_inputExt_"/><path d="M0,0 L0,20 L15,20 L30,10 L15,0 Z" fill="#8bcaff" class="cell_rst"/><g s:x="30" s:y="10" s:pid="Y"/></g><g s:type="inputExt" transform="translate(214.5,93)" s:width="30" s:height="20" id="cell_clk"><text x="15" y="-4" class="nodelabel cell_clk" s:attribute="ref">clk</text><s:alias val="$_inputExt_"/><path d="M0,0 L0,20 L15,20 L30,10 L15,0 Z" fill="#8bcaff" class="cell_clk"/><g s:x="30" s:y="10" s:pid="Y"/></g><g s:type="constant" transform="translate(12,22)" s:width="30" s:height="20" id="cell_0000000000000000"><text x="15" y="-4" class="nodelabel cell_0000000000000000" s:attribute="ref">0x0</text><s:alias val="$_constant_"/><rect width="30" height="20" fill="#745bff" class="cell_0000000000000000"/><g s:x="31" s:y="10" s:pid="Y"/></g><line x1="119" x2="129" y1="158" y2="158" class="net_34 width_1" style="stroke-width: 1"/><line x1="129" x2="129" y1="158" y2="168" class="net_34 width_1" style="stroke-width: 1"/><circle cx="129" cy="158" r="2" style="fill:#000" class="net_34 width_1"/><line x1="129" x2="385.5" y1="168" y2="168" class="net_34 width_1" style="stroke-width: 1"/><line x1="119" x2="167" y1="158" y2="158" class="net_34 width_1" style="stroke-width: 1"/><line x1="167" x2="167" y1="158" y2="60" class="net_34 width_1" style="stroke-width: 1"/><line x1="244.5" x2="254.5" y1="103" y2="103" class="net_35 width_1" style="stroke-width: 1"/><line x1="254.5" x2="254.5" y1="103" y2="62" class="net_35 width_1" style="stroke-width: 1"/><line x1="254.5" x2="279.5" y1="62" y2="62" class="net_35 width_1" style="stroke-width: 1"/><line x1="179.5" x2="279.5" y1="42" y2="42" class="net_37,38,39,40,41,42,43,44,45,46,47,48,49,50,51,52 width_16" style="stroke-width: 2"/><line x1="43" x2="154" y1="32" y2="32" class="net_53,54,55,56,57,58,59,60,61,62,63,64,65,66,67,68 width_16" style="stroke-width: 2"/><line x1="42" x2="129" y1="97" y2="97" class="net_2,3,4,5,6,7,8,9,10,11,12,13,14,15,16,17 width_16" style="stroke-width: 2"/><line x1="129" x2="129" y1="97" y2="52" class="net_2,3,4,5,6,7,8,9,10,11,12,13,14,15,16,17 width_16" style="stroke-width: 2"/><line x1="129" x2="154" y1="52" y2="52" class="net_2,3,4,5,6,7,8,9,10,11,12,13,14,15,16,17 width_16" style="stroke-width: 2"/><line x1="311.5" x2="386.5" y1="42" y2="42" class="net_18,19,20,21,22,23,24,25,26,27,28,29,30,31,32,33 width_16" style="stroke-width: 2"/><rect x="228.5" y="37" width="22" height="9" class="net_37,38,39,40,41,42,43,44,45,46,47,48,49,50,51,52 width_16 busLabel_16" style="fill: white; stroke: none"/><text x="227.5" y="45" class="net_37,38,39,40,41,42,43,44,45,46,47,48,49,50,51,52 width_16 busLabel_16">/16/</text><rect x="103" y="27" width="22" height="9" class="net_53,54,55,56,57,58,59,60,61,62,63,64,65,66,67,68 width_16 busLabel_16" style="fill: white; stroke: none"/><text x="102" y="35" class="net_53,54,55,56,57,58,59,60,61,62,63,64,65,66,67,68 width_16 busLabel_16">/16/</text><rect x="103" y="92" width="22" height="9" class="net_2,3,4,5,6,7,8,9,10,11,12,13,14,15,16,17 width_16 busLabel_16" style="fill: white; stroke: none"/><text x="102" y="100" class="net_2,3,4,5,6,7,8,9,10,11,12,13,14,15,16,17 width_16 busLabel_16">/16/</text><rect x="347.5" y="37" width="22" height="9" class="net_18,19,20,21,22,23,24,25,26,27,28,29,30,31,32,33 width_16 busLabel_16" style="fill: white; stroke: none"/><text x="346.5" y="45" class="net_18,19,20,21,22,23,24,25,26,27,28,29,30,31,32,33 width_16 busLabel_16">/16/</text></svg>