<svg xmlns="http://www.w3.org/2000/svg" xmlns:xlink="http://www.w3.org/1999/xlink" xmlns:s="https://github.com/nturley/netlistsvg" width="288" height="119"><style>svg {
  stroke:#000;
  fill:none;
}
text {
  fill:#000;
  stroke:none;
  font-size:10px;
  font-weight: bold;
  font-family: "Courier New", monospace;
}
line {
    stroke-linecap: round;
}
.nodelabel {
  text-anchor: middle;
}
.inputPortLabel {
  text-anchor: end;
}
.splitjoinBody {
  fill:#000;
}</style><g s:type="add" transform="translate(140,27)" s:width="25" s:height="25" id="cell_$add$PC_Adder.v:10$1"><s:alias val="$add"/><circle r="12.5" cx="12.5" cy="12.5" fill="#ffc9c3" class="cell_$add$PC_Adder.v:10$1"/><line x1="7.5" x2="17.5" y1="12.5" y2="12.5" class="cell_$add$PC_Adder.v:10$1"/><line x1="12.5" x2="12.5" y1="7.5" y2="17.5" class="cell_$add$PC_Adder.v:10$1"/><g s:x="2" s:y="5" s:pid="A"/><g s:x="2" s:y="20" s:pid="B"/><g s:x="26" s:y="12.5" s:pid="Y"/></g><g s:type="inputExt" transform="translate(12,22)" s:width="30" s:height="20" id="cell_OLD_PC"><text x="15" y="-4" class="nodelabel cell_OLD_PC" s:attribute="ref">OLD_PC</text><s:alias val="$_inputExt_"/><path d="M0,0 L0,20 L15,20 L30,10 L15,0 Z" fill="#8bcaff" class="cell_OLD_PC"/><g s:x="30" s:y="10" s:pid="Y"/></g><g s:type="outputExt" transform="translate(240,29.5)" s:width="30" s:height="20" id="cell_NEW_PC"><text x="15" y="-4" class="nodelabel cell_NEW_PC" s:attribute="ref">NEW_PC</text><s:alias val="$_outputExt_"/><path d="M30,0 L30,20 L15,20 L0,10 L15,0 Z" fill="#169300" class="cell_NEW_PC"/><g s:x="0" s:y="10" s:pid="A"/></g><g s:type="inputExt" transform="translate(12,87)" s:width="30" s:height="20" id="cell_Four16Bit"><text x="15" y="-4" class="nodelabel cell_Four16Bit" s:attribute="ref">Four16Bit</text><s:alias val="$_inputExt_"/><path d="M0,0 L0,20 L15,20 L30,10 L15,0 Z" fill="#8bcaff" class="cell_Four16Bit"/><g s:x="30" s:y="10" s:pid="Y"/></g><line x1="42" x2="142" y1="32" y2="32" class="net_2,3,4,5,6,7,8,9,10,11,12,13,14,15,16,17 width_16" style="stroke-width: 2"/><line x1="42" x2="115" y1="97" y2="97" class="net_34,35,36,37,38,39,40,41,42,43,44,45,46,47,48,49 width_16" style="stroke-width: 2"/><line x1="115" x2="115" y1="97" y2="47" class="net_34,35,36,37,38,39,40,41,42,43,44,45,46,47,48,49 width_16" style="stroke-width: 2"/><line x1="115" x2="142" y1="47" y2="47" class="net_34,35,36,37,38,39,40,41,42,43,44,45,46,47,48,49 width_16" style="stroke-width: 2"/><line x1="166" x2="240" y1="39.5" y2="39.5" class="net_18,19,20,21,22,23,24,25,26,27,28,29,30,31,32,33 width_16" style="stroke-width: 2"/><rect x="102" y="27" width="22" height="9" class="net_2,3,4,5,6,7,8,9,10,11,12,13,14,15,16,17 width_16 busLabel_16" style="fill: white; stroke: none"/><text x="101" y="35" class="net_2,3,4,5,6,7,8,9,10,11,12,13,14,15,16,17 width_16 busLabel_16">/16/</text><rect x="102" y="92" width="22" height="9" class="net_34,35,36,37,38,39,40,41,42,43,44,45,46,47,48,49 width_16 busLabel_16" style="fill: white; stroke: none"/><text x="101" y="100" class="net_34,35,36,37,38,39,40,41,42,43,44,45,46,47,48,49 width_16 busLabel_16">/16/</text><rect x="202" y="34.5" width="22" height="9" class="net_18,19,20,21,22,23,24,25,26,27,28,29,30,31,32,33 width_16 busLabel_16" style="fill: white; stroke: none"/><text x="201" y="42.5" class="net_18,19,20,21,22,23,24,25,26,27,28,29,30,31,32,33 width_16 busLabel_16">/16/</text></svg>