<svg xmlns="http://www.w3.org/2000/svg" xmlns:xlink="http://www.w3.org/1999/xlink" xmlns:s="https://github.com/nturley/netlistsvg" width="511.5" height="215.5"><style>svg {
  stroke:#000;
  fill:none;
}
text {
  fill:#000;
  stroke:none;
  font-size:10px;
  font-weight: bold;
  font-family: "Courier New", monospace;
}
line {
    stroke-linecap: round;
}
.nodelabel {
  text-anchor: middle;
}
.inputPortLabel {
  text-anchor: end;
}
.splitjoinBody {
  fill:#000;
}</style><g s:type="mux-bus" transform="translate(329,24.5)" s:width="24" s:height="40" id="cell_$ternary$Sign_Extender.v:9$1"><s:alias val="$pmux-bus"/><s:alias val="$mux-bus"/><s:alias val="$_MUX_-bus"/><path d="M8,2 L8,0 L24,8 L24,32 L8,40 L8,38" fill="#ffffff" class="cell_$ternary$Sign_Extender.v:9$1"/><path d="M4,2 L4,0 L22,9 L22,31 L4,40 L4,38" fill="#ffffff" class="cell_$ternary$Sign_Extender.v:9$1"/><path d="M0,0 L20,10 L20,30 L0,40 Z" fill="#ffffff" class="cell_$ternary$Sign_Extender.v:9$1"/><text x="5" y="32" class="nodelabel cell_$ternary$Sign_Extender.v:9$1" s:attribute="">1</text><text x="5" y="13" class="nodelabel cell_$ternary$Sign_Extender.v:9$1" s:attribute="">0</text><g s:x="-1" s:y="10" s:pid="A"/><g s:x="-1" s:y="30" s:pid="B"/><g s:x="12" s:y="38" s:pid="S"/><g s:x="24.5" s:y="20" s:pid="Y"/></g><g s:type="inputExt" transform="translate(12,102)" s:width="30" s:height="20" id="cell_In_Str"><text x="15" y="-4" class="nodelabel cell_In_Str" s:attribute="ref">In_Str</text><s:alias val="$_inputExt_"/><path d="M0,0 L0,20 L15,20 L30,10 L15,0 Z" fill="#8bcaff" class="cell_In_Str"/><g s:x="30" s:y="10" s:pid="Y"/></g><g s:type="outputExt" transform="translate(427.5,34.5)" s:width="30" s:height="20" id="cell_Extended_Out"><text x="15" y="-4" class="nodelabel cell_Extended_Out" s:attribute="ref">Extended_Out</text><s:alias val="$_outputExt_"/><path d="M30,0 L30,20 L15,20 L0,10 L15,0 Z" fill="#169300" class="cell_Extended_Out"/><g s:x="0" s:y="10" s:pid="A"/></g><g s:type="constant" transform="translate(122,34.5)" s:width="30" s:height="20" id="cell_000000000"><text x="15" y="-4" class="nodelabel cell_000000000" s:attribute="ref">0x0</text><s:alias val="$_constant_"/><rect width="30" height="20" fill="#745bff" class="cell_000000000"/><g s:x="31" s:y="10" s:pid="Y"/></g><g s:type="constant" transform="translate(122,176.5)" s:width="30" s:height="20" id="cell_111111111"><text x="15" y="-4" class="nodelabel cell_111111111" s:attribute="ref">0x1ff</text><s:alias val="$_constant_"/><rect width="30" height="20" fill="#745bff" class="cell_111111111"/><g s:x="31" s:y="10" s:pid="Y"/></g><g s:type="join" transform="translate(248,14)" s:width="5" s:height="40" id="cell_$join$,11,12,13,14,15,16,17,34,35,36,37,38,39,40,41,42,"><rect width="5" height="40" class="splitjoinBody" s:generic="body"/><s:alias val="$_join_"/><g s:x="5" s:y="20" s:pid="out"/><g transform="translate(-1,10)" s:x="-1" s:y="10" s:pid="in0"><text x="-3" y="-4" class="inputPortLabel">0:6</text></g><g transform="translate(-1,30)" s:x="-1" s:y="10" s:pid="in0"><text x="-3" y="-4" class="inputPortLabel">7:15</text></g></g><g s:type="join" transform="translate(248,91.5)" s:width="5" s:height="40" id="cell_$join$,11,12,13,14,15,16,17,43,44,45,46,47,48,49,50,51,"><rect width="5" height="40" class="splitjoinBody" s:generic="body"/><s:alias val="$_join_"/><g s:x="5" s:y="20" s:pid="out"/><g transform="translate(-1,10)" s:x="-1" s:y="10" s:pid="in0"><text x="-3" y="-4" class="inputPortLabel">0:6</text></g><g transform="translate(-1,30)" s:x="-1" s:y="10" s:pid="in0"><text x="-3" y="-4" class="inputPortLabel">7:15</text></g></g><g s:type="split" transform="translate(123,91.5)" s:width="5" s:height="40" id="cell_$split$,2,3,4,5,6,7,8,9,10,11,12,13,14,15,16,17,"><rect width="5" height="40" class="splitjoinBody" s:generic="body"/><s:alias val="$_split_"/><g s:x="-1" s:y="20" s:pid="in"/><g transform="translate(5,10)" s:x="5" s:y="10" s:pid="out0"><text x="5" y="-4">9:15</text></g><g transform="translate(5,30)" s:x="5" s:y="10" s:pid="out0"><text x="5" y="-4">9</text></g></g><line x1="254" x2="328" y1="34.5" y2="34.5" class="net_11,12,13,14,15,16,17,34,35,36,37,38,39,40,41,42 width_16" style="stroke-width: 2"/><line x1="254" x2="303" y1="112" y2="112" class="net_11,12,13,14,15,16,17,43,44,45,46,47,48,49,50,51 width_16" style="stroke-width: 2"/><line x1="303" x2="303" y1="112" y2="54.5" class="net_11,12,13,14,15,16,17,43,44,45,46,47,48,49,50,51 width_16" style="stroke-width: 2"/><line x1="303" x2="328" y1="54.5" y2="54.5" class="net_11,12,13,14,15,16,17,43,44,45,46,47,48,49,50,51 width_16" style="stroke-width: 2"/><line x1="129" x2="164" y1="122" y2="122" class="net_11 width_1" style="stroke-width: 1"/><line x1="164" x2="164" y1="122" y2="202.5" class="net_11 width_1" style="stroke-width: 1"/><line x1="164" x2="341" y1="202.5" y2="202.5" class="net_11 width_1" style="stroke-width: 1"/><line x1="341" x2="341" y1="202.5" y2="62.5" class="net_11 width_1" style="stroke-width: 1"/><line x1="353.5" x2="427.5" y1="44.5" y2="44.5" class="net_18,19,20,21,22,23,24,25,26,27,28,29,30,31,32,33 width_16" style="stroke-width: 2"/><line x1="129" x2="164" y1="102" y2="102" class="net_11,12,13,14,15,16,17 width_7" style="stroke-width: 2"/><line x1="164" x2="164" y1="102" y2="24.5" class="net_11,12,13,14,15,16,17 width_7" style="stroke-width: 2"/><circle cx="164" cy="102" r="3" style="fill:#000" class="net_11,12,13,14,15,16,17 width_7"/><line x1="164" x2="247" y1="24.5" y2="24.5" class="net_11,12,13,14,15,16,17 width_7" style="stroke-width: 2"/><line x1="129" x2="247" y1="102" y2="102" class="net_11,12,13,14,15,16,17 width_7" style="stroke-width: 2"/><line x1="153" x2="247" y1="44.5" y2="44.5" class="net_34,35,36,37,38,39,40,41,42 width_9" style="stroke-width: 2"/><line x1="153" x2="203" y1="186.5" y2="186.5" class="net_43,44,45,46,47,48,49,50,51 width_9" style="stroke-width: 2"/><line x1="203" x2="203" y1="186.5" y2="122" class="net_43,44,45,46,47,48,49,50,51 width_9" style="stroke-width: 2"/><line x1="203" x2="247" y1="122" y2="122" class="net_43,44,45,46,47,48,49,50,51 width_9" style="stroke-width: 2"/><line x1="42" x2="122" y1="112" y2="112" class="net_2,3,4,5,6,7,8,9,10,11,12,13,14,15,16,17 width_16" style="stroke-width: 2"/><rect x="290" y="29.5" width="22" height="9" class="net_11,12,13,14,15,16,17,34,35,36,37,38,39,40,41,42 width_16 busLabel_16" style="fill: white; stroke: none"/><text x="289" y="37.5" class="net_11,12,13,14,15,16,17,34,35,36,37,38,39,40,41,42 width_16 busLabel_16">/16/</text><rect x="290" y="107" width="22" height="9" class="net_11,12,13,14,15,16,17,43,44,45,46,47,48,49,50,51 width_16 busLabel_16" style="fill: white; stroke: none"/><text x="289" y="115" class="net_11,12,13,14,15,16,17,43,44,45,46,47,48,49,50,51 width_16 busLabel_16">/16/</text><rect x="389.5" y="39.5" width="22" height="9" class="net_18,19,20,21,22,23,24,25,26,27,28,29,30,31,32,33 width_16 busLabel_16" style="fill: white; stroke: none"/><text x="388.5" y="47.5" class="net_18,19,20,21,22,23,24,25,26,27,28,29,30,31,32,33 width_16 busLabel_16">/16/</text><rect x="190" y="97" width="16" height="9" class="net_11,12,13,14,15,16,17 width_7 busLabel_7" style="fill: white; stroke: none"/><text x="189" y="105" class="net_11,12,13,14,15,16,17 width_7 busLabel_7">/7/</text><rect x="190" y="97" width="16" height="9" class="net_11,12,13,14,15,16,17 width_7 busLabel_7" style="fill: white; stroke: none"/><text x="189" y="105" class="net_11,12,13,14,15,16,17 width_7 busLabel_7">/7/</text><rect x="190" y="39.5" width="16" height="9" class="net_34,35,36,37,38,39,40,41,42 width_9 busLabel_9" style="fill: white; stroke: none"/><text x="189" y="47.5" class="net_34,35,36,37,38,39,40,41,42 width_9 busLabel_9">/9/</text><rect x="190" y="181.5" width="16" height="9" class="net_43,44,45,46,47,48,49,50,51 width_9 busLabel_9" style="fill: white; stroke: none"/><text x="189" y="189.5" class="net_43,44,45,46,47,48,49,50,51 width_9 busLabel_9">/9/</text><rect x="84" y="107" width="22" height="9" class="net_2,3,4,5,6,7,8,9,10,11,12,13,14,15,16,17 width_16 busLabel_16" style="fill: white; stroke: none"/><text x="83" y="115" class="net_2,3,4,5,6,7,8,9,10,11,12,13,14,15,16,17 width_16 busLabel_16">/16/</text></svg>